{"glyphs":{"0":{"ha":476,"x_min":11,"x_max":469,"o":"m 229 -246 q 231 -221 229 -242 q 233 -176 232 -200 q 235 -131 233 -151 q 236 -106 236 -110 l 236 -39 l 236 0 l 229 7 l 219 0 q 216 -29 219 -7 q 213 -58 213 -51 q 210 -72 213 -62 q 204 -83 207 -81 l 200 -83 l 199 -83 q 195 -63 199 -78 q 192 -43 192 -49 q 189 -34 190 -42 q 187 -18 188 -26 q 185 -3 186 -10 q 182 7 183 4 q 168 15 179 10 q 154 24 157 21 q 141 31 150 25 q 129 38 132 36 q 122 44 125 40 q 117 54 117 53 q 106 67 114 57 q 92 82 97 76 q 84 95 89 86 q 79 107 79 104 q 73 115 76 108 q 65 130 69 122 q 58 144 61 138 q 54 150 56 150 q 49 167 53 154 q 40 194 44 179 q 31 222 35 208 q 25 242 26 235 q 22 260 24 244 q 17 279 19 275 q 16 294 17 283 q 14 315 15 304 q 12 335 13 325 q 11 349 11 344 l 11 388 l 11 429 q 12 442 11 432 q 14 463 13 451 q 16 486 15 475 q 17 504 17 497 q 22 526 19 510 q 25 549 24 543 q 28 563 25 550 q 32 579 32 575 q 36 590 33 582 q 42 606 39 597 q 47 622 44 614 q 49 632 49 629 l 49 638 l 49 649 q 44 658 46 653 q 42 669 42 667 l 42 674 l 42 675 q 44 689 42 678 q 49 699 46 694 q 56 712 50 703 q 63 724 61 721 q 73 733 65 725 q 89 749 81 740 q 105 765 97 757 q 117 775 113 772 q 131 787 119 778 q 144 799 142 796 q 153 802 146 799 q 168 809 160 806 q 183 815 176 813 q 192 819 189 818 q 206 822 194 819 q 219 825 217 825 q 229 827 222 825 q 238 829 236 829 q 250 826 242 829 q 257 825 254 825 q 272 822 261 825 q 288 819 283 819 q 302 812 290 817 q 319 804 314 807 q 331 796 322 801 q 342 788 339 790 q 352 777 344 785 q 368 762 360 769 q 384 747 376 754 q 394 738 392 740 q 406 719 394 736 q 424 692 418 701 q 426 685 425 689 q 432 675 428 678 q 440 657 435 671 q 444 638 444 643 q 449 628 446 635 q 454 614 451 621 q 459 601 457 607 q 461 594 461 596 q 466 574 463 588 q 469 557 469 560 l 469 482 l 469 407 q 466 388 469 404 q 461 361 463 371 q 458 342 461 356 q 454 324 454 328 q 449 308 451 318 q 444 294 447 297 q 440 280 443 290 q 434 258 438 269 q 427 237 431 246 q 424 225 424 228 q 419 215 422 222 q 412 199 415 207 q 405 183 408 190 q 400 174 401 175 q 392 158 396 165 q 379 136 385 144 q 369 124 376 133 q 363 113 363 115 q 349 94 361 108 q 332 75 336 81 q 326 68 332 74 q 319 61 319 63 q 311 56 317 60 q 299 47 306 51 q 288 38 293 42 q 282 32 283 33 l 267 17 q 264 -19 265 6 q 262 -72 263 -44 q 260 -124 261 -99 q 257 -158 258 -149 q 256 -167 257 -160 q 255 -183 256 -174 q 253 -203 254 -193 q 250 -218 251 -212 q 249 -228 250 -221 q 247 -242 247 -235 q 245 -255 246 -249 q 244 -262 244 -261 q 240 -269 242 -264 q 236 -276 238 -275 q 233 -267 236 -275 q 229 -256 229 -258 l 229 -251 l 229 -246 m 129 386 q 131 376 129 383 q 133 360 132 368 q 136 344 135 351 q 138 332 138 336 q 144 306 138 326 q 154 279 151 286 q 160 261 154 275 q 167 242 167 247 q 180 217 172 235 q 192 194 188 199 q 198 183 192 192 q 204 174 204 175 q 224 154 210 168 q 244 136 239 140 l 257 129 l 269 129 l 282 129 l 288 138 q 292 144 290 140 q 294 150 293 147 q 304 166 297 156 q 311 182 311 176 q 315 192 311 183 q 322 213 318 201 q 328 234 325 224 q 332 249 331 244 q 337 263 335 250 q 342 279 339 275 q 345 300 342 286 q 349 317 349 314 q 350 331 349 321 q 352 352 351 342 q 354 372 353 363 q 357 386 356 382 l 357 413 l 357 444 q 354 458 356 449 q 352 476 353 467 q 350 494 351 486 q 349 504 349 501 q 346 516 349 507 q 340 535 343 525 q 332 556 336 546 q 325 574 328 567 q 318 587 324 575 q 311 600 313 599 q 304 612 311 603 q 294 624 297 621 q 283 641 292 631 q 274 654 275 651 q 262 665 271 657 q 250 675 253 674 q 240 683 249 678 q 229 692 232 689 q 220 684 226 689 q 206 674 214 679 q 190 663 197 668 q 182 654 183 657 q 172 647 178 651 q 161 638 161 639 q 153 631 158 636 q 144 624 147 625 q 140 611 142 617 q 138 594 138 597 q 133 565 136 585 q 129 542 129 544 l 129 463 l 129 386 m 269 550 q 276 549 272 550 q 282 549 279 549 l 288 542 l 288 413 q 283 399 288 411 q 274 386 278 388 q 257 367 271 381 q 236 349 243 353 q 228 342 233 346 q 219 338 222 338 l 204 338 l 192 338 q 185 342 189 338 q 182 349 182 346 l 182 474 q 185 481 182 475 q 192 488 189 486 l 199 501 q 204 511 201 507 q 218 524 210 515 q 229 536 226 533 q 243 543 232 538 q 257 549 254 549 q 263 549 260 549 q 269 550 267 550 z "},"1":{"ha":263,"x_min":-39,"x_max":275,"o":"m 183 -12 q 175 -10 182 -12 q 165 -8 168 -8 q 158 -1 163 -6 q 150 6 153 3 q 148 20 149 10 q 147 42 147 31 q 145 64 146 54 q 144 78 144 74 q 142 97 143 85 q 141 120 142 108 q 140 140 140 132 q 139 149 139 149 q 140 181 140 156 q 138 235 139 206 q 135 291 136 264 q 135 331 135 318 q 135 349 135 335 q 135 379 135 363 q 135 412 135 396 q 135 435 135 428 q 136 450 136 439 q 136 473 136 461 q 137 495 136 485 q 139 510 138 506 q 135 510 136 510 q 133 511 135 511 l 129 510 q 116 498 126 510 q 104 483 106 486 q 93 476 100 481 q 78 467 86 472 q 65 458 71 461 q 57 454 58 454 q 44 444 53 450 q 27 433 36 438 q 10 424 18 428 q 1 419 3 419 q -6 418 -3 418 q -15 417 -10 417 l -31 417 l -36 424 l -36 438 q -37 443 -37 440 q -37 449 -37 446 q -39 454 -37 451 q -33 469 -39 457 q -26 486 -26 481 q -20 492 -25 486 q -10 504 -15 497 q 1 517 -4 511 q 8 526 7 524 q 19 532 14 529 q 28 537 24 535 q 36 542 33 539 q 49 547 39 543 q 61 550 58 550 q 72 558 64 550 q 79 569 81 567 q 92 580 83 571 q 108 599 100 589 q 125 619 117 610 q 138 631 133 628 q 146 645 139 633 q 156 663 153 657 q 167 682 158 667 q 178 700 175 697 q 184 715 178 704 q 190 728 190 725 q 194 731 193 728 q 197 733 194 733 q 213 746 203 736 q 225 756 222 756 q 235 764 226 758 q 242 768 239 767 l 254 768 l 258 768 q 263 769 260 768 q 269 765 265 767 q 272 760 272 763 l 272 742 q 272 737 272 740 q 274 731 272 733 q 275 722 274 726 q 273 715 275 722 q 268 701 271 708 q 263 686 265 693 q 261 678 261 679 q 258 660 260 671 q 258 644 257 650 q 256 639 257 644 q 255 626 256 633 q 253 613 254 619 q 253 601 253 606 q 251 572 253 592 q 249 549 249 551 q 247 532 247 544 q 246 506 246 519 q 246 482 246 493 q 244 468 246 471 q 246 439 246 460 q 247 395 246 418 q 247 352 247 372 q 249 324 247 332 q 250 271 249 307 q 253 195 251 235 q 257 122 256 156 q 260 76 258 88 q 261 43 260 67 q 264 -6 263 19 q 267 -56 265 -32 q 271 -89 269 -79 l 265 -106 q 259 -87 263 -100 q 256 -69 256 -74 q 250 -49 253 -64 q 245 -17 247 -33 q 241 13 243 -1 q 238 33 239 28 l 213 3 q 210 -17 211 -3 q 210 -46 210 -31 q 210 -75 210 -61 q 208 -93 210 -89 q 210 -108 210 -97 q 209 -128 210 -118 q 208 -149 208 -139 q 207 -161 207 -158 l 194 -157 l 183 -12 z "},"2":{"ha":611,"x_min":-97,"x_max":661,"o":"m 265 31 l 249 31 q 240 30 247 31 q 222 28 232 29 q 202 24 213 26 q 186 21 192 22 q 176 19 183 21 q 160 17 168 18 q 144 15 151 17 q 136 14 138 14 q 106 8 125 11 q 65 1 86 4 q 28 -4 44 -1 q 8 -7 11 -7 q -3 -11 6 -8 q -23 -17 -12 -14 q -42 -22 -33 -19 q -54 -24 -51 -24 l -72 -24 l -92 -24 q -94 -15 -92 -21 q -97 -7 -97 -10 l -97 -4 l -97 0 q -91 14 -97 1 q -83 31 -85 26 q -75 42 -81 33 q -67 51 -69 50 q -56 63 -67 54 q -39 75 -44 72 q -32 78 -37 75 q -20 86 -26 82 q -8 93 -14 90 q -1 96 -3 96 q 6 102 0 97 q 19 113 11 107 q 34 125 26 119 q 46 133 42 131 q 49 138 46 136 q 53 143 53 140 q 67 159 57 149 q 85 180 76 169 q 102 199 94 190 q 111 208 110 207 q 126 226 115 213 q 142 246 138 240 q 151 260 144 250 q 164 279 157 269 q 177 297 171 289 q 186 308 183 306 q 203 331 192 315 q 227 363 215 346 q 249 394 239 379 q 261 413 258 408 q 278 438 265 419 q 305 478 290 457 q 333 520 319 500 q 353 550 346 540 q 363 568 354 554 q 374 588 371 582 q 380 599 375 590 q 390 617 385 607 q 400 635 396 626 q 404 646 404 643 q 409 657 407 649 q 411 668 411 665 q 413 675 411 671 q 415 683 415 681 q 413 692 415 686 q 411 700 411 697 q 409 710 411 701 q 404 721 407 718 q 394 732 403 724 q 383 743 386 740 q 375 748 381 746 q 367 750 369 750 q 349 755 363 751 q 329 758 335 758 q 315 757 328 758 q 296 756 301 756 q 297 747 296 753 q 299 732 297 740 q 300 716 300 724 q 299 706 300 708 q 292 689 299 696 q 289 694 292 692 q 286 700 286 697 q 283 709 285 701 q 281 725 282 717 q 278 740 279 733 q 278 750 278 747 q 268 751 275 750 q 258 751 261 751 q 253 751 256 751 q 247 750 250 750 l 240 750 q 228 747 233 749 q 211 743 214 744 q 197 740 206 743 q 186 738 189 738 q 178 732 183 735 q 174 726 174 729 q 168 724 171 726 l 165 721 q 168 706 165 718 q 174 689 171 694 q 178 676 174 688 q 186 663 183 664 q 192 653 188 660 q 202 638 197 646 q 212 624 207 631 q 217 614 217 617 q 222 605 218 611 q 228 592 225 599 q 235 578 232 585 q 240 571 239 572 l 240 563 l 240 556 q 233 539 240 551 q 224 525 226 526 q 217 517 222 522 q 206 506 213 511 q 194 494 200 500 q 186 488 188 489 q 174 481 183 488 q 158 475 164 475 l 156 472 q 149 471 154 471 l 142 475 q 134 476 140 475 q 128 481 128 478 q 119 497 125 483 q 111 513 114 510 q 104 521 110 513 q 92 540 99 529 q 81 559 86 550 q 74 571 75 568 q 67 585 74 574 q 58 600 61 597 q 56 613 58 604 q 53 625 53 622 l 53 656 l 53 683 q 57 696 53 688 q 67 713 61 704 q 76 731 72 722 q 83 743 81 739 q 91 753 85 746 q 106 767 97 760 q 123 783 114 775 q 136 796 132 792 q 145 804 136 799 q 158 813 154 810 q 172 819 161 814 q 194 831 182 825 q 218 842 207 836 q 233 850 229 847 l 242 853 q 254 856 250 856 q 269 859 257 856 q 286 864 281 863 q 307 867 293 864 q 324 871 321 871 l 378 871 l 428 871 q 438 867 429 871 q 449 864 446 864 q 460 860 453 864 q 474 853 467 857 q 487 844 481 849 q 496 839 493 840 l 503 833 q 505 827 503 831 q 510 821 507 824 q 517 813 513 817 l 524 799 q 528 789 526 793 l 528 756 l 528 721 q 524 706 528 718 q 517 689 519 694 q 510 672 517 688 q 503 651 504 657 q 491 630 500 647 q 479 608 482 613 q 471 593 476 604 q 458 570 465 582 q 444 548 450 558 q 436 533 438 538 q 423 514 433 529 q 400 481 413 499 q 376 446 388 463 q 361 421 365 429 q 351 403 358 415 q 335 380 343 392 q 319 358 326 368 q 308 346 311 347 q 288 319 304 339 q 254 275 272 299 q 219 229 236 251 q 196 196 203 207 q 190 188 194 193 q 179 176 185 182 q 169 165 174 169 q 165 158 165 160 q 153 141 163 153 q 142 126 144 129 l 158 126 l 174 126 q 192 128 178 126 q 225 133 207 131 q 258 139 243 136 q 278 143 274 142 q 290 144 281 143 q 310 147 300 146 q 331 149 321 147 q 346 150 342 150 l 353 158 q 344 173 350 163 q 333 195 339 183 q 322 218 328 207 q 315 233 317 229 q 312 244 315 236 q 308 256 308 253 l 308 271 l 308 283 q 315 300 308 293 q 317 306 315 303 q 322 313 319 310 q 329 321 325 317 q 338 331 332 324 q 346 338 343 338 q 357 344 349 339 q 367 351 365 350 q 383 358 374 358 l 390 363 q 392 361 390 361 q 393 360 393 361 q 394 360 393 360 q 399 358 396 358 q 404 357 401 358 q 411 351 411 353 q 419 336 413 347 q 431 314 425 325 q 442 292 438 303 q 449 276 447 281 l 474 239 q 485 226 475 236 q 508 203 496 215 q 531 179 519 190 q 549 164 543 168 q 556 161 551 163 q 565 158 564 158 q 576 153 565 156 q 592 150 588 151 q 599 149 593 150 q 612 147 606 147 q 624 144 618 146 q 629 143 629 143 q 638 140 632 143 q 646 133 643 136 q 653 127 649 133 q 661 121 658 121 l 661 118 l 661 113 q 656 101 658 110 q 653 89 654 92 q 647 79 653 88 q 640 68 642 71 l 624 51 q 606 39 618 47 q 592 31 594 31 q 582 26 590 28 q 571 21 574 24 l 554 21 l 540 21 q 526 25 538 22 q 503 31 515 28 q 479 35 490 33 q 465 38 468 38 l 411 38 l 361 38 q 356 33 360 38 l 353 31 l 353 -17 q 349 -31 353 -19 q 346 -44 346 -42 q 341 -41 343 -44 q 336 -37 339 -37 q 333 -28 336 -36 q 329 -17 329 -19 q 326 7 329 -12 q 324 31 324 26 l 308 31 q 308 -9 308 19 q 306 -69 307 -37 q 302 -128 304 -100 q 299 -167 300 -156 q 297 -183 299 -174 q 294 -203 296 -193 q 292 -225 293 -214 l 279 -225 l 279 31 l 265 31 z "},"3":{"ha":628,"x_min":0,"x_max":631,"o":"m 346 -3 q 342 0 343 -1 l 338 4 q 331 3 335 4 q 325 0 328 1 q 318 -3 321 -1 l 318 -65 l 308 -71 q 303 -64 306 -69 q 300 -57 300 -58 q 299 -47 300 -54 q 297 -31 297 -39 q 294 -15 296 -22 q 293 -3 293 -7 q 278 1 289 -3 q 263 4 267 4 q 251 7 260 4 q 239 10 242 10 q 232 15 238 13 q 225 18 226 17 q 213 25 222 18 q 201 35 204 32 q 185 46 197 38 q 171 56 174 54 q 160 67 168 58 q 150 79 151 76 q 135 97 147 83 q 118 117 124 111 q 114 123 115 119 q 110 129 113 126 q 106 138 107 133 q 94 157 101 143 q 81 185 88 171 q 67 213 74 200 q 58 229 60 225 q 55 239 58 231 q 51 250 51 247 q 48 265 50 254 q 43 281 46 276 q 40 303 43 289 q 38 318 38 317 l 38 342 l 38 363 q 40 371 38 365 q 43 379 43 376 q 47 385 44 382 q 51 392 49 389 q 58 400 54 396 q 67 410 61 403 q 75 417 72 417 q 85 424 76 418 q 96 431 93 429 q 106 436 99 433 q 113 438 110 438 q 117 439 114 438 q 125 442 122 442 q 126 440 125 440 q 128 440 128 440 q 129 439 128 439 q 133 438 131 438 q 143 431 136 438 q 147 421 143 429 q 150 410 150 413 q 151 403 150 408 q 153 391 151 397 q 155 379 154 385 q 156 372 156 374 q 161 356 158 368 q 164 342 164 343 q 167 330 164 339 q 171 318 171 321 q 182 299 175 313 q 196 272 189 286 q 209 244 203 257 q 218 229 215 232 q 226 215 218 226 q 239 200 235 203 q 249 190 242 197 q 265 174 257 182 q 281 158 274 165 q 293 147 289 150 q 301 139 293 144 q 314 131 310 133 q 322 127 317 129 q 331 125 328 125 q 344 119 333 122 q 358 117 356 117 l 368 117 l 375 117 q 391 124 379 118 q 406 131 403 129 q 414 143 410 138 q 420 154 417 149 q 426 163 424 160 q 436 174 429 165 q 443 185 443 182 q 449 196 444 188 q 457 213 453 204 q 465 231 461 222 q 471 243 469 240 q 481 261 474 246 q 488 281 488 276 q 494 303 489 286 q 501 325 500 319 q 506 343 504 332 q 508 356 508 354 q 509 363 508 357 q 510 376 510 369 q 512 390 511 383 q 513 400 513 397 q 512 410 513 404 q 510 424 511 417 q 508 438 508 431 q 503 452 508 440 q 496 468 499 464 q 488 476 493 471 q 481 485 483 482 q 466 492 478 488 q 450 500 454 497 q 435 503 447 500 q 421 506 424 506 l 393 506 l 368 506 q 367 493 368 503 q 365 473 367 483 q 362 452 364 463 q 358 438 360 442 l 351 425 q 348 440 350 428 q 346 454 346 451 q 340 480 343 461 q 338 506 338 499 l 318 506 l 318 438 q 308 447 308 438 q 298 476 303 454 q 293 506 293 499 l 283 506 l 276 506 q 261 503 275 506 q 239 500 247 500 q 223 495 235 497 q 208 492 211 493 q 186 485 203 492 q 164 479 169 479 q 158 475 164 478 q 147 469 153 472 q 134 465 140 467 q 126 463 128 463 q 103 460 122 460 q 76 460 85 460 q 78 478 76 463 q 81 500 81 494 q 85 507 83 503 q 89 517 86 511 q 108 535 94 521 q 126 554 122 549 q 135 558 128 554 q 149 567 142 563 q 163 576 157 572 q 171 581 169 581 q 186 596 175 585 q 210 620 197 607 q 236 647 224 633 q 256 667 249 660 q 267 681 261 674 q 283 704 275 693 q 294 715 288 707 q 308 733 301 724 q 322 751 315 743 q 331 763 328 760 q 319 759 328 763 q 308 754 311 756 q 256 732 293 747 q 176 699 218 717 q 96 665 133 681 q 43 642 58 649 l 6 642 q 3 649 4 646 q 0 656 0 654 l 0 667 l 0 672 q 3 679 1 675 q 6 688 6 685 q 15 699 8 690 q 21 710 21 707 q 32 721 24 713 q 43 731 40 729 q 55 739 46 733 q 68 747 64 744 q 74 751 68 749 q 81 754 76 753 q 158 786 108 765 q 256 827 207 807 q 344 863 306 847 q 389 881 382 878 q 403 888 393 883 q 425 895 414 892 q 446 902 436 899 q 458 906 456 906 l 471 906 l 488 906 l 496 897 l 496 881 l 496 868 q 488 854 493 867 q 481 838 483 842 q 472 826 478 835 q 464 817 467 818 q 435 778 456 806 q 392 722 415 751 q 349 665 369 692 q 321 629 329 639 l 464 629 q 472 628 465 629 q 485 625 478 626 q 499 622 492 624 q 508 618 506 619 q 526 615 515 618 q 539 613 538 613 q 556 605 544 610 q 571 597 568 600 l 608 560 q 615 545 608 557 q 625 529 622 533 q 628 511 625 526 q 631 492 631 496 l 631 468 l 631 447 q 628 427 631 444 q 625 400 625 410 q 619 386 622 397 q 614 372 617 375 q 610 355 614 365 q 603 334 607 344 q 597 315 600 324 q 593 304 594 306 q 585 288 590 300 q 575 263 581 276 q 564 238 569 250 q 556 222 558 226 q 550 213 554 219 q 541 197 546 206 q 531 181 536 189 q 525 168 526 172 q 518 158 525 167 q 508 147 511 150 q 497 129 506 140 q 488 117 489 118 q 474 103 483 113 q 453 83 464 93 q 434 62 443 72 q 421 47 425 51 q 415 44 419 47 q 406 38 411 42 q 395 30 400 33 q 389 25 390 26 q 382 19 388 25 q 375 10 376 13 l 375 -94 q 374 -105 375 -97 q 372 -121 372 -112 q 369 -137 371 -129 q 368 -146 368 -144 l 358 -140 q 357 -115 358 -128 q 354 -94 356 -104 q 351 -78 353 -85 q 350 -65 351 -75 q 348 -42 349 -54 q 347 -18 347 -29 q 346 -3 346 -7 z "},"4":{"ha":528,"x_min":-14,"x_max":549,"o":"m 379 235 l 354 235 q 332 234 347 235 q 300 232 317 233 q 269 228 283 231 q 249 225 254 226 q 247 207 249 221 q 245 178 246 193 q 243 149 244 163 q 242 129 242 135 q 237 115 239 126 q 232 97 235 103 q 228 110 232 100 q 225 122 225 119 l 225 218 l 219 225 q 215 226 217 225 q 214 227 214 226 q 213 228 214 228 q 211 229 211 228 l 204 225 q 201 203 204 219 q 194 181 197 186 q 190 178 194 182 l 188 175 q 184 177 186 175 q 179 181 182 179 q 176 205 179 186 q 174 231 174 224 l -8 231 q -11 235 -10 232 q -14 242 -14 240 l -14 256 l -14 272 q -11 280 -14 275 q -8 288 -8 285 q 28 322 1 297 q 83 376 54 347 q 138 430 113 404 q 174 467 164 456 q 178 473 174 467 q 190 487 183 479 q 202 502 196 494 q 211 513 208 510 q 219 522 213 514 q 233 540 225 531 q 247 558 240 549 q 257 572 254 568 q 263 583 257 575 q 269 593 269 592 q 283 616 274 601 q 294 631 292 631 q 297 647 294 633 q 300 663 300 660 q 308 678 303 667 q 317 692 314 689 q 323 699 318 693 q 334 710 328 704 q 346 722 340 717 q 354 729 351 728 q 368 737 357 731 q 382 743 379 743 l 399 743 l 413 743 q 415 742 414 743 q 419 738 419 738 q 421 733 419 736 q 424 725 424 728 q 421 719 424 722 q 419 717 419 718 q 416 705 419 714 q 413 692 413 696 q 407 677 413 688 q 395 655 401 667 q 383 632 389 643 q 375 617 378 621 q 372 610 375 615 q 366 599 369 606 q 359 588 363 593 q 354 579 356 582 q 346 567 351 576 q 338 556 340 558 q 329 544 335 553 q 316 526 324 536 q 302 508 308 517 q 294 497 296 500 q 277 478 289 493 q 263 460 265 463 q 243 437 257 453 q 214 403 229 421 q 185 369 199 385 q 167 347 171 353 l 225 347 l 286 347 q 303 349 290 347 q 331 351 317 350 q 358 353 344 351 q 375 354 371 354 l 375 497 q 378 508 376 503 q 381 519 379 514 q 382 529 382 525 q 388 539 385 531 q 392 550 392 547 q 398 561 392 553 q 407 572 404 569 q 418 583 410 575 q 429 593 426 592 q 440 601 432 596 q 450 610 449 607 q 458 615 453 613 q 467 617 464 617 l 475 618 q 478 617 476 618 q 483 617 481 617 l 488 617 l 490 614 q 494 610 494 610 q 501 601 497 607 q 504 593 504 596 q 506 588 504 593 q 508 575 507 582 q 510 561 508 568 q 511 550 511 554 q 513 538 511 547 q 515 519 514 529 q 517 501 515 510 q 519 488 518 492 q 520 473 519 485 q 522 448 521 461 q 524 422 524 435 q 525 406 525 410 q 528 392 525 404 q 532 375 532 379 l 532 138 q 533 125 532 135 q 535 103 533 115 q 538 79 536 92 q 542 60 540 67 q 543 51 542 58 q 545 34 544 43 q 547 18 546 25 q 549 10 549 11 l 549 -3 l 549 -15 q 545 -26 549 -18 q 542 -37 542 -35 q 532 -48 539 -40 q 517 -64 525 -56 q 500 -80 508 -72 q 488 -90 492 -87 l 479 -93 q 467 -96 471 -96 l 457 -96 l 450 -96 q 443 -90 449 -96 q 436 -82 438 -83 q 433 -70 436 -79 q 429 -58 429 -61 q 428 -47 429 -57 q 426 -25 428 -37 q 423 -1 425 -12 q 419 17 421 10 q 417 58 419 28 q 413 124 415 89 q 409 190 411 158 q 407 235 407 222 l 379 235 z "},"5":{"ha":589,"x_min":6,"x_max":614,"o":"m 206 -18 q 183 -15 200 -18 q 161 -11 167 -11 q 151 -8 161 -10 q 139 -3 142 -6 q 122 6 133 0 q 111 14 111 11 q 96 26 107 15 q 81 40 85 36 q 72 52 78 43 q 64 65 67 61 q 56 80 61 68 q 49 94 51 92 q 44 107 47 97 q 38 128 40 117 q 31 149 35 139 q 26 164 28 160 q 23 179 26 165 q 19 201 19 193 q 15 230 18 211 q 11 253 11 249 l 11 297 l 11 335 q 19 349 14 338 q 26 365 24 361 q 44 385 31 371 q 64 403 58 399 l 64 410 q 42 413 58 410 q 19 415 25 415 q 12 424 18 418 q 6 432 6 429 l 6 447 l 6 464 q 8 474 6 465 q 15 493 11 483 q 22 511 18 503 q 26 522 25 519 q 33 542 28 528 q 43 570 38 556 q 53 597 49 585 q 57 614 57 610 q 62 630 60 618 q 64 644 64 642 l 64 689 l 64 732 q 53 749 61 738 q 43 764 44 761 q 35 776 40 768 q 26 785 29 785 l 11 815 q 8 827 11 818 q 6 839 6 836 l 6 860 l 6 876 q 12 892 6 881 q 19 907 18 903 l 64 951 q 78 958 67 953 q 94 965 90 964 l 101 965 l 111 965 l 124 960 l 149 935 q 157 915 149 932 q 169 890 165 899 q 173 881 169 889 q 176 869 176 872 q 181 853 179 867 q 186 839 183 840 q 189 825 186 836 q 193 815 190 819 l 196 813 q 199 807 199 810 q 215 797 204 807 q 231 785 225 788 q 243 777 235 782 q 251 769 251 772 q 276 758 261 765 q 305 744 290 751 q 331 732 319 738 q 343 726 342 726 q 355 724 346 725 q 373 724 364 724 q 390 724 382 724 q 401 726 399 725 q 408 722 404 726 l 411 719 q 415 710 414 714 q 418 703 417 706 l 418 690 l 418 682 q 411 665 418 678 q 401 651 404 653 q 395 643 400 649 q 384 632 390 638 q 372 621 378 626 q 364 614 365 615 q 350 604 361 611 q 336 597 339 597 l 318 597 l 299 597 q 290 599 296 597 q 276 604 283 601 q 263 610 269 607 q 251 614 256 613 q 235 621 247 615 q 210 632 224 626 q 185 643 197 638 q 169 651 174 649 l 132 539 l 132 532 q 161 525 140 529 q 205 515 182 521 q 248 506 228 510 q 276 501 268 501 q 297 497 282 500 q 326 490 311 493 q 356 483 342 486 q 374 478 369 479 q 399 471 379 476 q 426 464 419 465 q 440 459 431 463 q 459 452 449 456 q 479 445 469 449 q 493 440 489 442 q 514 433 500 439 q 531 426 528 426 q 550 415 535 424 q 568 403 565 406 q 578 392 569 401 q 589 378 586 383 q 599 368 592 376 q 606 357 606 360 q 609 344 607 354 q 614 328 611 333 l 614 315 l 614 303 q 609 290 611 301 q 606 276 607 278 q 597 253 606 271 q 582 228 588 236 q 576 218 582 226 q 568 207 569 210 q 553 189 565 203 q 539 169 542 175 q 527 158 536 167 q 514 147 518 150 q 507 141 513 146 q 494 130 501 136 q 481 117 488 124 q 469 110 474 111 q 456 99 468 107 q 439 89 443 90 q 429 80 436 85 q 415 70 422 75 q 402 62 408 65 q 394 57 396 58 q 370 44 388 53 q 333 27 353 36 q 294 10 313 18 q 269 -3 276 1 l 269 -61 l 261 -61 l 244 -11 l 239 -11 q 235 -37 238 -18 q 231 -77 233 -56 q 227 -119 229 -99 q 224 -147 225 -139 q 219 -158 221 -149 q 214 -168 217 -168 q 213 -171 214 -171 q 210 -172 211 -171 q 206 -174 207 -174 l 206 -18 m 124 365 q 126 353 125 363 q 128 333 128 343 q 131 312 129 322 q 132 297 132 301 q 133 288 132 294 q 135 274 135 281 q 138 260 136 267 q 139 253 139 254 q 144 240 140 250 q 150 220 147 231 q 156 199 153 210 q 161 185 160 189 q 170 167 164 179 q 176 153 176 156 q 194 138 179 151 q 214 115 208 124 q 222 113 217 115 q 231 110 228 110 l 268 110 l 306 110 q 315 113 307 110 q 326 115 324 115 q 344 126 332 119 q 367 138 356 132 q 389 148 379 143 q 401 153 399 153 q 413 160 406 156 q 426 170 419 165 q 440 179 433 175 q 449 185 446 183 q 468 202 454 188 q 486 222 482 217 q 490 231 486 225 q 493 239 493 236 l 493 253 l 493 265 q 481 280 493 268 q 464 297 468 292 q 452 306 461 300 q 439 314 443 311 q 432 317 438 314 l 426 319 q 410 325 422 321 q 383 334 397 329 q 355 344 368 339 q 336 351 342 349 q 324 353 332 351 q 308 358 317 356 q 292 363 300 361 q 282 365 285 365 q 264 369 278 365 q 244 372 250 372 l 239 372 q 233 368 238 372 l 231 365 q 227 349 231 361 q 224 335 224 338 l 219 335 l 214 335 l 207 340 q 203 362 206 346 q 199 378 201 378 q 190 383 199 381 q 176 389 181 386 l 149 394 q 135 397 144 397 q 124 397 126 397 l 124 365 z "},"6":{"ha":465,"x_min":-1,"x_max":461,"o":"m 267 38 q 255 29 263 35 q 238 19 247 24 q 222 10 229 14 q 211 4 214 6 q 193 -1 201 1 q 178 -6 186 -4 q 167 -8 171 -7 q 156 -12 163 -10 q 141 -18 149 -15 q 127 -23 133 -21 q 119 -25 121 -25 q 102 -24 114 -26 q 86 -21 90 -21 q 67 -12 81 -18 q 49 -1 53 -7 q 43 3 46 0 q 38 7 40 6 q 36 11 36 8 q 28 22 33 14 q 24 29 25 26 q 17 43 21 32 q 13 57 13 54 q 10 65 11 60 q 8 75 10 71 q 4 86 7 81 q 3 94 4 86 q 1 112 3 101 q -1 133 0 122 q -1 150 -1 143 l -1 174 q 1 195 -1 179 q 7 229 4 211 q 13 264 10 247 q 17 288 15 281 q 21 309 17 293 q 25 332 25 325 q 33 361 28 342 q 45 401 39 381 q 56 440 51 422 q 61 463 61 457 q 69 490 63 468 q 85 543 76 513 q 106 608 94 574 q 127 672 117 642 q 144 723 138 701 q 154 750 151 744 q 157 764 154 753 q 163 788 160 775 q 169 813 165 801 q 175 829 172 825 q 185 851 175 835 q 199 875 196 868 q 206 887 200 878 q 213 899 211 896 q 224 904 215 900 q 232 913 232 908 l 238 913 l 242 917 q 247 914 243 914 q 253 913 250 914 q 261 911 257 911 l 261 906 l 261 901 q 263 899 261 900 q 265 894 264 896 q 267 890 267 893 l 267 886 q 265 868 267 881 q 263 850 263 856 q 259 837 261 846 q 254 824 257 828 q 245 792 253 817 q 227 734 238 768 q 205 662 217 700 q 183 590 193 624 q 164 531 172 556 q 154 499 156 506 q 150 489 153 496 q 144 474 147 482 q 140 458 142 465 q 138 449 138 450 q 149 457 142 450 q 163 471 156 464 q 177 484 171 478 q 186 492 183 490 q 207 509 193 497 q 225 524 221 521 q 242 528 233 525 q 256 532 249 531 q 267 536 263 533 q 281 540 272 538 q 297 545 289 543 q 312 549 306 547 q 319 550 318 550 l 328 550 q 342 554 338 550 q 358 550 344 551 q 375 549 371 549 q 388 543 378 546 q 400 538 399 540 q 410 532 404 535 q 424 524 415 529 q 428 517 424 521 q 432 511 432 513 q 443 493 436 508 q 450 475 450 478 q 456 458 450 474 q 461 432 461 442 l 461 407 q 458 395 460 404 q 453 376 456 386 q 450 356 451 365 q 449 342 449 346 q 447 329 450 339 q 442 317 444 319 q 437 297 442 313 q 429 279 432 282 q 419 258 426 272 q 404 227 413 243 q 389 196 396 211 q 379 175 382 181 q 366 160 376 174 q 350 136 356 146 q 340 123 349 136 q 329 104 332 110 q 325 101 325 104 l 325 99 q 326 85 325 94 q 330 67 328 76 q 334 48 332 57 q 336 36 336 39 l 332 24 q 326 26 329 21 q 319 29 322 32 q 308 52 317 36 q 300 74 300 68 l 288 61 q 289 51 288 58 q 292 36 290 44 q 295 20 293 28 q 299 11 297 13 q 299 -7 299 6 q 299 -25 300 -19 q 293 -17 299 -22 q 288 -8 288 -11 q 275 13 283 -6 q 267 38 267 31 m 100 167 q 103 157 101 163 q 108 146 106 151 q 113 132 111 140 q 118 124 113 129 q 125 119 124 119 l 136 113 q 153 110 140 111 q 169 111 167 108 q 179 114 174 113 q 194 117 190 117 q 208 122 199 119 q 219 125 217 125 q 232 132 222 125 q 244 142 242 139 q 253 149 246 143 q 268 163 260 156 q 284 177 276 169 q 294 188 292 185 q 304 201 297 193 q 311 211 311 208 q 322 234 314 219 q 337 264 329 249 q 351 292 344 279 q 361 307 358 304 q 364 331 361 311 q 367 354 367 350 q 364 361 365 357 q 361 374 361 369 q 360 376 361 375 q 357 381 357 379 q 354 388 356 383 q 349 396 354 390 q 344 404 344 401 q 335 408 342 404 q 324 413 328 411 q 308 415 321 413 q 288 417 296 417 l 261 417 q 251 413 260 415 q 244 411 247 411 q 232 406 240 408 q 225 404 228 404 q 212 396 221 401 q 199 388 203 390 q 186 374 189 385 q 179 366 185 372 q 168 353 174 360 q 158 342 163 347 q 154 336 154 336 q 141 321 150 331 q 129 311 132 311 q 115 301 126 308 q 100 292 103 294 l 100 289 q 99 285 100 288 q 99 282 99 283 q 97 274 99 279 q 94 267 94 269 q 94 247 94 263 q 92 225 94 231 l 92 200 q 95 186 92 199 q 100 167 99 174 z "},"7":{"ha":556,"x_min":-89,"x_max":617,"o":"m 165 -12 q 163 -3 164 -7 q 164 7 164 -1 q 164 25 164 15 q 165 44 164 35 q 167 57 165 53 q 167 78 167 63 q 168 97 168 93 q 169 115 169 103 q 168 129 168 126 q 174 147 171 133 q 178 174 176 160 q 183 202 181 189 q 189 222 186 215 q 193 242 190 228 q 197 260 196 256 q 203 282 199 267 q 212 314 207 297 q 221 344 217 331 q 226 364 225 358 q 209 363 222 364 q 181 360 196 361 q 153 360 167 360 q 135 360 140 360 q 129 361 132 360 q 125 363 126 363 q 122 364 124 363 q 115 367 119 363 l 113 369 l 113 379 l 113 386 q 114 399 114 390 q 117 408 114 407 q 126 422 119 413 q 140 440 132 431 q 154 458 147 450 q 164 469 161 467 q 171 474 164 471 q 181 478 178 478 l 293 494 l 296 497 q 300 500 300 501 q 303 508 300 501 q 311 523 307 515 q 319 537 315 531 q 325 543 324 543 q 333 556 328 547 q 342 572 338 564 q 351 588 347 581 q 356 597 354 594 q 365 610 358 600 q 380 632 372 621 q 394 653 388 643 q 404 667 401 664 l 374 663 q 269 629 319 644 q 181 601 226 615 q 107 576 136 586 q 90 569 104 575 q 78 564 85 567 q 75 557 76 564 q 75 547 74 550 q 74 526 75 546 q 75 496 74 506 q 75 451 75 485 q 76 374 75 418 q 78 278 76 329 q 80 183 79 228 q 81 106 81 139 q 82 61 82 72 q 81 44 82 58 q 81 24 81 31 q 78 10 81 21 q 72 -4 75 -1 q 72 9 72 -1 q 69 31 71 19 q 67 53 68 42 q 64 68 65 64 q 61 88 63 75 q 58 112 60 100 q 56 133 57 124 q 54 143 54 142 q 53 167 54 146 q 51 214 53 188 q 48 267 50 240 q 44 308 46 293 q 46 333 46 315 q 45 372 46 351 q 44 410 44 392 q 43 436 43 428 q 44 456 43 440 q 44 490 44 472 q 45 524 44 508 q 46 542 46 539 q 43 547 43 544 l 42 549 q 38 551 40 549 q 32 553 35 553 q 31 547 33 550 q 32 542 29 544 q 31 537 32 542 q 28 526 29 532 q 27 515 28 521 q 26 508 26 510 q 22 496 24 506 q 21 485 21 486 l 14 481 l 4 549 l -78 538 q -82 542 -81 539 q -85 549 -85 547 q -86 554 -86 550 q -86 561 -86 558 q -89 574 -86 565 q -84 587 -89 575 q -78 600 -79 599 q -67 617 -75 603 q -54 638 -58 631 q -42 646 -51 640 q -31 654 -33 651 q -24 658 -28 656 q -18 662 -21 661 q -12 665 -15 663 q 3 669 -7 665 q 15 675 13 674 q 17 676 15 676 q 22 678 19 676 l 24 678 q 35 674 26 678 q 47 671 44 671 l 56 675 q 59 676 57 675 q 64 676 61 676 l 68 676 q 81 678 72 676 q 99 683 89 681 q 117 688 108 685 q 131 690 126 690 q 147 696 135 692 q 174 704 160 700 q 199 712 188 708 q 215 718 211 715 q 251 729 224 719 q 311 750 279 739 q 371 771 343 761 q 406 782 399 781 q 426 790 413 785 q 453 799 440 794 q 478 807 467 803 q 492 811 489 811 q 501 813 496 813 q 517 814 513 813 q 528 817 519 814 q 535 818 532 818 q 544 811 538 818 q 554 801 550 804 l 554 799 q 555 796 554 797 q 556 793 556 794 l 556 785 q 557 781 556 782 q 552 767 557 778 q 544 750 547 757 q 540 738 544 747 q 533 725 535 728 q 518 703 531 721 q 492 667 506 686 q 466 631 478 647 q 450 608 454 614 q 443 594 449 604 q 431 574 438 585 q 417 553 424 563 q 408 540 411 543 q 403 533 407 539 q 396 521 400 528 q 389 508 392 514 q 385 500 386 501 l 397 496 q 412 493 401 494 q 434 491 422 492 q 456 490 446 490 q 468 488 465 489 q 485 487 474 489 q 500 485 497 485 q 511 484 504 485 q 526 481 518 483 q 540 478 533 479 q 546 478 546 478 q 561 471 549 475 q 579 464 574 467 q 591 460 582 465 q 603 456 600 456 q 608 451 604 456 l 611 449 q 613 440 611 444 q 613 436 613 438 q 614 433 614 435 q 615 431 614 432 l 615 418 q 617 411 615 414 q 611 394 617 403 q 602 383 608 390 q 590 368 596 376 q 580 353 585 360 q 575 346 575 347 q 564 339 572 343 q 551 333 556 335 q 546 332 549 332 l 539 332 q 535 331 536 332 q 532 331 535 331 l 528 331 q 517 335 526 331 q 506 342 508 340 q 488 348 500 344 q 474 354 475 351 q 449 358 467 356 q 426 363 432 361 q 417 359 424 361 q 410 357 411 357 q 415 317 411 346 q 424 258 419 289 q 433 198 429 226 q 439 160 438 169 q 439 149 439 157 q 440 130 439 140 q 441 110 440 119 q 442 96 442 100 q 438 85 439 93 q 436 74 438 76 l 424 110 l 372 361 l 367 364 q 357 365 364 365 q 350 367 354 367 l 338 367 q 328 364 335 367 q 321 360 322 361 q 314 346 318 357 q 306 322 310 335 q 298 297 301 308 q 294 281 294 285 q 288 262 292 278 q 282 242 285 246 q 281 220 283 239 q 278 190 279 201 q 274 172 275 185 q 275 157 272 160 q 272 133 272 150 q 274 111 272 117 q 274 101 274 110 q 276 81 275 92 q 278 62 278 71 q 279 51 279 53 l 279 42 q 275 31 279 31 q 269 12 272 25 q 268 -4 267 -1 q 252 -20 263 -7 q 238 -36 242 -33 q 225 -47 235 -39 q 211 -56 215 -54 l 204 -56 q 199 -56 201 -56 q 196 -57 197 -57 q 188 -58 193 -58 l 183 -58 q 178 -53 181 -60 q 174 -47 176 -47 q 171 -37 172 -43 q 168 -24 168 -26 l 165 -12 z "},"8":{"ha":568,"x_min":-28,"x_max":624,"o":"m 256 -46 l 249 -46 q 239 -48 246 -46 q 223 -53 232 -50 q 206 -58 214 -56 q 197 -62 199 -61 q 175 -66 189 -62 q 160 -69 161 -69 l 122 -69 l 85 -69 q 76 -66 82 -69 q 68 -62 71 -62 q 62 -48 68 -60 q 53 -32 56 -36 l 53 -25 l 53 -15 q 58 5 56 -10 q 61 22 60 19 q 67 39 61 25 q 78 60 74 53 q 81 67 78 63 q 85 75 85 72 q 91 87 86 79 q 101 103 96 94 q 110 117 106 111 q 115 125 114 124 q 128 149 118 132 q 151 186 139 167 q 175 223 164 206 q 190 247 186 240 q 179 258 188 250 q 165 268 171 267 q 159 274 164 269 q 148 285 154 279 q 136 294 142 290 q 128 300 131 299 q 117 310 124 304 q 103 322 110 315 q 90 332 96 328 q 85 338 85 336 q 65 355 78 342 q 37 383 51 368 q 10 412 22 399 q -7 429 -3 425 q -15 437 -10 429 q -22 450 -19 444 q -25 461 -22 453 q -28 472 -28 469 l -28 497 l -28 517 q -22 531 -28 518 q -14 547 -15 543 q -2 562 -11 550 q 10 579 7 574 q 17 585 11 579 q 24 592 22 592 q 40 605 29 596 q 53 617 50 614 q 75 626 58 618 q 99 638 92 635 q 110 640 101 638 q 122 643 119 643 q 138 649 126 646 q 153 654 150 651 q 180 657 160 654 q 206 660 200 660 l 247 660 l 286 660 q 308 657 292 660 q 331 654 325 654 q 353 646 335 651 q 378 638 371 640 q 392 630 381 635 q 406 622 403 625 q 419 614 410 619 q 431 606 428 608 q 440 596 432 603 q 456 581 447 589 q 471 565 464 572 q 481 554 478 557 q 489 545 483 554 q 497 531 494 536 q 501 524 499 531 q 506 517 503 518 q 508 509 506 515 q 512 495 510 503 q 516 481 514 488 q 518 472 518 475 q 524 456 521 468 q 528 442 528 443 l 528 392 l 528 338 q 524 324 528 335 q 518 306 521 314 q 515 296 518 304 q 511 285 511 288 q 508 276 511 282 q 501 262 504 269 q 494 248 497 254 q 490 242 492 242 l 490 235 l 490 231 l 497 225 q 507 217 499 222 q 518 210 515 213 q 538 197 525 206 q 565 179 551 188 q 590 164 579 171 q 603 156 600 157 q 610 153 606 154 q 618 150 615 150 q 621 142 618 147 q 624 135 624 138 l 624 125 l 624 118 q 617 103 624 114 q 610 88 611 92 q 603 81 608 86 q 591 70 597 76 q 579 58 585 64 q 572 50 574 51 q 558 42 569 47 q 543 38 546 38 q 519 36 538 35 q 497 38 501 38 q 488 34 496 36 q 469 30 479 32 q 450 26 460 28 q 436 22 440 24 q 424 17 433 21 q 404 11 415 14 q 383 5 393 8 q 368 0 372 1 q 349 -8 363 -3 q 331 -15 335 -12 q 329 -27 331 -19 q 327 -43 328 -35 q 325 -59 326 -51 q 324 -69 324 -67 q 321 -87 324 -74 q 318 -107 318 -101 l 306 -100 l 306 -32 l 293 -32 q 292 -85 293 -47 q 290 -164 290 -122 q 288 -243 289 -206 q 286 -294 286 -281 q 285 -307 286 -297 q 283 -327 285 -317 q 281 -348 282 -337 q 281 -362 281 -358 q 276 -374 278 -365 q 272 -383 274 -382 l 272 -182 q 271 -156 272 -175 q 269 -114 269 -136 q 267 -72 268 -92 q 265 -46 265 -53 l 256 -46 m 256 200 q 251 199 253 200 q 249 193 249 196 q 244 185 249 190 q 235 172 240 179 q 224 158 229 164 q 218 150 219 151 q 207 130 215 144 q 197 113 199 115 q 183 85 192 103 q 174 67 174 68 q 173 60 174 64 q 172 53 172 57 l 172 43 l 206 43 q 223 47 208 43 q 243 50 238 50 q 256 56 244 51 q 282 65 268 60 q 310 74 296 69 q 331 81 324 78 q 346 86 336 82 q 365 94 356 90 q 383 101 375 99 q 393 104 390 104 l 396 107 q 399 113 399 110 q 386 120 396 114 q 366 134 376 126 q 345 147 356 142 q 331 156 335 153 q 319 164 328 158 q 301 175 311 169 q 283 185 292 181 q 272 193 275 190 q 256 200 265 200 m 99 531 q 101 524 100 526 q 104 519 101 522 q 106 517 106 518 q 115 506 107 514 q 133 488 124 497 q 152 469 143 479 q 165 456 161 460 q 188 439 171 454 q 211 418 204 424 q 228 407 215 415 q 255 388 240 399 q 283 368 269 378 q 303 354 296 358 q 313 345 306 351 q 329 333 321 339 q 345 322 338 326 q 356 317 353 317 q 367 307 360 313 q 381 297 374 301 q 393 288 388 292 q 399 285 399 285 l 403 285 l 406 285 q 412 296 408 288 q 415 306 415 304 l 415 318 l 415 329 q 415 340 415 332 q 413 356 414 347 q 409 371 411 364 q 406 381 407 378 q 402 398 406 386 q 399 413 399 410 q 392 426 399 415 q 385 442 386 436 q 376 455 382 446 q 368 467 371 464 q 354 480 365 468 q 340 493 343 492 q 329 501 338 496 q 318 510 321 507 q 301 517 313 513 q 286 525 289 522 q 276 528 285 525 q 265 531 268 531 q 262 517 265 529 q 256 504 258 506 q 252 496 256 501 q 249 488 249 490 q 246 509 249 492 q 243 531 243 526 q 238 536 240 533 q 235 542 236 539 q 231 524 235 536 q 228 510 228 513 q 223 500 225 507 q 218 493 221 493 q 213 494 215 490 l 210 497 l 210 542 l 106 542 q 101 538 103 540 q 99 531 99 532 z "},"9":{"ha":474,"x_min":-36,"x_max":482,"o":"m 315 311 q 306 302 313 308 q 290 289 299 296 q 274 276 282 282 q 264 267 267 269 q 249 256 261 264 q 235 244 238 247 q 221 234 229 239 q 210 229 213 229 q 181 214 203 225 q 151 199 158 203 l 144 175 q 142 148 143 167 q 140 108 140 129 q 138 67 139 86 q 135 42 136 49 q 133 29 135 39 q 131 8 132 19 q 129 -16 131 -4 q 128 -33 128 -28 q 124 -68 126 -46 q 119 -96 122 -90 q 117 -107 119 -99 q 114 -118 115 -115 l 114 -31 l 114 54 q 115 76 114 58 q 117 112 115 93 q 119 148 118 131 q 119 169 119 165 l 119 182 l 94 182 l 94 117 l 78 117 l 78 182 q 63 187 76 185 q 44 192 50 189 q 31 197 42 192 q 15 207 21 201 q 9 210 13 208 q 3 215 6 213 q -6 219 -1 218 q -14 231 -8 222 q -22 244 -19 239 q -26 251 -24 244 q -31 257 -28 257 q -33 270 -31 261 q -36 282 -36 279 l -36 332 l -36 379 q -30 408 -36 386 q -22 438 -24 431 q -16 452 -21 442 q -5 474 -11 463 q 7 497 1 486 q 15 513 13 508 q 27 528 18 518 q 39 544 36 539 q 52 558 43 549 q 70 577 61 568 q 87 594 79 586 q 97 604 94 601 q 105 610 99 606 q 119 619 111 614 q 133 628 126 624 q 144 636 140 633 q 164 646 147 638 q 189 657 181 654 q 199 660 190 657 q 210 663 207 663 q 231 669 217 665 q 247 674 244 674 l 282 674 l 315 674 q 331 669 324 672 q 344 665 338 667 q 353 663 350 664 q 369 660 356 663 q 385 657 382 657 l 390 657 l 397 657 q 413 667 400 657 q 428 679 426 676 q 436 684 431 682 q 444 686 442 686 l 450 686 q 455 687 453 686 q 460 688 457 688 q 463 687 461 688 q 468 686 465 686 l 472 686 q 482 679 482 686 l 482 663 l 482 649 q 478 632 482 646 q 472 611 475 618 q 469 597 472 608 q 463 571 467 585 q 455 544 458 557 q 451 529 451 532 q 448 514 451 525 q 444 499 444 503 l 444 332 l 444 169 q 446 157 444 167 q 448 136 447 147 q 450 113 449 125 q 451 94 451 101 q 454 72 451 90 q 459 34 457 54 q 463 -4 461 14 q 465 -26 465 -22 l 465 -46 l 465 -64 q 463 -71 464 -67 q 460 -81 460 -79 q 451 -92 457 -83 q 444 -101 444 -100 l 428 -118 q 418 -124 426 -118 q 407 -133 410 -131 q 397 -136 406 -133 q 390 -139 393 -137 l 378 -139 l 369 -139 l 367 -136 q 360 -133 364 -133 q 358 -130 360 -132 q 356 -125 357 -128 q 353 -118 354 -122 q 351 -103 353 -117 q 347 -72 349 -89 q 342 -39 344 -56 q 339 -12 339 -22 q 338 1 339 -8 q 335 22 336 11 q 333 41 335 32 q 332 54 332 50 q 329 75 331 61 q 327 103 328 89 q 325 130 326 118 q 322 144 324 142 q 321 178 322 154 q 319 228 319 201 q 317 278 318 254 q 315 311 315 301 m 76 379 q 79 365 76 376 q 82 349 82 353 q 90 332 88 340 q 99 326 93 332 q 107 319 104 319 q 113 315 107 317 q 119 311 119 313 q 133 308 125 311 q 144 304 142 304 l 151 304 l 157 304 q 174 308 163 304 q 189 311 186 311 q 205 318 193 313 q 219 325 217 324 q 231 337 222 328 q 249 357 239 346 q 270 378 260 368 q 285 394 281 389 q 293 403 288 394 q 301 417 299 413 q 308 430 303 421 q 317 449 313 439 q 326 465 322 458 q 332 475 331 472 l 332 486 l 332 492 q 319 499 329 494 q 310 507 310 504 q 305 514 307 507 q 301 524 303 521 l 301 529 q 293 537 299 532 q 285 544 288 542 q 274 547 282 544 q 264 550 265 550 q 260 528 264 546 q 257 507 257 511 q 252 485 254 500 q 247 469 250 469 q 241 446 247 464 q 235 424 235 428 l 235 442 l 235 461 q 235 476 235 464 q 238 503 236 489 q 240 529 239 517 q 240 544 240 542 l 240 550 l 219 550 q 215 528 217 546 q 210 507 213 511 q 208 503 210 506 q 206 499 207 501 q 203 492 204 494 q 196 492 201 489 l 190 494 l 190 554 l 181 554 q 172 553 176 554 q 165 550 168 551 q 149 544 161 550 q 135 536 138 538 q 117 519 132 533 q 97 499 101 506 q 93 493 94 496 q 92 489 92 492 q 90 486 92 488 q 87 472 89 481 q 82 461 85 463 q 79 439 82 456 q 76 417 76 422 l 76 399 l 76 379 z "}," ":{"ha":268,"x_min":0,"x_max":0,"o":""},"#":{"ha":806,"x_min":-58,"x_max":867,"o":"m 525 -146 l 525 -12 q 526 19 525 -7 q 530 74 528 44 q 533 129 532 104 q 535 161 535 154 l 535 188 q 511 190 528 188 q 488 192 494 192 q 469 189 478 190 q 455 185 463 188 q 443 182 447 183 q 422 178 436 182 q 406 175 408 175 q 399 172 404 175 q 392 169 396 171 q 388 158 392 167 q 385 144 385 149 q 381 128 383 142 q 376 100 379 115 q 372 72 374 85 q 368 57 369 58 q 362 40 368 51 q 354 25 356 28 q 348 19 353 25 q 337 8 343 14 q 325 -4 331 1 q 317 -12 319 -10 q 310 -15 313 -14 q 300 -18 301 -18 q 289 -24 297 -21 q 279 -26 281 -26 l 275 -26 l 272 -26 q 263 -19 269 -25 q 256 -12 256 -14 l 256 -1 l 256 11 q 258 31 256 15 q 263 64 260 46 q 268 97 265 82 q 272 117 271 113 l 272 125 l 272 138 q 257 135 268 138 q 242 132 246 132 q 231 128 239 131 q 215 124 224 126 q 197 119 206 121 q 188 117 189 117 l 163 117 l 135 117 l 129 124 l 129 129 l 129 138 q 132 151 129 140 q 135 161 133 157 q 145 172 138 164 q 161 188 153 179 q 177 203 169 196 q 188 213 185 210 q 197 215 192 214 q 206 218 201 217 q 213 219 210 219 q 227 225 217 221 q 249 233 238 229 q 272 240 261 238 q 288 244 283 243 l 293 257 q 294 267 293 258 q 297 285 296 275 q 299 306 297 296 q 300 319 300 315 l 300 338 q 290 338 297 338 q 274 340 282 339 q 258 341 265 340 q 250 342 251 342 q 236 340 247 342 q 210 335 225 338 q 182 329 196 332 q 160 325 168 326 q 142 322 157 325 q 122 319 128 319 q 111 317 117 318 q 100 314 106 315 q 88 311 94 313 l 88 42 l 75 4 l 67 25 l 67 294 l 54 304 q 50 301 51 303 q 47 294 47 299 q 41 274 44 292 q 38 250 38 256 q 34 234 38 246 q 31 219 31 222 q 28 213 29 215 q 22 207 25 207 q 22 219 22 211 q 20 237 21 228 q 18 254 19 246 q 17 267 17 263 q 15 274 17 269 q 13 282 14 278 q 10 292 11 288 l -53 292 q -56 296 -54 293 q -58 304 -58 301 l -58 307 l -58 311 q -56 322 -58 313 q -53 336 -53 331 q -47 343 -51 336 l -44 349 q -25 369 -39 354 q -7 386 -11 383 q 8 394 -4 388 q 22 400 19 400 q 58 408 32 403 q 113 419 83 414 q 167 430 142 425 q 204 438 193 435 q 219 441 207 439 q 246 446 232 443 q 272 451 260 449 q 288 454 285 453 q 300 457 289 454 q 310 461 304 458 l 310 674 q 311 679 310 676 q 317 686 314 686 l 363 732 q 377 740 365 735 q 392 749 389 746 q 399 744 396 747 l 406 738 q 411 735 408 738 q 413 732 413 733 q 419 721 415 729 q 422 711 422 713 q 427 678 425 701 q 429 649 429 656 q 428 615 429 639 q 427 563 428 590 q 426 511 426 536 q 425 475 425 486 l 450 475 q 465 476 454 475 q 489 479 476 478 q 512 483 501 481 q 525 486 522 485 q 526 499 525 489 q 527 522 526 510 q 528 546 528 535 q 529 561 529 557 q 528 580 529 568 q 527 603 528 592 q 526 625 526 615 q 525 636 525 635 q 522 653 525 638 q 518 674 518 668 l 518 688 l 518 700 q 526 716 521 706 q 535 732 532 726 q 549 747 538 735 q 567 763 561 758 q 576 768 571 765 q 583 773 579 771 q 588 775 586 775 q 599 782 590 778 q 610 786 607 786 q 617 782 613 785 q 622 778 619 779 q 625 775 624 776 l 631 769 q 636 755 633 767 q 642 738 639 743 q 642 724 642 735 q 644 701 643 714 q 647 678 646 689 q 647 663 647 667 q 649 630 647 653 q 651 581 650 607 q 653 531 651 554 q 654 499 654 508 l 743 499 q 749 497 746 499 q 754 492 751 494 l 754 486 l 754 475 q 746 462 751 474 q 738 449 740 450 q 718 426 732 440 q 700 411 704 413 q 678 397 694 406 q 654 386 661 388 l 654 325 l 850 325 q 858 320 853 325 q 867 311 864 315 l 867 300 l 867 288 q 863 281 865 283 q 858 276 860 278 q 856 274 857 274 q 849 262 856 271 q 842 250 843 253 l 839 247 q 835 244 836 244 q 818 231 831 239 q 804 219 806 222 q 792 216 801 219 q 781 213 783 213 q 756 211 774 213 q 719 209 739 210 q 681 208 699 208 q 654 207 663 207 q 653 191 654 203 q 651 165 651 179 q 649 140 650 151 q 647 124 647 128 q 644 85 646 111 q 642 26 643 60 q 639 -42 640 -7 q 636 -111 638 -78 q 633 -170 635 -144 q 631 -208 632 -196 q 624 -223 631 -211 q 617 -237 618 -235 q 610 -245 615 -240 q 598 -256 604 -250 q 586 -268 592 -262 q 579 -275 581 -274 q 567 -282 579 -276 q 550 -289 554 -287 l 547 -289 l 542 -289 q 535 -286 539 -287 q 525 -283 526 -283 l 525 -146 m 422 357 q 415 349 418 356 q 413 342 414 344 q 412 333 413 340 q 410 318 411 326 q 408 301 410 310 q 406 288 407 292 l 406 279 l 413 282 q 438 287 422 283 q 471 293 454 290 q 501 299 488 296 q 518 304 515 303 q 529 307 524 304 q 535 311 532 308 l 535 374 l 504 374 q 490 371 500 372 q 467 368 479 369 q 444 365 456 367 q 429 363 433 364 l 422 357 z "},"$":{"ha":657,"x_min":-6,"x_max":671,"o":"m 415 6 q 410 -16 413 1 q 407 -40 408 -33 q 403 -55 407 -43 q 400 -69 400 -67 l 396 -71 l 393 -71 q 390 -69 392 -71 q 386 -60 388 -65 q 383 -46 383 -49 q 381 -24 383 -42 q 378 -3 378 -7 l 369 -3 l 363 -3 q 340 -3 353 -3 q 314 -6 326 -4 q 283 -8 299 -7 l 283 -119 q 269 -117 279 -119 q 257 -115 258 -115 q 250 -108 254 -112 q 246 -100 246 -103 l 246 -3 q 238 5 246 0 q 228 13 231 10 q 216 19 225 14 q 197 28 207 24 q 176 38 186 33 q 165 43 167 43 q 154 53 160 47 q 145 60 150 57 q 138 67 140 64 q 115 84 131 74 q 100 97 100 94 q 92 103 97 99 q 80 115 86 108 q 69 126 74 121 q 63 135 64 132 q 56 141 60 136 q 46 152 51 146 q 36 164 40 158 q 32 172 32 169 q 17 193 29 175 q 0 217 6 211 q -1 219 -1 218 q -2 222 -1 221 q -3 224 -3 222 q -6 231 -4 226 l -6 238 l -6 247 q 1 263 -4 253 q 8 275 7 272 q 15 283 10 276 q 27 295 21 289 q 38 306 33 301 q 46 313 43 311 q 60 321 49 315 q 75 329 71 326 l 82 329 l 83 329 q 92 326 86 329 q 100 322 97 322 l 103 319 q 107 313 107 315 q 113 303 107 311 q 127 284 119 294 q 142 265 135 274 q 150 254 149 256 q 163 240 153 250 q 186 217 174 229 q 210 194 199 206 q 228 179 222 183 l 240 172 q 245 186 243 175 q 250 200 247 197 q 251 227 250 204 q 255 280 253 250 q 260 340 257 310 q 265 388 263 371 l 265 393 l 265 397 q 258 401 263 397 q 250 404 253 404 q 228 408 246 406 q 203 413 210 410 l 196 413 l 188 413 q 185 408 188 410 q 182 404 182 406 q 181 384 182 397 q 178 355 179 371 q 176 325 178 339 q 175 306 175 311 q 170 292 172 304 q 165 275 168 279 q 164 295 165 281 q 162 326 163 310 q 160 356 161 342 q 158 375 158 369 q 156 397 158 379 q 150 418 153 414 l 144 418 l 138 418 q 129 415 135 418 q 121 413 124 413 l 121 418 q 118 423 121 421 q 113 425 115 425 q 103 431 113 428 q 90 435 93 435 q 83 438 86 436 q 78 440 81 439 q 75 442 76 442 q 63 450 71 446 q 53 456 57 453 q 45 472 50 461 q 38 488 40 482 l 38 517 l 38 547 q 41 561 39 550 q 45 587 43 572 q 49 615 47 601 q 53 638 51 629 q 56 648 54 639 q 61 668 58 657 q 66 690 64 679 q 69 704 68 700 q 73 725 69 711 q 81 753 76 739 q 88 779 85 768 q 90 793 90 790 q 99 819 93 801 q 107 842 104 836 q 113 855 108 846 q 123 873 118 864 q 132 890 128 882 q 138 900 136 897 q 145 909 139 901 q 160 925 151 917 q 176 942 168 933 q 188 954 183 950 q 202 960 190 954 q 219 968 214 967 q 235 972 224 968 q 250 975 247 975 q 261 971 256 972 q 278 968 272 968 q 294 960 286 965 q 306 952 297 957 q 323 942 314 947 q 340 931 332 936 q 350 922 347 925 l 350 981 q 358 988 350 983 q 369 992 367 992 q 381 988 374 992 q 388 981 388 983 l 388 879 l 465 804 q 478 799 469 801 q 490 793 488 796 l 496 788 q 504 772 499 782 q 513 756 510 761 l 513 754 l 513 750 q 509 739 513 747 q 503 729 506 731 q 501 724 503 726 q 499 718 500 721 l 496 713 q 488 704 493 710 q 477 692 483 699 q 465 681 471 686 q 458 675 460 676 q 444 666 457 672 q 428 660 432 660 l 415 660 l 407 660 l 363 697 l 358 697 l 353 697 q 349 686 353 694 q 346 675 346 678 q 344 661 346 672 q 339 635 342 650 q 334 607 336 621 q 332 585 332 593 q 328 558 332 578 q 325 531 325 539 l 325 529 l 325 525 q 349 519 332 524 q 384 510 365 515 q 420 501 403 506 q 444 493 438 496 q 468 486 451 492 q 490 479 485 481 q 502 473 492 478 q 524 462 513 468 q 548 450 536 456 q 565 442 560 444 q 576 435 568 442 q 588 425 585 428 q 601 413 592 422 q 619 394 610 404 q 636 376 629 385 q 646 367 643 368 q 654 354 649 367 q 663 338 660 342 q 667 324 665 332 q 669 313 669 315 l 669 297 q 670 283 669 290 q 671 272 671 276 q 670 261 671 268 q 669 247 669 254 l 669 231 q 667 221 668 225 q 663 210 664 211 q 654 194 660 206 q 646 179 649 183 q 639 165 644 174 q 632 156 633 156 q 617 141 628 151 q 596 119 607 131 q 576 99 585 108 q 565 88 567 89 q 546 76 563 88 q 519 60 529 65 q 510 53 518 58 q 493 43 503 49 q 475 33 483 38 q 465 29 467 29 l 458 22 q 458 6 458 18 q 456 -20 457 -7 q 453 -46 454 -33 q 453 -62 453 -58 q 447 -87 450 -72 q 442 -116 444 -101 q 439 -141 440 -131 q 438 -153 438 -151 l 428 -158 l 428 6 l 415 6 m 294 142 q 297 138 296 139 q 303 135 300 135 q 309 130 303 132 q 315 125 315 128 q 332 122 319 125 q 346 118 344 118 q 362 118 350 118 q 387 117 374 118 q 412 117 400 117 q 428 117 424 117 l 428 350 l 408 350 l 408 313 q 404 321 408 315 q 400 329 400 326 q 397 335 399 329 q 395 347 396 340 q 393 359 394 353 q 390 367 392 365 q 385 370 390 368 q 378 375 381 372 q 366 378 375 375 q 353 381 357 381 q 338 385 347 383 q 325 388 328 388 l 315 388 l 308 388 q 307 375 308 385 q 305 355 306 365 q 303 335 304 344 q 303 322 303 325 q 300 299 301 314 q 297 270 299 285 q 295 244 296 256 q 294 231 294 233 l 294 188 l 294 142 m 458 338 q 458 309 458 329 q 456 266 457 289 q 453 222 454 243 q 453 193 453 201 q 450 182 451 190 q 447 164 449 174 q 445 146 446 154 q 444 135 444 138 l 444 122 q 454 124 446 122 q 465 125 463 125 q 482 133 468 128 q 503 142 496 139 q 513 145 507 143 q 519 150 519 147 q 528 158 522 151 q 541 170 535 164 q 552 181 547 176 q 557 188 557 186 l 557 193 q 558 199 557 196 q 558 204 558 201 q 558 214 558 206 q 557 225 557 222 q 554 233 556 228 q 552 240 553 236 q 550 247 551 244 q 547 255 550 250 q 540 263 543 260 q 534 274 540 265 q 528 285 528 282 q 516 296 525 288 q 503 306 507 304 q 490 317 500 308 q 475 329 481 326 q 458 338 467 332 m 158 563 q 162 558 158 560 q 165 554 165 556 q 174 551 168 554 q 182 547 179 547 q 196 543 183 544 q 213 542 208 542 q 235 535 218 539 q 257 531 251 531 l 269 531 l 278 531 q 284 567 279 542 q 294 622 289 593 q 304 676 300 651 q 308 713 308 701 l 308 731 l 308 750 q 296 763 306 754 q 276 783 286 772 q 255 803 265 793 q 240 817 244 813 q 226 830 238 821 q 213 842 215 839 l 208 842 l 203 842 q 199 822 201 835 q 192 794 196 808 q 185 767 189 779 q 182 750 182 754 q 178 735 181 746 q 174 715 176 725 q 169 694 171 704 q 165 681 167 685 q 164 671 165 678 q 162 657 163 664 q 160 644 161 650 q 158 638 158 639 l 158 600 l 158 563 z "},"%":{"ha":836,"x_min":17,"x_max":829,"o":"m 593 -229 q 597 -206 594 -225 q 603 -165 600 -186 q 608 -124 606 -143 q 610 -100 610 -104 q 609 -78 610 -94 q 608 -42 608 -61 q 606 -5 607 -22 q 606 19 606 13 l 593 19 q 592 3 593 15 q 590 -22 592 -8 q 588 -47 589 -35 q 588 -62 588 -58 q 583 -77 585 -65 q 579 -93 581 -89 q 576 -101 579 -96 q 572 -110 572 -107 q 567 -99 569 -107 q 563 -87 565 -90 q 561 -64 563 -81 q 559 -30 560 -47 q 557 4 558 -12 q 556 28 556 21 q 534 37 551 28 q 513 50 517 46 q 499 60 507 50 q 488 71 490 69 q 481 85 488 74 q 475 103 475 97 q 469 117 472 106 q 467 132 467 129 l 467 150 l 467 169 q 469 190 467 171 q 475 215 472 208 q 478 230 475 218 q 481 244 481 242 q 483 251 482 247 q 486 257 485 254 q 488 265 488 261 q 494 278 489 269 q 503 297 499 288 q 511 316 507 307 q 518 328 515 325 q 526 339 521 331 q 535 350 532 347 l 572 388 q 581 394 576 390 q 587 399 583 397 q 593 403 590 401 q 601 406 596 403 q 610 408 607 408 q 616 411 613 410 q 622 415 619 413 q 631 419 626 418 l 663 419 l 692 419 q 708 415 696 419 q 722 408 719 411 q 742 399 725 407 q 767 388 758 390 q 780 379 771 385 q 792 371 789 374 q 799 364 793 369 q 804 357 804 358 q 817 332 808 349 q 829 313 826 315 l 829 275 l 829 238 q 821 217 826 235 q 813 190 815 200 q 805 178 810 188 q 797 163 800 168 q 790 151 797 160 q 781 140 783 143 q 771 123 779 135 q 760 108 763 111 q 751 101 757 107 q 743 94 746 96 q 735 87 740 92 q 724 77 731 82 q 713 69 718 72 q 706 65 707 65 q 696 60 703 64 q 680 50 689 56 q 663 40 671 44 q 654 33 656 35 l 647 28 q 647 1 647 19 q 644 -37 646 -17 q 642 -75 643 -57 q 642 -100 642 -93 q 638 -117 640 -104 q 633 -147 636 -131 q 628 -180 631 -164 q 625 -206 626 -196 q 620 -225 622 -211 q 617 -243 618 -239 q 613 -255 617 -246 q 610 -267 610 -264 q 606 -274 610 -268 q 600 -281 603 -279 q 597 -271 600 -279 q 593 -260 593 -262 l 593 -243 l 593 -229 m 160 -35 q 158 -19 160 -31 q 156 -6 156 -8 q 156 1 156 -3 q 157 8 156 4 l 160 19 q 161 28 160 21 q 165 46 163 36 q 169 65 167 56 q 172 78 171 74 q 180 97 175 83 q 190 126 185 111 q 199 153 194 140 q 204 169 203 165 q 212 189 206 174 q 226 222 218 204 q 240 256 233 239 q 250 282 247 274 q 256 297 251 286 q 265 317 260 307 q 274 337 269 328 q 279 350 278 346 q 299 391 285 363 q 328 451 313 419 q 357 509 343 482 q 375 544 371 536 q 392 574 379 551 q 419 622 404 596 q 447 672 433 647 q 467 708 460 697 q 474 723 468 714 q 481 733 479 732 l 504 757 q 514 764 506 758 q 525 771 522 769 q 536 774 528 771 q 550 778 544 778 l 554 778 l 556 778 q 564 770 558 775 q 572 763 569 765 l 572 757 l 572 746 q 565 731 569 738 q 560 718 563 724 q 556 708 557 713 q 553 701 554 704 q 551 697 551 700 q 550 694 551 696 q 540 676 547 690 q 524 645 532 661 q 508 615 515 629 q 497 596 500 600 q 470 544 489 581 q 431 468 451 508 q 393 392 411 428 q 368 344 375 357 q 358 319 367 339 q 347 290 350 300 q 340 271 344 283 q 331 247 336 258 q 321 226 325 235 q 317 215 317 217 q 311 199 315 211 q 302 172 307 186 q 293 144 297 157 q 288 125 289 131 q 282 107 285 118 q 279 94 279 96 q 282 88 281 92 q 288 78 283 81 l 288 71 l 288 65 q 283 53 285 63 q 279 40 281 44 q 278 38 279 39 q 275 33 276 36 l 272 28 q 256 7 268 21 q 242 -10 243 -7 q 227 -24 239 -15 q 210 -35 215 -32 q 200 -39 206 -37 q 188 -42 189 -42 l 175 -42 l 167 -42 l 160 -35 m 585 225 q 586 206 585 218 q 588 190 588 193 q 592 176 588 188 q 600 163 597 165 q 615 153 604 160 q 631 146 626 146 l 656 146 l 685 146 q 692 149 688 146 q 700 153 697 153 q 703 161 700 156 q 706 169 706 167 q 713 190 708 176 q 717 207 717 204 q 713 221 717 208 q 706 238 708 233 q 703 245 706 240 q 700 253 700 250 q 688 264 697 256 q 679 275 679 272 q 653 288 671 281 q 631 296 636 296 l 618 296 l 600 296 l 593 290 q 590 274 592 285 q 588 258 588 264 q 586 244 586 250 q 585 233 585 239 q 585 225 585 228 m 17 494 q 19 501 17 494 q 23 518 21 508 q 28 538 25 528 q 31 553 31 547 q 38 574 31 557 q 47 596 44 592 q 51 604 47 599 q 54 613 54 610 q 60 623 56 615 q 70 638 65 631 q 79 651 75 646 q 85 657 83 657 q 90 664 86 658 q 101 676 94 669 q 113 688 107 682 q 122 694 118 693 q 133 702 125 696 q 143 708 142 708 q 155 714 146 711 q 167 719 164 717 l 172 719 l 181 719 q 190 715 182 718 q 208 708 199 711 q 228 700 218 704 q 242 694 238 696 q 244 693 243 694 q 249 690 247 690 q 256 688 251 689 q 275 669 261 683 q 293 650 289 656 q 296 643 294 647 q 299 638 297 640 q 300 633 300 635 q 306 624 303 632 q 310 613 310 615 l 310 575 l 310 538 q 307 525 308 531 q 303 515 306 519 q 300 507 301 510 q 297 495 300 504 q 293 483 293 486 q 283 462 292 479 q 272 440 275 444 q 264 427 269 435 q 256 419 258 419 q 247 408 253 415 q 233 394 240 401 q 219 380 226 386 q 210 371 213 374 q 201 367 208 371 q 187 358 194 363 q 173 349 179 353 q 167 344 167 344 q 164 337 165 343 q 162 324 163 331 q 160 310 161 317 q 160 303 160 304 q 155 289 157 300 q 150 275 153 278 q 147 283 150 278 q 143 290 143 288 q 140 308 142 293 q 135 328 138 322 q 134 313 135 324 q 133 290 133 301 q 131 267 132 278 q 129 253 129 257 q 126 239 129 247 q 122 228 122 231 l 106 328 l 103 331 q 97 333 100 333 q 88 338 93 335 q 80 341 83 340 q 75 344 76 342 q 64 349 72 344 q 54 357 56 354 q 42 369 51 358 q 31 382 33 379 l 22 394 q 19 408 22 399 q 17 419 17 417 l 17 457 l 17 494 m 129 515 q 133 497 131 508 q 135 483 135 486 q 149 470 138 482 q 167 457 161 458 l 172 453 q 178 454 176 453 l 181 457 q 183 458 182 457 q 186 460 185 460 q 188 463 188 460 q 192 479 190 465 q 197 500 194 493 l 197 507 l 197 515 q 192 531 194 519 q 188 544 190 542 q 183 555 188 546 q 172 569 178 564 l 167 575 q 158 580 164 578 q 150 582 153 582 l 147 582 l 143 582 q 138 580 142 582 q 135 575 135 578 q 133 555 135 572 q 129 532 131 538 l 129 521 l 129 515 z "},"&":{"ha":636,"x_min":-3,"x_max":928,"o":"m 356 -194 q 359 -174 357 -190 q 363 -140 361 -158 q 365 -107 364 -122 q 365 -89 365 -92 q 365 -69 365 -83 q 363 -40 364 -56 q 362 -12 363 -25 q 361 6 361 1 q 353 8 360 6 q 343 10 346 10 q 338 6 340 10 q 335 3 336 3 q 333 -2 335 0 q 331 -7 332 -4 q 328 -14 329 -11 l 324 -14 l 318 -14 q 315 -6 318 -11 q 311 3 311 0 q 291 4 306 3 q 260 6 276 6 q 227 8 243 7 q 206 10 211 10 q 193 13 203 10 q 178 18 183 15 q 158 24 174 18 q 140 31 143 31 q 119 44 133 35 q 103 56 106 53 q 95 62 100 57 q 85 73 90 67 q 74 85 79 79 q 65 93 68 90 q 60 98 63 93 q 56 106 58 103 q 52 119 56 110 q 49 131 49 128 l 49 143 l 49 160 q 52 174 49 161 q 56 190 56 186 q 58 197 57 193 q 65 206 61 204 q 70 217 65 208 q 78 228 75 225 q 92 244 83 233 q 103 256 100 256 q 112 267 106 260 q 125 281 118 274 q 138 294 132 288 q 147 303 144 300 q 139 310 144 306 q 131 318 133 315 q 119 326 128 319 q 101 339 111 332 q 83 352 92 346 q 72 361 74 358 l 11 422 q 8 429 11 424 q 3 436 6 435 q 0 450 3 439 q -3 460 -1 456 l -3 503 l -3 543 q 0 558 -3 546 q 3 572 3 569 q 10 589 6 574 q 18 610 15 604 q 22 617 18 611 q 28 624 25 624 q 39 644 31 629 q 49 661 47 660 q 65 687 54 669 q 78 710 75 704 q 95 728 83 714 q 110 747 107 742 l 168 806 q 181 815 171 806 q 199 828 192 824 q 210 837 201 831 q 222 843 219 843 q 251 858 229 847 q 281 874 274 869 q 292 877 283 874 q 306 881 300 881 q 322 885 308 882 q 335 886 328 886 q 350 888 336 886 q 372 890 364 890 q 381 890 375 890 q 394 888 388 889 q 410 886 401 886 q 422 885 411 886 q 440 881 433 883 q 451 877 443 881 q 461 874 460 874 q 469 869 464 872 q 478 865 475 865 q 486 860 481 864 q 498 851 492 856 q 509 842 504 846 q 515 836 514 838 q 526 822 518 835 q 536 806 535 810 q 544 791 539 803 q 553 774 550 779 l 556 765 q 558 759 557 763 q 560 753 560 756 q 561 746 560 750 q 564 736 563 742 q 568 724 565 731 l 568 685 l 568 647 q 564 632 565 639 q 561 619 563 625 q 560 610 560 613 q 556 598 560 607 q 553 586 553 589 q 542 565 550 582 q 531 543 533 547 q 523 533 528 540 q 513 519 518 526 q 504 505 508 511 q 499 497 500 499 q 483 480 496 493 q 455 451 471 467 q 424 420 439 435 q 403 399 410 406 q 394 393 400 399 q 379 381 388 388 q 364 369 371 375 q 356 361 357 363 l 349 356 q 360 348 351 353 q 372 340 369 343 q 396 326 378 336 q 436 303 414 315 q 478 281 458 292 q 506 265 497 269 q 522 257 510 263 q 536 249 535 251 l 540 249 l 543 249 q 554 261 547 253 q 569 278 561 269 q 585 293 578 286 q 597 303 593 300 q 611 310 599 306 q 628 318 624 315 l 635 318 l 643 318 q 651 310 646 315 q 660 303 657 306 l 660 297 l 660 286 q 651 265 657 282 q 643 243 646 247 q 640 238 642 242 q 635 228 638 233 q 630 217 632 222 q 628 211 628 213 l 628 206 l 628 197 l 635 190 q 649 180 638 188 q 672 163 660 172 q 696 147 685 154 q 710 136 707 139 q 725 126 714 135 q 740 115 736 118 q 763 97 747 108 q 778 85 778 86 q 794 69 782 81 q 819 44 806 57 q 844 19 832 31 q 860 3 856 7 q 870 -10 861 0 q 885 -28 879 -21 q 892 -40 886 -31 q 897 -51 897 -49 q 906 -66 900 -57 q 916 -85 911 -75 q 924 -101 921 -94 q 928 -110 928 -108 l 928 -140 l 928 -178 q 925 -186 928 -181 q 922 -194 922 -192 q 899 -217 917 -200 q 874 -239 882 -233 q 867 -242 874 -240 q 860 -247 861 -244 l 847 -247 l 831 -247 q 826 -244 828 -247 q 822 -239 824 -240 q 821 -231 822 -237 q 819 -219 819 -225 q 817 -207 818 -212 q 815 -201 815 -201 q 813 -190 815 -199 q 810 -178 810 -181 q 804 -171 807 -176 q 799 -164 801 -165 q 792 -153 796 -160 q 783 -139 788 -146 q 776 -126 779 -132 q 772 -119 772 -121 q 761 -108 768 -115 q 747 -92 754 -100 q 733 -76 739 -83 q 724 -65 726 -68 q 715 -56 724 -64 q 697 -39 707 -49 q 676 -20 686 -29 q 660 -7 665 -11 q 638 10 651 -3 q 622 24 624 22 q 602 36 615 28 q 574 54 589 44 q 547 72 560 64 q 531 85 535 81 l 518 85 l 506 85 q 496 78 501 82 q 485 68 485 69 q 468 59 481 65 q 441 46 456 53 q 413 33 426 39 q 393 24 399 26 q 389 -30 392 8 q 383 -111 386 -68 q 376 -193 379 -154 q 372 -247 372 -232 q 369 -269 372 -251 q 365 -290 365 -286 q 359 -281 363 -289 q 356 -269 356 -272 l 356 -232 l 356 -194 m 168 197 q 176 185 171 194 q 185 174 182 176 q 192 169 186 174 q 206 160 199 165 q 221 149 214 154 q 231 143 228 144 q 247 137 233 143 q 268 131 261 131 q 285 125 271 128 q 306 122 300 122 l 336 122 l 372 122 q 389 125 374 122 q 410 131 404 128 q 419 133 411 131 q 431 136 428 136 l 424 143 q 414 153 422 146 q 403 160 406 160 q 369 179 393 165 q 317 208 344 193 q 265 238 289 224 q 231 256 240 251 q 226 258 228 256 q 222 260 224 260 l 215 256 q 204 251 213 256 q 190 243 196 246 q 179 229 188 238 q 168 218 171 221 l 168 210 l 168 197 m 110 549 q 113 539 110 547 q 115 528 115 531 q 123 517 118 525 q 131 506 128 508 q 142 494 133 503 q 153 485 150 486 q 173 467 158 479 q 190 453 188 456 q 203 444 193 450 q 224 431 213 439 q 245 417 235 424 q 260 410 256 411 q 262 406 260 407 q 267 403 264 406 q 274 399 269 400 q 281 403 276 400 q 290 410 289 408 q 301 415 293 410 q 319 428 310 421 q 337 442 328 435 q 349 453 346 449 q 371 472 354 458 q 393 490 388 486 q 406 501 397 493 q 418 511 415 510 q 424 523 418 514 q 431 535 431 532 q 440 551 433 539 q 447 565 447 563 l 447 615 l 447 661 q 445 673 447 664 q 440 685 443 682 q 437 692 440 686 q 431 699 433 699 q 423 713 428 704 q 418 724 418 722 q 401 738 413 726 q 386 753 389 750 q 372 760 385 756 q 356 768 360 765 l 347 768 l 343 768 l 324 724 l 324 753 q 322 738 324 749 q 317 716 319 728 q 313 693 315 704 q 311 678 311 682 q 310 654 311 674 q 308 613 308 635 q 306 572 307 592 q 306 549 306 553 q 301 527 303 544 q 297 506 299 510 q 294 527 297 510 q 290 549 290 544 q 288 594 289 563 q 285 660 286 625 q 283 725 285 694 q 281 768 282 756 l 272 768 l 260 768 q 248 765 257 768 q 236 761 239 761 q 226 753 235 760 q 215 747 218 747 q 203 737 211 744 q 188 721 196 729 q 172 705 179 713 q 161 693 164 697 q 151 677 160 688 q 140 661 143 667 q 127 640 136 657 q 115 618 118 622 q 113 602 115 613 q 110 586 110 592 l 110 568 l 110 549 z "},"'":{"ha":165,"x_min":-1,"x_max":136,"o":"m 54 528 q 44 531 51 528 q 36 533 38 533 q 33 538 36 536 q 29 542 29 540 q 23 553 26 544 q 19 565 19 563 q 17 602 19 575 q 13 660 15 629 q 8 720 10 692 q 4 761 6 749 q 3 770 4 763 q 1 787 3 778 q -1 803 0 796 q -1 811 -1 810 l -1 833 l -1 849 q 1 858 -1 850 q 4 865 3 863 q 26 889 10 872 q 50 911 43 906 q 58 914 53 911 q 67 917 64 917 l 79 917 l 94 917 l 97 914 q 104 911 100 911 q 108 903 104 908 q 111 896 111 899 q 115 879 113 892 q 117 865 117 867 q 119 853 118 863 q 122 832 121 843 q 124 809 122 821 q 125 790 125 797 q 126 766 125 782 q 128 733 128 750 q 131 703 129 717 q 132 686 132 690 q 134 669 132 683 q 136 649 136 656 q 133 629 136 643 q 132 617 132 624 q 130 607 132 615 q 125 596 128 599 q 113 579 124 592 q 99 565 103 567 l 99 429 l 88 421 q 87 440 88 426 q 85 467 86 453 q 82 494 83 482 q 79 511 81 507 q 77 524 79 514 q 74 533 75 533 q 72 502 74 525 q 70 453 71 479 q 68 403 69 426 q 67 371 67 381 q 60 354 64 367 q 54 340 57 342 l 54 528 l 54 528 z "},"(":{"ha":314,"x_min":6,"x_max":350,"o":"m 85 135 q 79 113 83 128 q 71 80 75 97 q 63 47 67 63 q 58 24 60 31 q 53 8 58 19 q 46 -1 49 -4 l 36 -1 l 65 175 l 50 210 l 38 129 l 28 121 q 28 132 29 124 q 26 143 26 140 q 27 156 26 146 q 28 178 28 167 q 29 200 29 190 q 29 213 29 210 q 28 243 28 222 q 28 265 28 264 q 25 287 28 269 q 19 324 22 304 q 13 360 17 343 q 10 382 10 378 q 8 397 10 385 q 7 414 7 408 q 8 435 8 418 q 6 458 7 453 q 8 474 7 464 q 9 492 8 483 q 10 509 10 501 q 10 518 10 517 q 11 527 10 518 q 15 549 13 536 q 19 574 17 561 q 22 593 21 586 q 25 613 24 601 q 28 637 26 625 q 32 658 31 649 q 33 668 33 667 l 50 735 q 53 744 51 738 q 58 758 56 751 q 63 771 61 765 q 65 778 65 776 q 69 788 65 779 q 76 805 72 796 q 85 823 81 814 q 92 836 89 832 q 94 844 92 838 q 101 859 97 851 q 108 874 106 867 q 111 883 111 881 q 123 906 114 890 q 133 926 132 921 q 144 943 138 931 q 156 960 151 956 q 160 968 157 963 q 164 976 163 974 q 174 984 167 978 q 182 993 182 990 q 195 1003 186 996 q 208 1014 204 1011 q 222 1019 214 1014 q 235 1025 231 1024 q 243 1026 239 1025 q 249 1027 246 1026 q 256 1028 253 1028 l 260 1026 l 263 1025 q 267 1022 264 1024 q 272 1018 269 1021 q 278 1011 275 1015 l 278 1010 q 276 1004 276 1007 q 275 1003 276 1003 q 269 988 275 999 q 264 974 264 976 q 256 958 263 971 q 242 933 249 946 q 228 907 235 919 q 221 892 222 894 q 209 865 219 886 q 194 832 199 843 q 189 816 194 829 q 182 796 183 803 q 178 785 181 792 q 174 771 176 778 q 167 754 169 763 q 165 740 167 753 q 160 709 163 726 q 154 674 157 692 q 150 646 151 657 q 144 617 147 635 q 139 583 142 600 q 134 552 136 565 q 132 539 132 539 q 133 521 133 529 l 133 494 q 135 476 133 490 q 135 457 136 461 q 137 438 138 450 q 139 422 136 425 q 141 410 139 419 q 143 399 143 401 q 147 378 143 394 q 150 360 150 363 q 154 351 151 357 q 159 337 157 344 q 163 322 161 329 q 167 314 165 315 q 174 293 168 308 q 182 274 181 278 q 188 258 185 268 q 194 246 192 249 q 199 238 196 243 q 204 228 201 233 q 211 215 208 222 q 228 192 217 208 q 253 157 240 175 q 277 123 265 139 q 294 101 289 107 q 300 97 296 101 q 309 85 304 92 q 318 73 314 79 q 325 65 322 67 q 335 54 328 64 q 344 42 342 44 q 347 31 344 39 q 350 24 349 26 q 346 17 349 21 q 339 6 340 8 q 333 -3 336 3 q 326 -10 329 -10 q 303 -28 319 -17 q 283 -40 288 -39 q 271 -46 281 -40 q 256 -49 261 -51 l 246 -49 l 239 -49 q 215 -25 232 -42 q 192 -3 199 -8 q 183 4 189 -1 q 173 15 178 10 q 165 26 168 21 q 161 32 161 31 q 146 53 157 38 q 122 84 135 68 q 99 115 110 100 q 85 135 89 129 z "},")":{"ha":278,"x_min":-51,"x_max":257,"o":"m 38 44 q 41 54 38 46 q 44 65 44 63 q 51 81 46 69 q 63 108 57 93 q 75 134 69 122 q 82 150 81 146 q 88 160 83 153 q 95 176 92 168 q 101 192 99 185 q 104 200 104 199 q 109 212 107 203 q 113 225 111 221 q 121 255 115 235 q 129 278 126 275 q 131 285 129 279 q 133 299 132 292 q 135 312 133 306 q 136 321 136 318 q 138 340 136 326 q 140 369 139 354 q 141 396 140 383 q 142 413 142 408 l 142 440 l 142 471 q 141 487 142 475 q 140 512 140 499 q 138 537 139 525 q 136 553 136 549 q 133 574 136 556 q 129 600 129 593 q 124 619 126 606 q 119 638 122 633 q 116 651 118 642 q 112 669 114 660 q 108 686 110 679 q 104 696 106 693 q 101 710 104 700 q 95 730 99 719 q 88 751 92 740 q 82 765 83 761 q 76 783 82 769 q 67 803 69 797 q 56 824 64 807 q 44 846 47 842 q 33 867 42 851 q 24 883 25 882 q 12 901 21 889 q 0 915 3 913 q -10 926 -3 919 q -26 942 -18 933 q -41 958 -33 950 q -51 969 -49 965 l -51 982 l -51 996 q -49 1004 -51 999 q -46 1013 -46 1010 q -37 1022 -43 1015 q -24 1036 -31 1029 q -10 1049 -17 1043 q 0 1058 -3 1056 q 8 1062 3 1058 q 17 1065 14 1065 l 29 1065 l 44 1065 q 53 1062 47 1065 q 61 1058 58 1058 q 72 1047 64 1056 q 90 1028 81 1038 q 108 1009 100 1018 q 119 996 117 1000 q 128 988 122 996 q 136 975 133 981 q 149 956 140 971 q 157 938 157 940 q 167 922 160 933 q 174 907 174 911 q 180 892 175 903 q 189 870 185 882 q 197 847 193 858 q 204 832 201 836 q 212 810 207 826 q 219 788 217 793 q 222 775 219 783 q 226 758 224 767 q 230 740 228 749 q 232 728 232 732 q 235 713 233 724 q 240 690 238 701 q 245 667 243 678 q 249 653 247 657 q 253 623 250 643 q 257 600 257 603 l 257 508 l 257 419 q 256 411 257 418 q 253 396 254 404 q 250 378 251 388 q 249 365 249 369 q 245 347 249 363 q 242 328 242 332 q 233 299 239 321 q 225 269 228 276 q 222 258 225 267 q 219 246 219 249 q 212 228 217 242 q 204 208 207 214 q 191 180 200 199 q 182 157 182 161 q 177 149 181 156 q 169 134 174 142 q 162 120 165 126 q 157 113 158 114 q 153 100 157 110 q 150 88 150 90 q 143 71 149 83 q 136 58 138 58 q 128 49 135 56 q 115 36 122 43 q 101 22 108 29 q 92 13 94 15 q 83 10 89 13 q 75 7 78 7 l 61 7 l 44 7 q 40 14 42 11 q 38 21 38 19 l 38 32 l 38 44 z "},"*":{"ha":635,"x_min":-57,"x_max":664,"o":"m 199 611 q 194 598 197 607 q 189 579 192 589 q 184 561 186 569 q 182 551 182 553 q 181 535 182 549 q 178 506 179 522 q 177 477 178 490 q 176 461 176 464 q 173 453 176 458 q 168 444 169 447 q 156 428 165 440 q 144 414 147 417 q 131 403 143 411 q 114 393 118 394 q 106 389 110 390 q 93 386 97 386 q 89 383 92 385 q 82 382 86 382 l 76 386 q 69 392 74 386 q 61 399 64 399 l 61 432 l 61 468 q 67 494 63 474 q 76 538 71 514 q 87 583 82 563 q 93 611 92 604 l 93 618 l 76 618 q 58 615 74 618 q 39 611 43 611 q 28 608 36 611 q 18 601 19 604 q 15 572 18 594 q 11 543 11 550 q 5 531 8 540 q 1 519 1 522 q 0 510 1 517 q -2 497 -1 504 q -4 484 -3 490 q -6 476 -6 478 q -10 471 -6 474 q -18 468 -15 468 l -18 594 q -33 598 -19 594 q -51 601 -46 601 q -54 606 -51 604 q -57 611 -57 608 l -57 619 l -57 632 q -54 639 -56 635 q -51 649 -51 647 q -42 660 -49 651 q -36 669 -36 668 q -25 681 -33 672 q -14 693 -17 690 q -2 700 -11 694 q 11 707 7 706 q 17 713 11 710 q 24 714 19 714 q 38 720 29 717 q 49 724 46 724 q 78 727 56 724 q 107 731 100 731 q 110 743 108 733 q 114 764 113 753 q 115 785 115 775 q 114 799 115 794 q 112 813 114 801 q 107 837 110 824 q 102 860 104 850 q 99 874 100 871 l 99 911 l 99 949 q 106 963 101 951 q 114 981 111 975 q 128 994 117 982 q 144 1007 140 1006 q 159 1017 147 1010 q 176 1024 171 1024 l 186 1024 l 199 1024 l 206 1017 q 210 1011 208 1014 q 214 1007 213 1008 q 217 1000 215 1003 q 217 998 217 999 q 218 996 218 997 q 219 993 218 994 q 223 978 219 990 q 226 964 226 967 q 229 949 228 961 q 231 925 231 938 q 233 901 232 913 q 236 889 235 890 q 241 872 236 886 q 251 851 246 858 q 257 839 253 849 q 265 818 261 829 q 274 797 269 807 q 281 782 278 786 q 284 775 282 781 q 289 768 286 769 q 292 764 290 765 q 294 761 294 761 q 342 760 308 761 q 412 758 375 760 q 481 755 449 757 q 526 751 514 753 q 535 751 528 751 q 550 749 542 750 q 567 747 558 749 q 581 744 576 746 q 599 742 585 744 q 618 739 613 739 q 626 736 621 738 q 636 733 631 735 q 649 731 642 732 q 658 724 651 731 q 664 714 664 717 l 664 701 l 664 686 q 658 675 664 683 q 649 664 651 667 q 642 654 647 661 q 630 640 636 647 q 618 626 624 633 q 611 618 613 619 q 606 592 608 604 q 600 569 603 581 q 594 551 597 558 q 592 531 594 546 q 589 514 589 517 q 584 494 586 507 q 581 482 582 482 q 576 479 581 483 l 574 476 l 574 611 l 568 614 q 563 617 565 615 q 557 618 560 618 q 544 621 556 618 q 526 626 533 624 q 506 629 521 626 q 489 632 492 632 q 473 633 486 632 q 443 635 460 635 q 410 638 426 636 q 386 639 394 639 l 364 639 l 364 632 l 401 574 q 408 563 401 571 q 414 551 414 554 q 422 541 415 549 q 434 525 428 533 q 445 509 440 517 q 451 499 450 501 q 465 482 456 494 q 476 468 474 469 q 490 449 481 461 q 510 424 500 436 q 527 402 519 411 q 536 393 535 393 q 547 381 539 389 q 563 365 554 374 q 578 350 571 357 q 589 339 586 343 l 589 324 l 589 311 q 581 294 583 303 q 558 271 575 288 q 536 249 542 254 q 525 246 533 249 q 514 243 517 243 l 494 243 l 482 243 q 474 247 478 244 q 461 257 465 253 l 458 260 q 451 264 454 264 q 446 272 450 265 q 435 286 442 279 q 424 300 429 293 q 414 311 418 307 q 400 331 411 317 q 386 349 389 344 q 369 369 379 356 q 348 397 358 383 q 328 422 338 411 q 318 436 319 433 q 309 451 315 440 q 296 472 303 461 q 283 492 289 482 q 274 506 276 501 q 259 527 269 511 q 238 561 249 543 q 218 595 228 579 q 206 618 208 611 l 199 611 z "},"+":{"ha":528,"x_min":-6,"x_max":540,"o":"m 158 211 q 156 221 158 214 q 150 228 153 228 l 138 228 l 121 228 q 103 222 118 226 q 73 211 89 217 q 42 201 57 206 q 25 196 28 197 l 15 196 l 8 196 q 1 203 7 199 q -6 211 -6 208 l -6 221 l -6 228 q 1 244 -4 232 q 8 258 7 256 q 26 278 11 264 q 46 296 42 292 q 60 302 49 296 q 75 311 71 308 q 87 316 78 313 q 106 322 96 319 q 124 328 115 325 q 138 333 133 332 l 138 336 l 138 340 q 133 363 136 344 q 128 403 131 382 q 123 444 125 425 q 121 467 121 463 l 121 483 l 121 499 q 124 510 121 501 q 128 521 128 518 q 136 532 131 524 q 144 542 142 540 q 151 550 146 544 q 158 558 157 556 q 170 565 161 558 q 182 574 179 571 q 185 575 183 575 q 189 576 188 575 q 196 579 192 578 l 213 579 l 228 579 l 233 574 q 235 558 233 569 q 237 535 236 547 q 239 513 238 524 q 240 499 240 503 q 245 473 243 493 q 250 446 247 453 q 253 421 250 439 q 257 399 257 403 q 260 379 257 393 q 265 361 263 365 q 290 363 272 363 q 327 364 307 364 q 365 363 347 364 q 390 361 383 363 q 400 360 392 361 q 419 359 408 360 q 439 357 429 358 q 453 354 449 356 q 466 351 456 354 q 482 349 476 349 q 488 346 485 347 q 494 343 492 344 l 503 340 q 522 332 510 338 q 533 324 533 326 q 538 319 536 324 q 540 311 540 314 q 538 299 540 308 q 533 286 536 290 q 531 279 533 285 l 528 274 q 518 263 525 271 q 503 247 511 256 q 488 231 494 239 q 482 221 482 224 q 481 209 482 218 q 478 190 479 200 q 476 170 478 179 q 475 158 475 161 q 470 130 472 149 q 465 108 468 111 q 463 92 465 104 q 458 78 461 79 l 458 211 q 451 216 458 214 q 438 221 443 218 l 432 221 l 428 221 q 424 210 428 218 q 421 196 421 201 q 418 178 421 193 q 415 158 415 164 q 409 147 413 156 q 403 136 406 139 l 403 228 q 399 231 401 229 q 394 233 396 232 q 390 236 393 235 q 376 239 388 236 q 363 242 365 242 q 347 242 358 242 q 325 241 336 242 q 303 240 314 240 q 288 240 292 240 l 288 236 q 291 212 288 229 q 294 190 294 194 q 297 178 294 188 q 301 158 299 169 q 306 137 304 147 q 308 121 308 126 q 312 106 308 118 q 315 92 315 94 l 315 90 l 315 83 q 312 72 315 81 q 308 61 308 64 q 305 53 307 58 q 303 46 303 49 q 287 31 297 43 q 271 17 276 19 q 265 14 268 15 q 258 10 261 13 q 250 3 254 7 l 232 3 l 213 3 q 208 6 210 3 q 203 8 206 8 q 199 20 203 11 q 196 33 196 29 q 192 47 194 36 q 188 61 190 58 q 182 91 186 69 q 173 137 178 113 q 164 182 168 161 q 158 211 160 203 z "},":":{"ha":206,"x_min":18,"x_max":182,"o":"m 99 -94 q 101 -80 100 -92 q 103 -54 103 -68 q 106 -27 104 -40 q 107 -7 107 -14 q 110 22 107 -1 q 114 56 114 46 q 118 74 115 58 q 124 107 121 89 q 128 140 126 125 q 131 158 131 156 l 131 164 l 124 168 q 114 158 114 168 q 110 149 111 154 l 107 138 q 104 129 107 135 q 99 121 101 124 q 98 138 101 125 q 93 151 94 150 q 85 156 92 153 q 73 163 79 160 q 61 170 67 167 q 56 175 56 174 q 46 182 53 176 q 39 189 39 188 l 39 201 l 39 213 q 44 222 40 214 q 53 239 49 229 q 62 258 57 249 q 69 271 67 267 q 76 282 69 274 q 86 296 83 290 l 93 301 q 109 316 97 307 q 124 325 121 325 q 132 328 124 326 q 144 333 140 331 l 156 333 l 161 333 q 169 326 164 331 q 174 318 174 321 q 179 298 176 315 q 182 271 182 281 l 182 256 l 182 243 q 180 236 182 242 q 176 224 178 231 q 171 213 174 218 q 168 206 168 207 q 165 191 168 203 q 161 175 161 179 q 155 147 158 167 q 147 105 151 126 q 140 65 143 83 q 136 39 138 46 q 133 9 136 33 q 126 -43 131 -15 q 119 -95 122 -71 q 114 -125 115 -119 q 110 -144 114 -131 q 107 -162 107 -158 q 102 -156 106 -162 q 99 -149 99 -150 l 99 -125 l 99 -94 m 18 538 l 21 546 q 24 558 24 554 q 27 565 25 561 q 32 575 29 569 q 39 588 35 581 q 53 603 42 592 q 69 618 65 614 q 81 626 72 621 q 93 633 90 631 q 104 638 93 635 q 114 639 110 639 q 124 638 117 639 q 131 633 131 636 l 131 606 l 131 581 q 127 569 131 578 q 124 558 124 561 q 115 547 121 556 q 107 538 110 539 q 91 520 103 532 q 76 506 79 508 q 63 497 74 503 q 49 489 51 492 l 39 489 l 32 489 q 24 497 31 492 q 18 506 18 503 l 18 518 l 18 538 z "},",":{"ha":246,"x_min":10,"x_max":243,"o":"m 85 15 q 77 15 83 15 q 65 13 71 14 q 53 10 58 11 q 47 10 47 10 l 36 10 l 31 10 q 24 13 26 11 q 15 15 15 15 l 10 22 l 10 44 l 10 60 q 17 80 10 63 q 31 107 25 97 q 39 118 33 110 q 47 128 44 126 q 67 150 51 136 q 85 165 82 164 q 106 180 89 171 q 128 189 124 189 l 147 189 l 165 189 q 177 187 168 189 q 190 182 186 185 l 193 179 q 197 172 197 175 q 199 165 197 171 q 201 151 200 158 q 202 136 201 143 q 203 128 203 129 q 208 107 204 124 q 215 72 211 90 q 223 36 219 53 q 228 15 226 19 q 231 -6 228 14 q 235 -36 235 -26 q 236 -53 235 -43 q 239 -74 238 -64 q 243 -97 240 -86 l 243 -143 l 243 -186 q 235 -203 238 -194 q 222 -213 231 -206 q 206 -229 214 -221 q 190 -245 197 -237 q 181 -256 182 -253 l 172 -258 q 160 -261 164 -261 l 156 -261 l 153 -261 q 142 -254 149 -260 q 136 -247 136 -249 q 133 -226 135 -236 q 131 -209 132 -218 q 128 -193 129 -200 q 127 -182 128 -190 q 125 -164 126 -174 q 123 -146 124 -154 q 122 -135 122 -137 q 119 -105 122 -125 q 115 -81 115 -85 q 112 -65 114 -76 q 107 -42 110 -54 q 102 -20 104 -31 q 99 -6 100 -10 q 95 6 97 -3 q 90 15 93 14 l 86 15 l 85 15 z "},";":{"ha":186,"x_min":-10,"x_max":171,"o":"m 53 149 q 42 149 50 149 q 25 151 35 150 q 7 153 15 151 q -4 154 -1 154 l -10 161 l -10 179 l -10 199 q -7 210 -10 201 q -4 224 -4 218 q 3 235 -1 226 q 11 246 8 243 q 24 257 15 249 q 41 275 32 265 q 58 293 50 285 q 71 304 67 301 q 83 311 74 304 q 96 321 92 318 q 110 328 99 324 q 124 336 121 333 l 128 336 l 133 336 q 147 320 136 331 q 161 304 158 310 q 167 297 164 303 q 171 290 171 292 l 171 -33 q 167 -43 171 -35 q 161 -54 164 -51 q 155 -67 161 -58 q 146 -79 149 -76 q 131 -94 143 -83 q 117 -108 119 -106 q 103 -116 115 -110 q 86 -122 90 -122 l 79 -122 l 71 -122 q 60 -115 68 -121 q 53 -108 53 -110 l 53 149 m 17 633 q 17 640 17 636 q 18 646 17 643 l 21 654 q 26 670 21 660 q 33 686 31 681 q 42 694 36 688 q 56 708 49 700 q 69 721 63 715 q 79 729 76 726 q 85 733 81 731 q 90 737 88 736 q 96 740 93 738 q 107 743 99 740 q 117 746 115 746 l 121 746 l 124 746 q 132 743 126 746 q 140 740 138 740 q 144 735 142 738 q 146 729 146 732 q 151 722 149 728 q 154 715 154 717 l 154 692 l 154 671 q 148 656 154 667 q 140 640 142 644 l 103 603 q 88 594 100 600 q 71 586 76 589 l 54 586 l 33 586 l 31 589 q 28 596 28 592 q 23 603 25 599 q 21 611 21 608 q 18 619 19 614 q 17 626 17 622 q 17 633 17 631 z "},"-":{"ha":386,"x_min":3,"x_max":378,"o":"m 165 168 l 146 168 q 134 167 142 168 q 118 166 126 167 q 102 164 110 165 q 92 163 94 163 q 82 159 90 163 q 71 156 74 156 q 61 149 65 150 q 54 146 57 147 q 44 142 53 146 q 33 139 36 139 l 28 139 l 24 139 q 16 142 21 139 q 8 146 11 146 q 6 154 8 149 q 3 163 3 160 l 3 168 l 3 176 q 10 192 4 182 q 17 206 15 203 q 24 215 18 208 q 38 228 31 221 q 51 242 44 235 q 61 251 58 249 q 68 254 64 253 q 73 257 71 256 q 78 258 75 258 q 88 263 79 261 q 99 268 96 265 q 116 272 101 268 q 136 275 131 275 q 158 278 140 275 q 183 281 176 281 q 210 286 190 283 q 236 289 231 289 q 253 290 242 289 q 277 292 265 292 q 299 294 289 293 q 311 296 308 296 l 336 296 l 361 296 q 371 290 364 296 q 378 281 378 283 l 378 276 l 378 275 q 369 258 375 269 q 361 243 364 246 q 354 235 360 242 q 342 222 349 229 q 328 208 335 215 q 317 200 321 201 q 310 196 313 197 q 306 194 308 194 q 303 193 304 194 q 283 185 297 190 q 265 176 269 179 l 249 101 l 242 93 l 242 175 q 232 176 240 175 q 221 176 224 176 q 216 174 218 176 q 211 168 214 171 q 209 158 211 167 q 204 138 207 149 q 199 119 201 128 q 196 108 197 110 q 192 97 196 106 q 186 88 189 89 l 186 168 l 165 168 z "},".":{"ha":143,"x_min":4,"x_max":131,"o":"m 42 -1 q 27 5 39 -1 q 10 11 15 11 q 7 17 10 14 l 4 19 l 4 32 l 4 49 q 7 61 4 51 q 10 74 10 71 q 17 85 13 76 q 25 94 22 93 q 40 109 29 97 q 56 126 51 121 q 67 133 58 126 q 79 139 76 139 q 89 144 81 142 q 100 149 97 146 l 106 149 l 110 149 q 117 140 113 146 q 122 132 122 135 q 128 122 125 131 q 131 111 131 114 l 131 101 l 131 94 q 124 79 129 90 q 117 64 118 68 q 110 57 115 63 q 100 45 106 51 q 90 33 94 39 q 85 26 86 28 q 82 19 83 22 q 79 11 79 11 q 78 3 79 10 q 76 -12 76 -4 q 74 -28 75 -21 q 72 -39 72 -36 q 69 -54 71 -43 q 65 -78 67 -65 q 63 -101 64 -90 q 63 -114 63 -111 q 59 -131 63 -118 q 56 -144 56 -143 l 54 -144 l 47 -144 l 42 -139 l 42 -1 l 42 -1 z "},"/":{"ha":533,"x_min":10,"x_max":506,"o":"m 10 50 q 13 60 11 54 q 15 74 15 71 q 26 94 21 81 q 31 111 31 108 l 415 861 q 424 872 415 863 q 436 886 432 881 q 448 891 439 886 q 460 899 457 896 q 463 900 461 899 q 465 901 464 901 q 467 903 465 901 q 474 907 469 904 l 486 907 l 497 907 q 502 903 499 907 q 506 899 506 900 l 506 882 l 506 869 q 500 856 504 867 q 490 833 496 846 q 478 807 483 819 q 468 786 472 794 q 438 726 458 768 q 394 639 417 685 q 351 553 371 593 q 324 500 331 514 q 299 453 319 490 q 257 372 279 415 q 215 292 235 329 q 190 244 194 254 q 183 233 188 242 q 174 214 179 224 q 164 196 168 204 q 160 186 160 188 q 151 165 157 181 q 143 149 146 150 q 142 140 143 147 q 140 126 140 133 q 138 112 139 118 q 136 104 136 106 q 130 90 136 101 q 122 74 124 78 q 114 62 119 71 q 106 50 108 53 q 97 42 103 47 q 86 30 92 36 q 75 19 81 24 q 68 13 69 14 q 54 5 65 11 q 40 -1 43 -1 l 28 -1 l 15 -1 l 10 4 l 10 25 l 10 50 z "},"<":{"ha":594,"x_min":-1,"x_max":575,"o":"m 217 311 q 208 317 214 311 q 200 324 203 324 q 193 330 199 326 q 186 333 188 333 l 186 228 q 183 216 186 225 q 179 204 179 207 q 174 213 176 207 q 169 221 172 218 q 166 238 169 224 q 163 258 163 251 q 162 269 163 261 q 160 288 161 278 q 157 306 158 297 q 154 317 156 314 q 152 331 154 319 q 149 349 150 343 q 132 354 144 350 q 105 363 119 358 q 76 372 90 368 q 57 378 63 376 q 43 381 54 378 q 29 386 32 383 q 16 389 25 386 q 4 392 7 392 l -1 399 l -1 415 l -1 429 q 1 438 -1 432 q 4 446 4 443 q 26 468 10 451 q 50 490 43 485 q 57 494 50 492 q 67 499 64 496 q 81 501 69 499 q 94 504 92 504 q 110 506 99 504 q 137 508 122 507 q 163 510 151 508 q 179 511 175 511 l 190 514 q 207 521 200 517 q 220 524 211 521 q 232 528 229 528 q 249 534 238 529 q 273 544 261 539 q 294 553 285 549 q 307 558 304 557 q 314 563 308 560 q 326 569 319 565 q 340 576 333 572 q 350 579 347 579 q 363 587 354 582 q 381 597 372 592 q 396 606 389 601 q 404 611 403 610 q 414 619 407 613 q 428 633 421 625 q 441 646 435 640 q 449 654 447 651 q 450 662 449 656 q 452 674 451 668 q 454 686 453 681 q 457 692 456 692 q 462 709 457 697 q 469 724 467 721 q 485 738 474 726 q 500 753 496 750 q 515 760 503 754 q 532 767 526 767 l 542 767 l 554 767 l 561 761 q 562 745 561 756 q 563 729 563 735 q 562 722 563 726 q 561 714 561 718 l 561 703 q 559 691 561 700 q 554 678 557 682 q 551 671 553 674 q 544 665 549 665 q 529 638 539 656 q 517 617 519 619 q 506 606 514 614 q 489 589 499 599 q 470 570 479 579 q 457 558 461 561 q 442 547 454 556 q 425 536 431 539 q 415 528 422 533 q 401 519 408 524 q 389 510 394 514 q 382 504 383 506 q 363 494 378 501 q 331 478 347 488 q 300 462 314 469 q 282 453 286 454 l 275 446 l 336 415 q 345 410 338 414 q 361 401 353 406 q 377 392 369 396 q 388 386 385 388 q 399 378 390 383 q 411 371 408 374 q 425 360 413 368 q 442 349 438 351 q 462 331 447 342 q 479 317 476 319 q 494 303 485 315 q 507 286 504 290 q 518 275 510 286 q 532 258 526 264 q 540 244 535 253 l 544 236 q 558 212 549 229 q 569 190 567 194 q 572 178 569 188 q 575 167 575 169 l 575 153 l 575 136 q 569 122 575 133 q 561 108 563 111 q 554 100 560 106 q 542 88 549 94 q 531 77 536 82 q 524 71 525 72 q 510 63 521 68 q 494 54 499 57 l 486 54 l 479 54 l 476 57 q 469 61 472 61 q 463 78 469 71 l 460 89 q 457 99 458 94 q 453 107 456 100 q 446 122 450 114 q 438 137 442 131 q 432 146 433 143 q 426 157 432 149 q 419 167 419 165 q 405 181 415 171 q 384 203 394 192 q 364 224 374 214 q 350 236 354 233 q 343 241 350 236 q 328 252 336 246 q 311 265 319 258 q 299 274 303 271 q 279 285 293 276 q 261 296 265 293 l 254 292 l 254 33 l 244 3 q 241 10 244 4 q 238 17 238 15 q 234 45 236 22 q 232 78 232 68 q 228 123 231 90 q 224 193 226 156 q 219 264 221 231 q 217 311 217 297 z "},"J":{"ha":446,"x_min":-79,"x_max":439,"o":"m -79 99 q -76 121 -79 104 q -74 143 -74 138 q -66 165 -71 147 q -58 189 -61 183 q -53 200 -57 193 q -47 214 -50 207 q -41 226 -44 221 q -36 232 -37 232 q -24 244 -33 235 q -11 256 -15 253 q -3 263 -11 257 q 10 269 6 268 q 18 276 13 272 q 26 281 24 281 l 35 281 l 47 281 q 54 269 54 274 q 56 264 54 267 q 58 256 58 258 q 56 247 58 253 q 54 243 54 244 q 52 232 54 240 q 47 215 50 224 q 42 198 44 206 q 39 189 40 190 l 39 131 l 39 61 q 42 44 39 58 q 47 24 46 31 q 51 7 47 19 q 54 -7 54 -6 q 63 -25 57 -10 q 71 -44 68 -40 l 101 -106 q 106 -115 101 -107 q 114 -126 111 -124 q 128 -143 119 -131 q 139 -157 136 -156 q 150 -169 142 -160 q 160 -181 158 -178 q 174 -190 163 -182 q 192 -201 186 -199 q 197 -206 192 -204 q 204 -211 201 -208 q 217 -215 208 -211 q 229 -218 226 -218 l 251 -218 l 272 -218 l 282 -208 q 290 -201 286 -204 q 296 -194 293 -197 q 299 -187 297 -190 q 304 -181 300 -185 q 307 -169 304 -178 q 310 -157 310 -160 q 315 -140 313 -150 q 317 -126 317 -129 q 318 -99 317 -112 q 320 -76 319 -87 q 321 -57 321 -64 q 320 -39 321 -50 q 319 -16 319 -28 q 317 4 318 -4 q 317 14 317 13 q 315 38 317 18 q 310 68 313 58 q 308 83 310 72 q 303 106 306 94 q 298 128 300 118 q 296 143 296 139 q 294 153 296 144 q 289 172 292 161 q 283 192 286 182 q 279 206 281 201 q 275 223 278 211 q 269 247 272 235 q 262 271 265 260 q 258 286 258 282 q 247 327 256 296 q 226 399 238 358 q 202 488 215 440 q 178 576 189 535 q 158 648 167 617 q 146 689 149 679 q 144 699 146 692 q 142 707 142 706 q 142 712 142 708 q 143 718 142 715 l 146 726 q 151 741 146 729 q 160 757 156 753 l 197 794 q 211 802 200 797 q 226 807 222 807 q 231 808 229 807 q 235 811 233 811 l 242 807 q 250 802 244 807 q 258 794 256 797 q 261 775 258 790 q 264 757 264 760 q 275 713 265 749 q 299 629 285 678 q 328 525 313 581 q 357 421 343 469 q 380 337 371 372 q 392 293 389 301 q 395 283 393 292 q 400 265 397 275 q 405 246 403 256 q 408 232 407 236 q 411 216 408 226 q 416 194 414 206 q 420 174 418 183 q 422 164 422 165 q 424 156 422 163 q 426 142 425 150 q 428 126 426 133 q 429 114 429 118 q 433 96 431 107 q 436 74 435 85 q 438 54 438 63 q 439 44 439 46 l 439 7 l 439 -31 q 435 -53 439 -35 q 429 -82 432 -72 q 427 -97 429 -85 q 422 -111 425 -108 q 419 -123 422 -114 q 417 -136 417 -132 q 409 -156 414 -142 q 401 -174 404 -169 q 397 -181 399 -176 q 392 -186 394 -186 q 376 -213 386 -196 q 364 -232 367 -231 q 354 -242 361 -235 q 339 -258 347 -250 q 322 -274 331 -267 q 310 -286 314 -282 q 296 -297 308 -289 q 279 -307 283 -306 q 272 -312 278 -308 q 258 -319 265 -315 q 243 -326 250 -322 q 235 -331 236 -329 q 231 -333 233 -331 q 229 -339 229 -336 q 226 -348 228 -340 q 224 -365 225 -356 q 222 -381 224 -374 q 221 -389 221 -387 q 217 -397 221 -392 q 214 -406 214 -403 q 209 -397 211 -403 q 204 -389 207 -392 q 201 -367 204 -383 q 197 -344 197 -350 l 185 -344 l 185 -419 l 176 -419 q 172 -398 174 -415 q 167 -376 169 -381 q 165 -366 167 -372 q 163 -353 164 -360 q 160 -339 161 -346 q 153 -335 160 -337 q 139 -331 147 -333 q 124 -326 131 -328 q 114 -324 117 -324 q 107 -321 110 -322 q 101 -314 101 -318 q 88 -306 97 -311 q 76 -301 79 -301 q 63 -288 72 -297 q 44 -269 54 -279 q 26 -251 35 -260 q 17 -239 18 -243 q 3 -219 14 -236 q -11 -194 -8 -203 q -18 -183 -14 -192 q -28 -165 -22 -174 q -37 -147 -33 -156 q -42 -136 -42 -139 q -47 -126 -43 -135 q -53 -106 -50 -117 q -60 -84 -57 -94 q -65 -68 -64 -74 q -69 -52 -67 -62 q -74 -36 -71 -42 q -74 -24 -74 -32 q -76 -8 -75 -17 q -78 6 -78 0 q -79 14 -79 13 l -79 57 l -79 99 z "},"s":{"ha":640,"x_min":-15,"x_max":693,"o":"m 399 -18 q 394 -17 396 -18 q 390 -17 393 -17 l 386 -17 q 383 -19 386 -19 q 381 -21 381 -19 q 369 -42 376 -26 q 360 -64 361 -58 q 360 -54 360 -61 q 361 -44 361 -47 q 358 -28 360 -43 q 357 -7 357 -12 q 342 -3 353 -7 q 321 6 332 1 q 299 14 310 10 q 283 18 288 18 q 271 24 279 19 q 253 35 263 29 q 235 47 243 42 q 225 56 228 53 q 217 59 222 56 q 204 68 211 63 q 191 78 197 74 q 182 85 185 82 q 174 92 178 88 l 161 104 q 149 120 157 110 q 139 133 142 131 q 126 149 136 136 q 114 167 117 163 q 108 177 111 167 q 104 193 106 188 q 100 209 104 196 q 94 225 96 222 q 93 238 94 229 q 92 250 92 247 q 94 263 93 257 q 97 273 96 268 q 99 281 99 278 q 101 299 99 288 l 104 310 q 110 311 106 313 q 120 308 115 310 q 130 303 125 306 q 138 303 135 301 l 138 311 q 124 317 135 313 q 102 328 114 322 q 80 342 90 335 q 68 353 69 349 q 57 363 67 353 q 44 379 47 374 q 38 387 42 381 q 33 394 33 393 q 28 406 33 397 q 22 418 24 415 q 17 438 19 425 q 13 457 14 451 q -8 593 -15 540 q 30 673 -1 646 q 111 704 61 700 q 219 694 161 708 q 335 652 276 681 q 444 585 394 624 q 527 499 493 546 q 569 404 561 453 q 568 400 568 401 l 568 399 l 567 400 q 561 404 564 401 q 556 407 558 406 q 550 407 553 408 q 543 390 550 404 q 536 372 536 375 q 527 365 533 369 q 518 358 521 361 q 508 352 517 358 q 496 343 499 346 q 490 344 493 343 q 483 344 488 344 q 474 346 478 344 l 469 346 q 461 347 463 346 l 453 347 q 451 351 450 347 q 449 354 451 354 q 447 363 450 357 q 443 372 443 369 q 442 383 443 374 q 438 397 440 392 q 450 421 449 408 q 447 445 451 433 q 435 465 443 457 q 419 474 426 472 q 406 489 418 474 q 381 522 394 504 q 355 553 367 539 q 342 568 343 568 q 340 576 342 565 q 338 585 339 586 q 332 565 335 579 q 331 554 331 560 q 325 521 329 543 q 316 474 321 499 q 307 426 311 449 q 303 394 303 404 q 342 367 318 379 q 383 344 365 356 q 401 340 386 344 q 433 331 415 336 q 465 320 450 326 q 485 308 481 314 q 494 301 488 306 q 510 292 501 296 q 524 283 518 288 q 533 279 531 279 q 555 262 539 272 q 575 246 571 251 q 583 239 576 244 q 597 227 590 233 q 610 215 604 221 q 619 208 617 210 q 628 199 622 206 q 640 186 633 193 q 651 174 646 179 q 660 168 657 168 q 673 148 661 165 q 690 124 685 131 q 692 115 690 121 q 693 107 693 110 q 690 100 692 103 q 688 90 688 92 q 686 81 686 88 q 685 71 686 74 q 681 61 685 68 q 675 53 676 54 q 663 42 672 50 q 654 32 654 35 q 635 17 650 28 q 614 1 619 7 q 599 -4 610 -1 q 583 -8 589 -7 q 567 -13 579 -11 q 553 -18 556 -15 q 528 -23 546 -21 q 506 -26 510 -25 q 491 -25 501 -25 q 469 -25 481 -25 q 446 -25 457 -25 q 431 -25 435 -25 l 421 -199 l 415 -199 q 415 -191 415 -197 q 414 -178 414 -185 q 415 -165 414 -171 q 419 -157 417 -158 q 415 -129 418 -149 q 410 -87 413 -110 q 406 -46 407 -65 q 407 -18 404 -26 l 399 -18 m 226 301 q 224 296 226 299 l 221 293 q 226 276 224 288 q 231 261 229 264 q 239 249 233 257 q 251 231 244 240 q 265 213 258 221 q 275 201 271 206 q 283 189 275 199 q 293 176 290 179 q 313 164 297 174 q 332 147 328 154 q 349 136 336 146 q 368 126 363 126 q 378 121 372 124 q 393 115 389 115 q 415 104 401 108 q 431 100 422 101 q 440 98 432 100 q 457 94 447 96 q 476 90 467 92 q 490 88 486 88 q 499 86 493 88 q 513 83 506 85 q 528 79 519 81 l 536 86 q 532 89 533 88 l 528 93 q 519 103 524 97 q 513 109 517 106 q 507 114 510 113 q 492 128 503 118 q 478 142 481 139 q 465 151 475 143 q 444 167 456 158 q 423 183 433 175 q 408 196 413 192 q 402 199 407 196 q 390 208 397 203 q 376 217 383 213 q 364 224 368 222 q 344 238 358 226 q 329 249 331 249 q 308 259 322 251 q 278 276 294 267 q 248 293 263 285 q 226 307 233 301 l 226 301 m 147 551 q 143 535 146 547 q 140 521 140 522 q 143 506 139 518 q 150 489 147 494 q 165 470 153 478 q 181 460 176 463 q 188 453 182 458 q 203 442 194 449 q 219 430 211 436 q 229 421 226 424 q 253 406 242 418 q 282 389 264 393 q 284 399 282 394 q 286 408 286 403 q 292 452 288 425 q 300 506 296 479 q 308 554 304 533 q 313 578 313 575 q 313 588 313 582 q 310 594 313 594 q 305 583 308 594 q 296 542 301 572 l 288 533 q 285 545 288 536 q 283 556 283 554 q 285 562 283 561 q 286 567 286 563 q 294 581 299 574 q 274 595 289 589 q 236 603 258 601 q 194 601 214 604 q 161 585 175 597 q 147 551 147 574 z "},"=":{"ha":564,"x_min":-12,"x_max":538,"o":"m 213 18 q 188 19 206 18 q 151 21 171 19 q 115 23 132 22 q 93 24 99 24 l 56 24 q 47 27 53 24 q 39 31 42 31 l 39 49 l 39 68 q 42 76 39 71 q 46 85 46 82 q 65 106 50 92 q 83 122 81 119 q 98 129 86 124 q 114 136 110 135 l 175 136 l 233 136 q 251 135 238 136 q 282 133 265 135 q 315 131 299 132 q 339 131 331 131 q 372 127 349 129 q 419 122 394 125 q 466 117 444 119 q 496 115 488 115 q 509 112 500 115 q 521 106 518 108 l 526 99 l 526 86 l 526 78 q 524 69 526 75 q 521 61 521 64 q 517 55 519 58 q 513 49 515 51 q 506 40 508 44 l 489 24 q 479 17 488 22 q 468 10 471 11 q 458 4 464 6 q 451 3 454 3 q 442 0 447 1 q 433 -1 438 -1 q 425 -1 428 -1 q 408 1 419 -1 q 393 3 396 3 q 377 4 389 3 q 351 6 365 6 q 324 8 336 7 q 308 10 313 10 l 281 10 l 281 -215 q 276 -208 278 -214 q 271 -201 274 -203 q 267 -187 271 -199 q 264 -172 264 -176 q 262 -159 264 -169 q 257 -136 260 -149 q 252 -112 254 -124 q 250 -97 250 -101 q 248 -82 250 -94 q 243 -56 246 -69 q 238 -29 240 -42 q 233 -14 235 -17 q 232 -8 233 -11 q 229 0 231 -4 q 226 10 228 6 q 219 15 225 11 q 213 18 214 18 m -12 249 q -6 265 -12 254 q 1 281 0 275 q 8 287 3 282 q 19 298 13 292 q 31 310 25 304 q 39 318 36 315 q 47 321 42 318 q 56 324 53 324 l 71 324 l 93 324 q 107 321 96 324 q 121 318 118 318 l 521 318 q 526 311 524 314 q 531 306 529 308 q 533 303 533 304 l 538 299 q 535 296 538 299 q 533 293 533 294 q 527 278 533 288 q 521 265 521 268 q 501 247 515 261 q 483 228 488 233 q 466 218 478 225 q 451 211 454 211 q 439 210 449 211 q 419 208 429 208 q 398 206 408 207 q 383 206 388 206 l 18 206 q 10 208 15 206 q 1 211 4 210 q -6 219 0 214 q -12 228 -12 225 l -12 236 l -12 249 z "},"K":{"ha":597,"x_min":-4,"x_max":708,"o":"m 335 178 l 335 140 l 326 140 q 324 151 325 146 q 320 162 322 157 q 317 171 318 167 q 315 183 317 174 q 313 203 314 193 q 311 224 313 214 q 310 236 310 233 q 307 247 310 239 q 304 261 304 256 l 296 274 q 288 283 293 276 q 279 290 282 290 l 279 283 l 279 274 q 283 245 281 268 q 286 196 285 222 q 288 146 288 169 q 289 117 289 122 l 289 -8 l 289 -92 l 279 -129 l 272 -122 q 271 -115 272 -122 q 269 -99 269 -108 q 267 -79 268 -89 q 267 -64 267 -69 q 264 -33 265 -57 q 261 24 263 -8 q 258 94 260 57 q 254 163 256 131 q 252 220 253 196 q 251 253 251 244 q 249 265 250 256 q 247 283 247 274 q 244 300 246 292 q 242 311 243 308 q 231 313 239 311 q 221 315 222 315 q 207 313 218 315 q 197 311 201 311 q 178 306 196 311 q 151 299 161 301 q 137 291 149 296 q 122 283 125 286 q 124 272 122 279 q 126 256 125 264 q 128 240 126 247 q 129 229 129 232 q 134 206 132 222 q 139 186 136 189 q 141 171 139 182 q 145 148 143 160 q 149 126 147 136 q 151 111 151 115 q 157 95 154 108 q 160 79 160 82 l 160 74 l 160 65 q 157 53 160 63 q 151 42 154 44 q 147 32 151 40 q 139 21 142 24 l 122 4 q 113 -3 121 3 q 101 -10 104 -8 q 96 -13 99 -12 q 90 -15 93 -14 q 85 -17 86 -17 q 78 -19 81 -18 q 74 -21 76 -21 l 71 -21 q 61 -19 65 -21 q 54 -17 57 -18 q 50 -15 51 -17 q 47 -10 47 -12 q 44 3 47 -8 q 39 21 42 14 q 34 46 38 29 q 28 81 31 63 q 22 114 25 99 q 17 133 18 129 q 15 141 17 135 q 13 156 14 147 q 11 172 13 164 q 10 186 10 181 q 8 200 10 190 q 6 219 7 210 q 3 237 4 229 q 1 246 1 244 q 1 271 1 254 q -1 306 0 288 q -3 340 -3 325 q -4 358 -4 354 l -4 528 l -4 696 q -1 707 -4 699 q 1 717 1 715 q 7 726 4 719 q 10 733 8 731 q 18 742 13 736 q 29 753 24 747 q 40 765 35 760 q 47 771 44 769 q 62 778 50 774 q 76 786 74 783 l 89 786 l 101 786 q 104 782 103 783 l 108 778 q 112 763 110 775 q 114 749 114 751 l 114 379 q 129 388 118 382 q 152 399 140 393 q 174 409 164 404 q 189 417 185 414 q 201 425 192 419 q 214 433 210 431 q 229 445 219 438 q 248 460 239 453 q 265 473 257 468 q 272 478 272 478 q 292 497 278 483 q 323 527 307 511 q 353 557 339 543 q 371 578 367 571 q 374 584 372 578 q 379 590 376 590 q 382 602 379 592 q 385 615 385 613 q 386 618 386 617 q 388 622 386 621 q 392 628 389 625 q 405 645 396 635 q 417 658 414 656 q 433 673 419 661 q 454 690 447 685 l 460 693 q 467 696 465 696 q 480 701 471 699 q 492 703 489 703 l 497 704 q 500 703 499 704 q 503 703 501 703 l 504 703 q 514 696 514 703 l 514 678 l 514 658 q 511 651 514 657 q 505 639 508 646 q 497 625 501 632 q 492 615 493 618 q 477 592 489 610 q 460 567 465 575 q 446 549 458 563 q 429 529 433 535 q 413 510 425 524 q 385 481 400 496 q 358 451 371 465 q 342 433 346 438 q 353 425 344 431 q 364 417 361 419 q 372 409 367 414 q 384 398 378 404 q 395 386 390 392 q 401 379 400 381 q 414 358 404 378 q 429 328 424 338 q 440 306 431 324 q 460 268 450 288 q 480 231 471 249 q 492 208 489 213 q 497 197 492 206 q 508 176 501 188 q 523 152 515 164 q 535 133 531 140 q 543 122 538 131 q 551 111 549 114 q 563 95 554 106 q 572 79 571 85 q 590 57 578 72 q 604 42 601 42 q 622 22 608 36 q 651 -7 636 8 q 681 -36 667 -22 q 701 -54 694 -50 q 705 -62 701 -57 q 708 -71 708 -68 l 708 -72 l 708 -79 q 701 -94 706 -83 q 696 -108 696 -106 q 687 -118 693 -111 q 673 -132 681 -125 q 658 -145 665 -139 q 647 -154 651 -151 l 639 -157 q 626 -160 631 -160 l 621 -160 l 610 -160 q 603 -157 606 -158 q 601 -156 601 -157 q 599 -156 600 -156 q 596 -154 597 -156 q 581 -140 593 -149 q 567 -129 569 -132 q 547 -113 561 -128 q 529 -92 533 -99 q 519 -82 526 -89 q 506 -67 513 -75 q 492 -51 499 -58 q 483 -42 485 -44 q 476 -31 482 -39 q 463 -12 469 -22 q 449 7 456 -3 q 439 21 442 17 q 431 32 436 24 q 422 42 425 40 q 407 67 418 49 q 385 107 396 86 q 363 146 374 128 q 347 171 351 164 l 335 178 z "},"T":{"ha":460,"x_min":-132,"x_max":681,"o":"m 168 682 q 139 685 160 683 q 95 687 118 686 q 52 689 72 688 q 24 690 32 690 q 15 691 22 690 q 0 692 8 692 q -16 694 -8 693 q -26 697 -24 696 q -44 701 -31 697 q -64 707 -58 704 q -82 710 -71 707 q -94 714 -93 714 q -103 717 -97 714 q -111 719 -108 719 q -123 733 -114 725 q -132 744 -132 742 l -132 751 l -132 757 q -129 771 -132 763 q -126 782 -126 779 q -119 793 -124 785 q -111 803 -114 801 q -100 815 -108 806 q -89 826 -92 824 q -77 833 -86 826 q -64 840 -68 839 q -57 846 -60 844 q -51 847 -54 847 l -32 847 l -14 847 q -6 840 -8 847 q -3 833 -6 839 q 1 826 -1 831 q 13 823 4 826 q 24 819 21 819 q 46 813 29 817 q 69 810 63 810 q 88 808 75 810 q 113 806 100 807 q 138 804 126 806 q 151 803 149 803 l 189 803 l 219 803 q 235 810 222 803 q 251 819 249 817 l 268 819 l 281 819 q 288 811 282 817 q 294 803 294 806 l 326 803 l 356 803 q 384 804 361 803 q 434 806 407 806 q 485 808 461 807 q 514 810 508 810 l 593 810 l 669 810 q 675 806 672 810 q 681 803 678 803 l 681 790 l 681 782 q 676 774 681 779 q 669 765 672 768 q 663 753 668 761 q 656 744 657 744 q 653 740 656 742 q 649 735 651 738 q 643 728 646 731 q 631 721 640 726 q 618 714 622 715 q 610 708 615 711 q 606 707 607 707 l 451 690 l 451 228 q 448 236 451 231 q 444 244 444 242 q 444 256 444 247 q 442 273 443 264 q 440 291 440 282 q 439 303 439 300 q 436 344 438 314 q 433 413 435 374 q 430 497 432 453 q 426 581 428 542 q 424 649 425 619 q 424 690 424 679 l 414 690 q 412 671 414 686 q 407 653 410 656 q 406 632 407 650 q 404 593 406 614 q 402 554 403 572 q 401 535 401 536 q 399 552 400 536 q 397 587 397 568 q 394 622 396 606 q 393 639 393 638 q 390 660 393 643 q 386 682 386 678 l 294 682 l 294 665 q 297 641 296 661 q 301 593 299 621 q 306 533 304 565 q 311 470 308 500 q 315 417 314 440 q 318 385 317 394 q 319 375 318 382 q 321 360 319 368 q 324 344 322 351 q 326 335 325 336 q 328 316 326 329 q 333 288 331 303 q 337 261 335 274 q 339 244 339 249 q 344 226 342 240 q 349 207 346 213 q 353 188 350 201 q 356 176 354 182 q 370 172 357 174 q 386 169 383 169 q 390 161 386 167 q 393 153 393 156 q 397 134 394 151 q 401 107 399 117 l 401 103 l 401 101 q 397 79 399 93 q 393 64 394 65 q 390 56 393 61 q 386 47 386 50 l 364 19 q 349 8 361 17 q 332 -6 338 0 q 325 -8 331 -6 q 318 -11 319 -11 l 299 -11 l 281 -11 l 274 -6 q 264 12 271 0 q 257 26 257 24 q 251 49 257 31 q 243 78 244 68 q 240 92 242 82 q 235 112 238 101 q 230 131 232 122 q 226 144 228 140 q 225 161 226 149 q 222 188 224 174 q 217 216 219 203 q 214 235 215 229 q 210 259 213 243 q 206 292 208 275 q 201 322 203 308 q 199 340 199 336 q 194 376 197 347 q 186 438 190 404 q 179 499 182 471 q 176 535 176 528 q 174 561 175 539 q 172 610 172 583 q 169 658 171 636 q 168 682 168 679 z "},">":{"ha":606,"x_min":-10,"x_max":604,"o":"m 79 33 l 79 58 q 83 72 79 61 q 86 89 86 82 q 91 103 89 94 q 96 113 93 113 q 102 128 97 117 q 113 150 107 139 q 125 172 119 161 q 133 188 131 183 q 138 197 133 189 q 146 208 143 206 q 160 226 151 215 q 171 239 168 238 q 184 254 174 243 q 207 278 194 265 q 231 301 219 290 q 246 314 242 311 q 257 326 246 317 q 274 338 268 335 q 288 346 278 339 q 309 360 297 353 q 330 374 321 367 q 342 383 339 381 l 349 389 l 353 393 l 349 396 q 335 407 346 400 q 313 421 325 414 q 289 434 300 428 q 274 443 278 440 q 263 451 271 446 q 253 458 254 456 q 233 473 246 463 q 205 494 219 483 q 178 513 190 504 q 161 525 165 522 q 151 533 158 528 q 138 545 144 539 q 124 556 131 551 q 117 563 118 561 l -10 689 l -10 701 l -10 713 q -3 728 -10 717 q 4 743 3 740 q 19 759 7 749 q 33 775 31 769 q 51 782 39 776 q 65 788 63 788 l 69 788 q 74 788 72 788 q 78 789 75 789 l 86 788 q 106 771 92 783 q 136 744 121 758 q 165 717 151 729 q 183 700 179 704 q 195 688 186 696 q 214 671 204 679 q 233 655 224 663 q 246 646 242 647 q 263 631 249 643 q 283 614 276 619 q 297 604 286 613 q 311 593 308 596 q 326 583 317 589 q 343 570 335 576 q 358 560 351 564 q 365 556 364 556 q 378 547 368 553 q 401 533 389 540 q 425 519 414 526 q 440 508 436 513 q 462 497 444 506 q 486 488 479 489 q 503 481 489 488 q 524 471 518 474 q 545 465 528 471 q 567 458 563 458 q 583 453 569 456 q 599 450 596 451 l 604 443 l 604 431 l 604 421 q 598 403 604 415 q 590 389 592 392 q 583 381 589 386 q 572 371 578 376 q 560 360 565 365 q 553 351 554 354 q 538 344 550 350 q 524 338 526 339 q 512 336 521 338 q 492 334 503 335 q 472 332 482 333 q 461 331 463 331 q 447 327 458 331 q 433 321 436 324 l 433 308 q 430 299 433 306 q 424 293 426 293 l 421 293 l 417 293 q 414 300 415 296 q 411 308 411 306 q 405 311 408 308 q 399 314 401 314 l 399 201 l 386 193 q 383 210 386 199 q 379 225 379 222 q 378 238 379 228 q 376 258 378 247 q 374 278 375 268 q 374 293 374 289 l 365 300 q 347 290 356 296 q 333 283 340 286 q 321 276 325 279 q 308 269 317 275 q 299 263 299 264 q 284 249 294 258 q 263 228 274 239 q 243 208 253 218 q 229 193 233 197 q 222 183 228 193 q 215 171 217 174 q 207 153 213 168 q 199 133 201 138 q 197 122 199 131 q 192 104 194 114 q 187 85 189 94 q 183 75 185 76 q 178 58 183 69 q 171 43 174 46 q 153 26 167 40 q 133 6 139 11 q 125 3 131 6 q 117 0 119 0 l 103 0 l 86 0 l 79 6 l 79 33 z "},"U":{"ha":613,"x_min":-1,"x_max":661,"o":"m 217 -12 l 200 -12 q 197 -40 200 -19 q 192 -65 194 -60 q 191 -81 192 -72 q 189 -96 190 -89 q 186 -112 188 -104 l 174 -112 l 174 -12 q 169 -10 172 -11 q 163 -7 164 -7 q 151 -5 160 -7 q 133 0 143 -3 q 115 6 124 3 q 104 10 107 8 q 87 15 101 10 q 67 25 72 19 q 56 28 61 25 q 50 31 51 29 q 42 39 47 33 q 31 50 38 44 q 19 60 25 56 q 13 68 14 65 q 10 75 11 71 q 7 80 8 78 q 4 85 6 82 q 1 96 4 85 q -1 106 0 100 l -1 129 l -1 150 q 1 167 -1 153 q 4 188 4 182 q 12 220 7 197 q 19 250 17 243 q 26 269 21 254 q 35 301 31 283 q 45 335 40 319 q 50 354 50 350 q 58 384 53 361 q 67 417 64 407 q 70 436 67 421 q 74 454 74 451 l 74 492 l 74 529 q 72 536 74 532 q 69 544 71 540 l 67 556 q 51 561 64 558 q 36 567 38 564 q 31 569 33 567 q 29 572 29 571 q 26 582 28 576 q 25 590 25 586 q 25 597 25 594 q 25 602 25 599 q 26 608 25 606 l 29 617 q 34 632 29 621 q 42 647 39 643 l 74 679 q 83 686 75 681 q 94 693 92 692 q 106 697 97 693 q 117 700 114 700 l 124 700 l 125 700 q 140 692 128 697 q 154 685 151 688 q 160 682 157 685 l 163 679 q 171 662 165 674 q 179 647 176 650 q 183 632 179 643 q 186 617 186 621 l 186 556 l 186 497 q 183 481 186 494 q 179 460 179 467 q 176 446 178 456 q 171 427 174 436 q 166 410 168 418 q 163 400 164 401 q 157 377 163 396 q 145 336 151 358 q 133 295 139 314 q 125 272 126 276 q 120 251 124 265 q 117 235 117 238 l 117 200 l 117 167 q 128 155 119 164 q 142 143 138 146 q 153 136 147 139 q 162 131 157 133 q 169 129 167 129 q 181 126 172 129 q 192 122 189 122 q 209 117 197 119 q 224 113 221 115 q 233 111 225 113 q 249 109 240 110 q 265 107 257 108 q 275 106 272 106 q 292 104 281 106 q 317 102 304 103 q 338 101 329 101 q 350 100 347 100 q 369 99 353 100 q 392 97 385 97 q 399 97 394 97 q 408 99 404 97 q 419 100 414 99 l 425 122 l 425 168 l 425 235 q 424 247 425 238 q 422 268 424 257 q 420 290 421 279 q 419 304 419 300 q 416 315 418 306 q 412 338 414 325 q 408 361 410 350 q 404 379 406 372 q 399 397 403 383 q 393 424 396 410 q 387 450 390 438 q 382 467 383 463 q 372 502 379 476 q 356 556 364 528 q 340 610 347 585 q 329 647 332 636 l 329 667 l 329 685 q 331 692 329 688 q 336 700 335 699 q 343 711 338 703 q 350 722 349 719 q 358 730 353 725 q 367 738 364 735 q 378 744 369 738 q 388 754 386 751 q 396 757 390 754 q 404 760 401 760 l 417 760 l 425 760 q 433 753 428 760 q 442 743 439 746 q 449 726 444 735 q 453 712 451 719 q 457 700 456 704 q 470 653 460 689 q 494 569 481 617 q 524 467 508 521 q 554 366 540 414 q 578 282 568 318 q 592 235 589 246 q 596 222 593 231 q 602 202 599 213 q 609 181 606 192 q 613 167 613 171 q 618 152 614 163 q 627 130 622 142 q 637 107 632 118 q 644 92 642 96 q 651 77 644 89 q 661 63 658 65 l 661 47 l 661 31 q 657 24 660 26 q 653 19 654 21 q 650 17 651 17 q 643 5 649 14 q 636 -7 638 -4 q 630 -14 636 -8 q 624 -21 624 -19 q 612 -28 621 -21 q 599 -37 603 -35 q 590 -41 596 -37 q 582 -44 585 -44 l 574 -44 l 561 -44 q 547 -34 558 -44 q 532 -21 535 -24 q 519 -14 529 -19 q 507 -7 510 -8 q 506 0 507 -4 q 503 5 504 3 q 500 10 501 7 l 500 13 l 500 17 l 503 28 q 507 38 504 33 q 508 46 508 39 q 507 50 508 49 l 506 51 q 500 54 503 54 q 495 49 500 53 q 485 40 490 44 q 476 31 481 35 q 469 25 471 26 q 457 13 467 22 q 442 0 447 4 q 433 -3 439 0 q 425 -7 428 -7 q 415 -10 424 -8 q 404 -12 407 -12 q 383 -18 397 -15 q 367 -21 369 -21 l 244 -21 q 242 -64 244 -33 q 238 -130 240 -94 q 234 -197 236 -165 q 232 -240 232 -228 q 229 -256 231 -244 q 227 -281 228 -268 q 225 -305 226 -293 q 224 -321 224 -317 l 217 -315 l 217 -12 z "},"L":{"ha":563,"x_min":-8,"x_max":622,"o":"m 192 -17 q 185 -19 189 -17 q 179 -21 181 -21 q 156 -24 175 -21 q 115 -31 136 -26 q 74 -38 93 -35 q 50 -42 54 -42 l 29 -42 l 6 -42 q -1 -35 4 -42 q -8 -28 -7 -29 l -8 -24 l -8 -21 q -6 -6 -8 -17 q -3 10 -3 6 l -3 160 q 1 181 0 171 q 3 198 3 189 q 6 214 4 207 q 7 224 6 217 q 9 238 8 231 q 11 251 10 244 q 13 258 13 257 q 19 292 14 265 q 31 351 25 319 q 43 411 38 383 q 50 446 49 439 q 53 467 50 450 q 60 492 57 485 q 61 505 60 496 q 63 522 63 514 q 65 538 64 531 q 67 546 67 544 l 67 685 q 74 702 68 690 q 81 717 79 714 q 100 735 86 721 q 118 754 114 749 q 133 763 121 757 q 147 771 144 768 l 156 771 l 163 771 q 172 763 165 768 q 179 754 179 757 l 179 667 l 179 583 q 177 569 179 581 q 173 544 175 558 q 167 515 171 529 q 163 492 164 500 q 156 457 161 485 q 144 397 150 429 q 132 338 138 365 q 125 304 126 311 q 122 277 125 294 q 118 258 118 260 q 119 223 118 249 q 120 169 119 197 q 122 115 121 140 q 122 79 122 89 l 135 79 q 151 81 138 79 q 180 85 164 83 q 209 90 196 88 q 225 92 222 92 q 237 95 229 93 q 253 99 244 97 q 267 101 261 100 q 275 101 274 101 q 298 103 282 101 q 332 105 314 104 q 366 107 350 106 q 388 108 382 108 l 450 167 q 459 172 450 169 q 472 176 468 174 l 475 176 l 479 176 q 486 173 481 176 q 493 167 492 169 q 499 163 494 167 q 500 160 500 161 q 504 156 501 158 q 510 149 507 153 q 517 139 514 143 q 526 123 519 132 q 539 106 532 114 q 554 85 546 96 l 622 17 l 622 1 l 622 -11 q 619 -19 622 -14 q 617 -28 617 -25 q 612 -34 614 -31 q 607 -40 610 -37 q 600 -49 603 -44 q 592 -57 597 -51 q 585 -65 588 -62 q 574 -72 582 -67 q 563 -79 565 -78 q 553 -85 558 -82 q 547 -86 550 -86 q 540 -89 544 -87 q 531 -90 536 -90 q 524 -88 529 -90 q 517 -86 518 -86 q 504 -76 513 -83 q 486 -61 496 -69 q 468 -46 476 -53 q 456 -36 460 -39 q 449 -31 456 -33 q 442 -28 443 -29 q 430 -24 439 -28 q 418 -21 421 -21 q 397 -15 411 -18 q 381 -11 383 -11 l 342 -11 l 300 -11 q 294 -19 297 -14 q 292 -28 292 -25 q 290 -32 292 -29 q 288 -39 289 -35 q 285 -49 286 -44 q 276 -54 279 -54 q 272 -54 274 -56 l 272 -15 q 265 -14 269 -15 q 254 -11 257 -11 q 244 -16 251 -14 q 238 -21 238 -18 l 225 -178 l 217 -192 q 215 -163 217 -183 q 213 -120 214 -143 q 211 -77 213 -97 q 210 -49 210 -57 q 205 -32 207 -43 q 200 -21 203 -21 q 196 -19 197 -21 q 194 -19 194 -19 q 193 -18 194 -18 q 192 -17 192 -18 z "},"?":{"ha":514,"x_min":7,"x_max":563,"o":"m 113 11 q 106 14 108 11 q 103 18 104 15 l 103 40 l 103 56 q 110 71 103 60 q 119 86 117 82 q 126 95 119 89 q 140 108 132 101 q 153 122 147 115 q 163 131 160 128 q 166 134 164 132 q 171 138 168 136 q 178 140 174 139 l 194 140 l 208 140 l 211 138 q 215 131 215 133 l 215 124 l 215 118 q 212 103 215 115 q 208 86 208 92 q 207 82 208 85 q 204 75 206 79 q 200 65 201 69 q 199 49 200 61 q 197 23 199 36 q 195 -3 196 10 q 194 -19 194 -15 l 188 -26 q 183 -7 185 -21 q 178 11 181 7 q 174 19 178 14 q 171 28 171 25 l 171 -147 l 163 -153 q 160 -135 163 -149 q 157 -115 157 -121 q 156 -90 157 -108 q 153 -52 154 -72 q 151 -14 153 -32 q 150 11 150 4 l 113 11 m 103 185 q 101 210 103 192 q 99 248 100 228 q 97 286 99 268 q 96 311 96 304 q 95 325 96 314 q 93 349 94 336 q 90 373 92 363 q 88 386 89 383 l 88 410 l 88 424 q 95 438 90 426 q 103 456 100 449 q 111 467 106 458 q 119 478 117 475 q 129 489 121 481 q 140 499 138 497 q 160 515 144 503 q 194 542 176 528 q 228 568 213 556 q 246 585 243 581 q 268 601 251 586 q 290 622 285 617 q 308 636 296 626 q 331 656 319 646 q 353 675 343 667 q 365 686 363 683 q 382 703 369 690 q 408 729 394 715 q 433 756 421 743 q 450 772 446 768 l 450 774 l 450 778 q 439 791 447 783 q 428 799 431 799 q 406 812 422 801 q 382 822 389 822 q 370 826 379 822 q 350 833 361 829 q 329 842 339 838 q 315 847 319 846 q 296 850 310 847 q 278 853 282 853 l 269 853 l 263 853 q 258 826 260 846 q 253 799 256 807 q 249 781 253 794 q 246 761 246 767 q 242 781 244 767 q 240 799 240 794 q 235 826 238 807 q 232 853 232 846 l 225 853 l 215 853 q 208 846 213 853 q 200 836 203 839 l 188 853 l 128 853 l 125 847 q 130 833 128 844 q 133 815 132 821 q 139 799 135 811 q 147 774 143 788 q 154 748 151 760 q 157 735 157 736 l 157 711 l 157 686 q 153 679 154 682 q 151 675 151 678 q 150 672 151 674 q 139 663 146 669 q 125 649 132 656 q 111 635 118 642 q 103 628 104 629 l 75 611 l 69 611 l 65 611 q 59 619 65 614 q 50 628 53 625 q 47 635 50 631 q 44 643 44 640 q 42 655 44 644 q 35 678 39 665 q 26 704 31 692 q 21 724 22 717 q 16 740 18 731 q 11 760 14 749 q 7 785 8 771 l 7 806 l 7 831 q 10 842 7 833 q 13 853 13 850 q 22 871 15 860 q 28 885 28 882 q 40 895 32 888 q 56 911 47 903 q 72 926 64 919 q 82 936 79 933 q 88 939 82 936 q 100 945 93 942 q 114 953 107 949 q 125 960 121 957 q 137 963 128 960 q 150 965 146 965 q 170 971 156 968 q 188 974 185 974 l 253 974 l 321 974 l 340 971 q 355 968 347 969 q 365 965 363 967 q 374 965 368 965 q 388 963 381 964 q 403 960 394 961 q 417 955 407 958 q 438 948 428 951 q 458 941 449 944 q 471 936 468 938 q 493 926 476 935 q 515 911 510 917 q 532 901 519 910 q 546 890 544 893 q 556 879 549 888 q 563 868 563 871 l 563 836 l 563 810 q 553 787 563 804 q 540 761 544 769 q 534 756 539 761 q 523 743 529 750 q 510 729 517 736 q 503 718 504 722 l 457 672 q 438 653 453 668 q 404 623 422 639 q 372 592 386 607 q 353 574 357 578 q 344 567 350 571 q 333 558 339 563 q 321 547 328 553 l 321 456 l 315 456 q 311 465 313 460 q 308 475 310 469 q 307 485 307 481 q 303 503 307 489 q 300 522 300 517 l 290 522 q 265 503 278 513 q 243 486 254 494 q 225 472 232 478 l 208 456 l 208 447 l 208 431 q 210 404 208 426 q 212 357 211 382 q 214 309 213 332 q 215 281 215 286 l 215 260 l 215 243 q 210 229 215 240 q 200 215 206 218 q 183 197 197 211 q 163 178 168 183 l 157 175 q 153 172 154 174 q 150 168 151 169 q 137 165 146 168 q 125 161 128 161 l 113 168 q 106 176 110 171 q 103 185 103 182 z "},"V":{"ha":411,"x_min":6,"x_max":481,"o":"m 318 4 l 307 4 q 303 -20 306 -3 q 299 -42 301 -37 q 296 -61 299 -47 q 293 -79 293 -75 l 281 -71 l 281 -11 q 267 -9 278 -11 q 256 -4 257 -7 q 247 8 253 -4 q 239 26 242 19 q 230 47 236 32 q 224 64 224 61 q 221 81 224 67 q 218 101 218 94 q 215 114 217 104 q 213 134 214 124 q 210 154 211 144 q 207 167 208 164 q 205 177 207 168 q 199 197 203 186 q 192 219 196 208 q 186 235 189 229 q 183 248 185 238 q 178 271 181 258 q 173 293 175 283 q 169 304 171 303 q 153 349 165 315 q 123 427 140 382 q 88 522 106 472 q 52 617 69 572 q 22 695 35 663 q 6 739 10 728 l 6 758 l 6 776 q 12 791 6 779 q 19 808 18 803 q 34 822 22 810 q 49 835 46 833 q 66 844 54 838 q 81 851 78 851 l 93 851 l 101 851 q 118 837 106 849 q 132 821 131 825 q 138 803 135 818 q 139 783 142 788 l 261 385 l 269 447 l 361 689 l 361 704 l 361 721 q 358 728 361 722 q 351 735 354 733 l 351 739 l 351 742 q 356 755 354 746 q 361 764 358 764 q 367 776 361 767 q 376 789 374 786 q 382 796 379 792 q 389 804 389 803 q 400 809 392 804 q 414 817 408 814 q 417 820 415 818 q 422 824 419 822 q 426 826 425 825 l 444 826 l 457 826 q 464 818 457 824 q 474 810 471 813 q 477 803 474 808 q 481 796 481 797 l 481 789 l 481 779 q 477 763 481 776 q 474 742 474 749 q 469 726 471 736 q 464 714 467 717 q 453 674 461 707 q 435 604 444 642 q 416 535 425 567 q 406 496 407 503 q 397 468 403 488 q 389 442 392 449 q 382 425 389 439 q 367 396 375 411 q 351 367 358 381 q 344 351 344 354 q 340 328 343 344 q 336 310 336 313 l 336 247 l 336 214 q 340 198 336 211 q 344 183 343 185 q 348 164 346 176 q 352 139 350 151 q 356 117 354 126 q 357 108 357 108 q 358 100 357 104 q 361 89 361 92 q 358 78 361 86 q 357 71 357 74 q 352 56 357 68 q 344 42 347 44 l 344 -149 q 344 -168 344 -153 q 342 -201 343 -183 q 339 -236 340 -219 q 336 -261 338 -253 q 333 -283 336 -265 q 331 -304 331 -300 l 318 -290 l 318 4 z "},"M":{"ha":603,"x_min":-12,"x_max":708,"o":"m 550 -279 q 529 -276 544 -279 q 513 -269 514 -272 q 508 -265 510 -268 q 506 -257 506 -260 l 506 -250 l 506 -249 q 508 -235 506 -246 q 513 -225 510 -229 q 520 -215 514 -222 q 534 -199 526 -207 q 549 -184 542 -192 q 558 -174 556 -176 l 558 -150 q 544 -119 554 -140 q 524 -69 535 -97 q 501 -12 513 -42 q 478 46 489 18 q 458 95 467 74 q 446 126 450 117 q 431 163 442 138 q 410 218 421 189 q 390 272 400 247 q 376 308 381 297 l 376 281 l 376 256 q 378 237 376 249 q 380 212 379 225 q 382 187 381 199 q 383 171 383 175 q 388 158 385 168 q 393 135 390 147 q 398 111 396 122 q 400 96 400 100 l 400 76 l 400 58 q 393 40 400 56 q 383 21 386 25 q 380 3 383 18 q 376 -17 376 -12 l 371 -24 q 363 -15 368 -21 q 356 -7 358 -10 l 350 -7 l 346 -7 l 333 -99 q 328 -90 331 -96 q 325 -82 325 -85 q 322 -53 325 -75 q 318 -24 318 -31 q 310 -20 315 -24 q 301 -17 304 -17 q 294 -8 300 -14 q 288 0 289 -3 q 283 16 286 4 q 276 42 279 28 q 269 67 272 56 q 264 83 265 79 q 257 100 263 86 q 250 121 251 114 q 243 135 250 124 q 233 150 236 147 q 228 160 232 153 q 219 176 224 168 q 211 192 215 185 q 206 201 207 199 q 192 222 201 207 q 174 252 183 236 q 155 282 164 268 q 143 300 146 296 l 133 293 l 133 83 q 118 57 128 76 q 106 31 108 38 q 105 13 106 26 q 103 -15 104 0 q 101 -44 101 -31 q 100 -61 100 -57 q 97 -76 100 -65 q 93 -92 93 -87 q 87 -83 90 -89 q 83 -75 83 -78 q 82 -60 83 -71 q 80 -37 81 -49 q 78 -15 79 -25 q 76 0 76 -4 l 75 0 l 68 0 q 58 -4 64 -3 q 46 -7 47 -7 l 33 -7 l 25 -7 q 17 -1 22 -7 q 8 8 11 6 q 13 64 10 24 q 18 150 15 104 q 23 236 21 196 q 25 293 25 276 l 25 371 l 25 450 q 24 459 25 451 q 22 475 22 467 q 19 491 21 483 q 18 501 18 499 q 13 519 15 507 q 8 533 11 531 q 3 544 7 535 q -3 563 0 553 q -10 582 -7 574 q -12 593 -12 590 l -12 600 l -12 608 q -6 625 -11 613 q 1 638 0 638 q 8 644 3 639 q 20 656 14 650 q 31 668 26 663 q 39 676 36 674 q 53 683 42 676 q 68 689 65 689 q 74 691 71 689 q 81 693 78 693 q 87 691 83 693 q 93 689 90 689 q 96 688 94 689 q 100 683 100 683 q 106 669 100 681 q 117 645 111 658 q 130 621 124 632 q 138 608 136 610 q 149 587 140 603 q 167 553 157 571 q 185 519 176 535 q 196 496 193 503 q 201 485 197 493 q 210 469 206 478 q 219 453 215 461 q 226 443 224 446 q 241 422 232 436 q 250 406 250 408 q 253 401 250 403 q 258 400 256 400 q 259 410 258 401 q 260 428 260 418 q 263 447 261 438 q 264 458 264 456 q 269 486 265 464 q 278 533 274 508 q 285 581 282 558 q 288 608 288 603 q 289 626 288 613 q 291 657 290 640 q 293 688 292 674 q 296 706 294 701 q 298 720 296 708 q 301 738 300 732 q 305 744 301 739 q 308 751 308 750 q 320 764 313 756 q 336 781 328 772 q 352 795 344 789 q 363 801 360 801 q 372 808 364 804 q 383 813 381 813 l 393 813 l 400 813 q 403 808 401 813 q 408 801 406 804 q 411 792 408 800 q 414 781 414 783 l 414 668 q 417 651 414 665 q 421 631 421 638 q 425 618 422 626 q 431 601 428 610 q 435 583 433 592 q 438 571 438 575 q 445 542 439 561 q 451 518 451 524 q 464 483 456 508 q 482 428 472 457 q 500 373 492 399 q 513 338 508 347 q 519 321 514 333 q 528 295 524 308 q 538 270 533 282 q 543 256 542 258 q 559 215 547 246 q 587 144 571 185 q 621 58 603 103 q 655 -27 639 13 q 683 -97 671 -67 q 700 -136 696 -126 q 701 -142 700 -139 q 704 -149 703 -146 q 708 -157 706 -153 l 708 -167 l 708 -174 q 705 -183 708 -175 q 700 -194 701 -192 q 697 -203 700 -197 q 693 -211 693 -208 q 685 -222 690 -212 q 676 -232 679 -232 q 674 -240 676 -235 q 671 -249 671 -246 q 666 -258 668 -250 q 663 -269 664 -267 l 656 -257 l 638 -262 l 638 -332 l 625 -337 l 618 -332 q 614 -305 615 -325 q 613 -279 613 -285 l 550 -279 z "},"@":{"ha":808,"x_min":-15,"x_max":803,"o":"m 360 -622 q 363 -626 361 -622 q 368 -629 365 -629 l 368 -643 l 360 -643 l 360 -622 m 278 -531 q 275 -519 276 -525 q 272 -509 274 -514 q 268 -500 269 -504 q 267 -485 268 -497 q 265 -460 265 -474 q 263 -435 264 -447 q 261 -418 261 -422 q 260 -402 261 -412 q 258 -381 258 -392 q 256 -361 257 -369 q 256 -350 256 -353 q 250 -329 253 -343 q 247 -312 247 -315 q 238 -310 243 -311 q 230 -307 233 -308 q 224 -306 226 -306 q 218 -305 224 -306 q 206 -303 213 -304 q 194 -300 200 -301 q 186 -297 188 -299 q 169 -294 179 -297 q 156 -292 158 -292 q 142 -285 151 -289 q 122 -276 132 -281 q 105 -267 113 -271 q 97 -260 97 -262 q 86 -251 94 -258 q 69 -235 78 -244 q 50 -216 60 -225 q 36 -200 40 -207 q 29 -189 35 -197 q 22 -179 24 -181 q 14 -163 19 -174 q 6 -147 8 -153 q 3 -140 6 -146 q -1 -128 1 -135 q -6 -114 -4 -121 q -10 -104 -8 -107 q -12 -88 -10 -99 q -15 -72 -15 -78 l -15 3 l -15 78 q -15 85 -15 79 q -12 97 -14 90 q -10 111 -11 104 q -10 121 -10 118 q -6 140 -8 126 q 1 169 -3 154 q 9 196 6 183 q 15 213 13 208 q 20 233 15 215 q 28 257 25 251 q 37 276 31 261 q 43 294 43 292 q 53 314 47 301 q 65 340 58 326 q 75 365 71 354 q 81 378 79 375 q 87 388 82 379 q 98 408 92 397 q 110 430 104 419 q 118 446 115 440 q 123 453 119 447 q 131 465 126 458 q 138 476 135 471 q 140 483 140 481 q 158 506 146 489 q 172 528 169 522 q 180 540 174 532 q 194 558 186 549 q 208 575 201 567 q 218 588 215 583 q 236 612 222 594 q 256 633 250 629 q 265 646 257 638 q 283 664 274 654 q 302 682 293 674 q 315 694 311 690 q 338 713 321 699 q 360 732 354 726 q 372 740 363 733 q 393 753 382 746 q 414 767 404 761 q 428 775 424 772 q 450 789 433 781 q 472 800 467 797 q 492 805 474 800 q 518 813 511 810 q 535 818 525 817 q 547 821 540 819 l 590 821 l 631 821 q 645 818 633 821 q 660 813 657 815 q 674 806 661 813 q 690 800 686 800 q 701 790 693 797 q 711 783 710 783 q 723 774 714 782 q 735 763 732 765 q 748 746 739 758 q 760 732 757 733 q 769 709 761 726 q 781 683 778 692 l 783 675 q 786 663 786 667 q 793 646 788 660 q 797 633 796 640 q 798 621 797 631 q 800 598 799 611 q 802 572 801 585 q 803 550 803 558 l 803 546 l 803 544 q 800 517 801 533 q 798 486 799 501 q 797 459 797 471 q 797 446 797 447 q 794 434 796 443 q 789 413 792 425 q 784 390 786 401 q 781 371 782 378 q 776 355 778 367 q 772 340 774 343 q 767 328 771 338 q 760 307 764 318 q 753 285 757 296 q 749 271 750 275 q 742 253 747 267 q 735 233 736 239 q 723 212 732 229 q 711 190 714 194 q 699 169 707 183 q 690 153 690 156 q 676 138 686 149 q 655 117 665 128 q 635 97 644 107 q 622 83 625 88 q 600 71 617 79 q 578 63 583 63 l 556 63 l 531 63 l 518 69 q 504 83 513 74 q 493 94 496 92 q 489 100 492 94 q 483 113 486 106 q 476 126 479 119 q 472 138 472 133 q 464 160 469 143 q 456 182 458 176 l 453 183 l 449 182 q 443 179 449 182 q 431 172 438 176 q 419 164 425 168 q 411 158 413 160 q 398 151 407 156 q 380 143 389 147 q 363 135 371 139 q 353 132 356 132 q 328 121 346 126 q 306 115 310 115 l 272 115 l 240 115 q 226 121 238 115 q 210 132 214 126 l 203 138 q 198 144 200 140 q 193 150 196 147 q 186 158 189 154 q 183 176 185 161 q 178 196 181 192 l 178 208 l 178 219 q 181 230 179 222 q 183 246 182 238 q 185 261 183 254 q 186 271 186 268 q 190 285 186 274 q 193 303 193 297 q 197 314 194 307 q 203 328 200 321 q 208 340 206 335 q 210 346 210 346 q 219 370 211 351 q 231 394 228 389 q 237 404 232 397 q 247 418 242 411 q 257 431 253 425 q 261 438 261 436 q 272 449 264 440 q 290 467 281 457 q 308 485 299 476 q 322 496 318 493 q 332 504 324 499 q 343 513 340 510 q 360 521 351 518 q 372 524 364 521 q 381 528 376 525 l 418 528 l 456 528 q 467 524 458 528 q 481 521 475 521 q 484 519 482 519 q 489 517 486 518 q 493 513 492 515 q 510 501 497 510 q 524 490 522 493 q 543 474 529 486 q 572 447 557 461 q 599 419 586 432 q 615 400 611 406 q 613 389 615 397 q 610 378 610 381 q 604 370 607 375 q 599 363 601 365 q 592 351 599 360 q 585 340 586 343 q 583 337 585 339 q 581 332 582 335 q 578 325 579 328 l 578 296 l 578 265 q 581 246 578 260 q 585 228 585 232 q 592 212 586 222 q 599 196 597 201 q 607 189 601 194 q 615 182 613 183 q 626 206 618 189 q 636 228 635 222 q 641 238 638 229 q 648 258 644 247 q 655 280 651 269 q 660 294 658 290 q 663 308 661 296 q 668 325 665 321 q 671 345 668 331 q 674 363 674 360 q 681 392 676 372 q 685 415 685 413 l 685 475 l 685 533 q 681 551 685 536 q 674 571 676 567 q 671 585 674 576 q 668 596 668 594 q 655 621 663 604 q 647 640 647 638 q 638 648 644 642 q 624 662 632 654 q 610 675 617 669 q 599 683 603 681 q 585 693 597 686 q 568 700 572 700 q 551 705 565 703 q 531 708 538 707 l 522 708 l 510 708 q 492 705 507 707 q 472 700 476 703 q 460 697 469 700 q 449 694 451 694 q 433 686 444 692 q 418 678 422 681 q 408 670 415 675 q 394 660 401 665 q 381 651 388 656 q 374 646 375 647 q 361 634 371 643 q 340 613 351 625 q 316 588 328 600 q 299 571 304 576 q 285 556 297 569 q 268 533 272 542 q 261 522 267 531 q 249 503 256 514 q 235 483 242 493 q 224 469 228 474 q 211 449 219 464 q 203 432 203 433 q 193 414 199 425 q 181 391 188 403 q 171 369 175 379 q 165 357 167 360 q 160 344 164 354 q 151 322 156 335 q 141 299 146 310 q 135 282 136 288 q 131 267 135 276 q 128 257 128 258 q 122 236 125 250 q 114 208 118 222 q 107 183 110 194 q 103 169 104 171 q 102 156 103 165 q 100 135 101 146 q 98 115 99 125 q 97 100 97 104 l 97 69 l 97 40 q 100 15 97 35 q 103 -12 103 -6 q 108 -29 106 -17 q 111 -43 111 -42 q 116 -51 113 -44 q 123 -64 119 -57 q 130 -78 126 -71 q 135 -87 133 -85 q 142 -101 136 -92 q 149 -110 147 -110 q 157 -119 151 -112 q 169 -131 163 -125 q 181 -142 175 -137 q 186 -147 186 -147 q 215 -163 192 -153 q 247 -179 238 -174 q 263 -183 251 -181 q 278 -185 274 -185 q 296 -186 288 -186 q 310 -187 303 -187 q 324 -187 318 -187 q 336 -187 328 -187 q 353 -186 344 -187 q 374 -185 363 -186 q 386 -182 381 -183 q 397 -181 392 -181 q 406 -179 403 -181 q 417 -174 408 -176 q 428 -172 425 -172 q 450 -161 433 -169 q 472 -147 467 -153 q 478 -144 475 -146 q 485 -139 482 -142 q 493 -135 489 -136 l 599 -29 q 610 -21 601 -26 q 622 -12 619 -15 q 629 -8 622 -12 q 636 -6 632 -7 l 642 -6 q 646 -5 644 -6 q 649 -4 647 -4 q 651 -5 650 -4 q 656 -6 653 -6 l 660 -6 l 664 -10 q 668 -12 665 -11 l 668 -29 l 668 -43 q 664 -50 665 -47 q 661 -55 663 -53 q 660 -60 660 -57 q 653 -71 660 -62 q 647 -81 647 -79 q 630 -101 642 -86 q 615 -118 618 -117 q 602 -132 611 -122 q 583 -152 593 -142 q 562 -172 572 -162 q 547 -185 551 -181 q 531 -201 544 -190 q 510 -217 517 -211 q 488 -233 504 -221 q 465 -247 471 -244 q 452 -253 461 -249 q 433 -261 443 -257 q 415 -269 424 -265 q 406 -275 407 -274 q 386 -283 403 -278 q 360 -292 369 -289 q 349 -294 357 -292 q 333 -299 342 -296 q 317 -303 325 -301 q 306 -306 310 -306 l 299 -322 l 299 -568 l 285 -531 l 278 -531 m 299 250 q 306 242 299 247 q 315 233 313 236 q 325 231 319 232 q 336 228 336 228 l 343 228 l 353 228 q 363 231 356 229 q 376 236 369 233 q 390 241 383 239 q 397 244 396 243 q 405 248 399 244 q 419 256 411 251 q 433 264 426 260 q 443 271 440 268 q 449 279 443 274 q 456 288 456 285 q 462 295 458 290 q 465 303 465 300 l 465 321 l 465 340 l 406 400 q 398 403 403 400 q 390 408 393 407 q 376 411 385 408 q 368 415 371 413 l 356 415 l 343 415 l 336 408 q 331 400 331 400 q 323 385 328 397 q 315 371 318 374 q 312 360 315 369 q 306 346 308 351 q 304 339 306 343 q 301 331 303 335 l 299 319 l 299 283 l 299 250 z "},"W":{"ha":665,"x_min":-12,"x_max":656,"o":"m 596 -49 q 588 -52 593 -49 q 581 -56 583 -56 q 574 -60 578 -58 q 571 -65 571 -62 l 571 -156 l 564 -156 q 562 -136 564 -150 q 558 -106 560 -122 q 553 -76 556 -90 q 550 -56 550 -62 q 547 -48 550 -54 q 541 -33 544 -42 q 533 -17 538 -25 q 526 -3 529 -8 q 519 12 524 1 q 508 34 514 22 q 497 57 503 46 q 489 72 492 68 q 481 89 489 75 q 468 110 474 103 q 449 140 464 115 q 415 192 433 164 q 382 243 397 219 q 363 272 367 267 q 354 288 361 276 q 340 311 347 299 q 326 335 332 324 q 318 351 319 347 q 308 361 315 353 q 301 372 301 369 l 300 372 l 296 372 q 292 351 294 367 q 288 319 290 336 q 283 287 285 303 q 281 265 281 271 q 274 232 278 254 q 271 207 271 210 q 272 188 271 203 q 272 154 272 172 q 272 121 272 136 q 271 101 272 106 q 269 92 271 97 q 267 84 268 88 q 264 78 265 81 q 263 75 263 76 q 261 71 263 74 q 258 64 260 68 q 249 53 256 60 q 234 39 242 46 q 220 26 226 32 q 213 19 214 21 q 198 11 210 17 q 181 3 186 6 l 175 3 l 168 3 q 160 10 165 3 q 151 19 154 17 q 148 26 150 19 q 143 35 146 32 l 114 122 q 99 173 111 133 q 72 258 86 213 q 46 344 58 304 q 31 394 33 383 q 25 412 29 400 q 16 437 21 424 q 7 461 11 450 q 1 476 3 472 q -6 488 1 478 q -12 501 -12 499 l -12 519 l -12 544 q -10 551 -11 547 q -7 560 -7 557 q 7 576 -1 564 q 18 589 15 589 q 29 599 18 590 q 46 614 40 608 q 56 617 47 614 q 63 619 60 618 l 75 619 l 83 619 q 92 613 86 619 q 100 603 97 606 q 107 588 101 601 q 114 565 113 574 q 128 527 118 556 q 148 466 138 499 q 167 404 158 433 q 181 364 176 375 q 186 386 183 368 q 189 410 189 404 q 190 420 189 411 q 192 440 192 429 q 194 462 193 451 q 196 476 196 472 q 199 492 197 479 q 201 518 200 504 q 203 544 201 532 q 206 560 204 557 q 207 572 206 564 q 209 588 208 579 q 211 603 210 596 q 213 614 213 611 l 221 626 q 232 644 224 633 q 243 657 240 654 q 257 668 246 660 q 271 678 268 676 q 282 683 274 681 q 296 689 290 686 l 301 689 l 308 689 q 315 683 311 686 q 318 678 318 681 q 321 667 318 675 q 328 649 324 658 q 335 631 332 639 q 339 619 339 622 q 356 584 343 610 q 383 529 368 558 q 410 474 397 500 q 431 439 424 449 q 435 428 431 438 q 448 408 440 419 q 463 384 456 396 q 475 364 471 372 q 482 353 476 361 q 493 335 488 344 q 504 316 499 325 q 513 303 510 307 q 515 297 513 300 q 519 290 517 293 q 526 282 522 286 q 530 277 526 279 q 533 272 533 275 l 533 301 l 533 326 q 532 367 533 336 q 528 436 531 399 q 524 508 526 474 q 521 560 522 543 q 518 576 519 564 q 516 602 517 589 q 514 626 515 615 q 513 640 513 638 q 509 666 513 649 q 506 689 506 683 l 503 694 q 496 701 499 701 q 482 690 493 699 q 468 678 471 681 q 457 671 465 676 q 446 664 449 665 q 441 663 443 664 q 436 660 439 661 l 431 657 l 418 657 l 408 657 q 403 660 406 657 q 400 664 401 661 l 400 676 l 400 689 q 407 700 404 694 q 411 708 410 704 q 414 715 413 713 q 422 730 417 721 q 431 740 428 739 q 445 755 435 744 q 467 776 456 765 q 486 796 478 788 q 496 807 494 804 q 518 820 500 813 q 543 828 536 828 q 550 829 546 828 q 558 832 556 832 q 571 829 560 832 q 581 828 575 828 q 588 826 583 828 q 596 822 593 825 q 603 811 596 819 q 613 801 610 803 q 614 790 613 799 q 618 778 615 781 q 622 758 618 774 q 625 740 625 743 q 628 707 626 731 q 633 678 631 683 q 639 595 635 649 q 647 486 643 542 q 653 387 650 431 q 656 335 656 343 l 656 178 l 656 26 q 647 12 653 24 q 639 -3 642 0 q 633 -15 639 -6 q 625 -28 626 -25 l 618 -40 q 619 -56 618 -44 q 622 -82 621 -68 q 624 -108 622 -96 q 625 -124 625 -119 q 625 -137 625 -126 q 626 -160 625 -147 q 626 -185 626 -172 q 626 -206 626 -199 q 626 -219 626 -210 q 626 -236 626 -228 q 625 -251 625 -244 q 625 -260 625 -258 l 618 -274 q 614 -244 615 -267 q 613 -215 613 -222 q 609 -193 611 -211 q 606 -154 607 -175 q 603 -115 604 -133 q 601 -93 601 -97 q 599 -71 601 -87 q 596 -49 596 -54 z "},"N":{"ha":511,"x_min":3,"x_max":546,"o":"m 335 26 q 331 31 336 29 q 322 38 326 33 l 306 -106 l 296 -111 q 293 -99 293 -108 q 290 -89 293 -90 q 291 -68 290 -85 q 292 -33 292 -51 q 294 3 293 -14 q 296 24 296 19 q 297 39 296 28 q 298 61 297 50 q 299 82 299 72 q 299 94 299 92 q 296 99 297 96 q 293 107 293 104 q 283 124 290 111 q 272 140 275 136 q 265 153 269 144 q 254 172 260 163 q 244 190 249 182 q 238 200 239 197 q 223 215 233 203 q 202 240 213 226 q 183 265 192 253 q 169 283 174 278 q 167 274 168 281 q 167 265 167 267 q 165 253 165 261 q 164 246 165 249 q 165 213 164 239 q 166 158 165 188 q 167 103 167 129 q 168 71 168 78 q 167 64 167 69 q 165 58 167 61 l 165 46 q 155 34 163 44 q 144 22 147 24 q 135 14 142 19 q 121 2 129 8 q 105 -10 113 -4 q 94 -19 97 -17 l 81 -25 q 72 -24 78 -25 q 64 -24 67 -24 q 59 -23 61 -24 q 54 -22 57 -22 q 50 -21 51 -22 l 44 -14 q 44 -6 44 -12 q 44 10 44 1 q 43 27 44 18 q 40 40 42 36 q 40 51 40 42 q 40 69 40 60 q 41 88 40 79 q 42 100 42 97 q 42 112 42 104 q 42 128 42 119 q 41 145 42 138 q 39 156 40 153 q 38 176 39 163 q 38 205 38 190 q 38 231 38 219 q 38 246 38 243 q 35 272 38 254 q 32 307 33 289 q 28 340 31 325 q 26 360 26 356 q 25 379 26 365 q 22 408 24 393 q 18 435 19 422 q 15 453 17 449 q 13 466 15 456 q 9 488 11 476 q 5 510 7 499 q 3 525 3 521 q 10 529 8 525 q 12 536 11 531 q 13 548 13 542 q 14 560 14 554 q 14 567 14 565 q 23 575 17 567 q 32 585 29 583 q 50 600 43 593 q 61 605 51 600 q 74 613 71 610 q 78 614 75 614 q 83 615 81 614 q 90 617 88 615 q 94 615 92 615 q 99 615 97 615 q 103 614 100 614 l 111 614 q 118 607 114 613 q 125 597 122 601 q 128 590 125 596 q 134 578 131 585 q 140 566 138 572 q 142 558 142 560 q 153 540 144 551 q 161 526 161 529 q 171 513 163 524 q 190 491 179 503 q 209 467 200 479 q 222 449 218 456 q 250 417 231 440 q 291 366 269 393 q 332 315 313 339 q 360 281 351 290 l 360 285 l 361 288 q 360 302 361 292 q 357 324 358 313 q 354 344 356 335 q 353 357 353 354 q 350 401 353 367 q 344 477 347 436 q 339 553 342 518 q 335 597 336 588 q 333 610 335 604 q 332 619 332 614 q 321 622 332 619 q 311 626 315 624 q 304 639 301 629 l 304 642 q 304 647 304 647 l 304 656 q 306 660 304 658 q 311 670 307 663 q 318 681 315 678 q 322 688 318 683 q 326 694 326 692 q 335 707 329 699 q 343 714 342 715 q 360 729 347 721 q 379 742 372 738 q 389 747 383 744 q 401 753 400 753 q 410 757 404 754 q 418 758 415 760 l 421 758 q 424 758 422 758 q 428 757 425 757 l 435 757 l 440 757 q 447 749 443 756 q 453 739 451 742 q 454 729 453 735 q 457 717 457 718 q 459 699 457 714 q 460 678 461 685 q 462 648 460 672 q 465 594 464 624 q 468 540 467 565 q 469 510 469 515 q 472 491 471 503 q 474 467 474 479 q 476 445 475 454 q 476 435 476 436 q 484 372 479 414 q 496 278 489 331 q 510 167 503 225 q 525 58 518 110 q 538 -36 532 6 q 546 -97 543 -78 l 544 -104 q 543 -114 544 -110 q 535 -126 543 -117 q 526 -139 528 -136 q 519 -145 525 -140 q 506 -156 513 -150 q 492 -166 499 -161 q 485 -172 486 -171 q 470 -178 482 -175 q 453 -185 458 -182 q 448 -184 450 -185 q 444 -183 446 -183 l 438 -182 q 428 -169 435 -179 q 419 -157 422 -160 q 408 -134 415 -151 q 392 -97 400 -117 q 376 -60 383 -78 q 364 -36 368 -43 l 351 -35 l 331 -200 l 321 -219 q 321 -203 321 -215 q 322 -179 321 -192 q 322 -155 322 -167 q 321 -139 322 -143 q 325 -108 322 -129 q 331 -62 328 -86 q 336 -17 333 -39 q 340 13 339 4 l 335 26 z "},"A":{"ha":476,"x_min":3,"x_max":550,"o":"m 242 178 q 239 163 242 174 q 236 147 236 151 q 231 144 233 147 q 228 140 229 140 q 226 120 228 135 q 224 89 225 106 q 222 56 224 72 q 221 35 221 40 q 216 13 218 29 q 211 -10 214 -4 q 207 -25 211 -14 q 203 -40 203 -36 l 203 165 q 191 168 199 165 q 176 174 183 171 q 161 178 168 176 q 153 178 154 179 q 146 167 150 172 q 136 147 139 154 q 128 127 133 142 q 121 110 124 113 q 120 103 121 108 q 118 91 119 97 q 116 79 117 85 q 115 72 115 74 q 112 65 115 69 q 108 57 108 60 q 97 48 104 54 q 83 34 90 42 q 69 20 76 26 q 61 14 63 14 l 33 -3 l 28 -3 l 24 -3 q 16 1 21 -3 q 8 7 11 4 q 6 11 7 8 q 3 19 3 17 l 3 28 l 3 35 q 6 51 3 39 q 8 65 8 64 q 17 85 11 71 q 28 116 22 100 q 38 146 33 132 q 46 164 43 160 l 46 178 q 28 180 42 178 q 8 185 14 182 q 6 193 8 188 q 3 201 3 199 l 3 203 l 3 210 q 6 222 3 211 q 8 232 7 228 l 61 285 q 68 286 63 285 q 80 290 74 288 q 92 294 86 292 q 99 297 97 296 q 106 314 99 300 q 115 335 113 328 q 123 363 117 343 q 137 404 129 382 q 150 445 144 426 q 158 472 156 464 q 162 481 160 474 q 166 496 164 488 q 170 512 168 504 q 174 522 172 519 q 178 538 175 528 q 183 558 181 549 q 188 576 186 568 q 190 585 190 583 q 191 610 190 586 q 192 663 192 635 q 193 716 193 692 q 193 743 193 740 q 199 758 196 746 q 204 772 203 769 q 211 786 204 774 q 221 803 218 799 q 227 814 221 806 q 236 824 233 822 q 238 829 236 826 q 242 835 240 832 q 259 846 247 839 q 274 856 271 853 q 282 858 276 857 q 296 861 290 861 l 303 861 l 311 861 l 317 856 l 317 822 l 317 786 q 316 778 317 786 q 314 762 315 771 q 312 744 313 753 q 311 735 311 736 l 311 722 l 311 706 q 312 683 311 703 q 313 638 313 663 q 315 593 314 614 q 317 569 317 572 q 320 550 317 565 q 324 532 324 535 q 332 506 326 525 q 340 478 338 486 q 347 455 342 471 q 359 421 353 439 q 371 387 365 403 q 378 365 376 371 q 385 347 379 361 q 392 328 390 333 q 401 310 394 321 q 408 297 408 300 q 422 291 411 297 q 436 285 433 285 q 442 280 439 282 q 446 276 446 278 q 443 246 443 268 q 446 215 443 224 q 450 206 446 215 q 460 185 454 197 q 472 160 465 172 q 483 140 479 147 q 492 115 485 138 q 509 65 500 92 q 526 14 518 38 q 535 -11 533 -10 q 543 -28 538 -21 q 550 -39 546 -33 l 550 -56 l 550 -69 q 542 -84 547 -72 q 535 -101 538 -96 q 528 -108 533 -103 q 517 -119 524 -112 q 506 -131 511 -125 q 497 -139 500 -136 q 489 -142 494 -139 q 481 -144 483 -144 l 463 -144 l 443 -144 q 429 -135 442 -144 q 413 -124 417 -126 q 409 -112 413 -121 q 406 -101 406 -104 l 406 -76 l 400 -65 q 396 -56 397 -61 q 392 -49 394 -51 q 368 4 382 -33 q 339 81 354 42 q 303 178 322 126 l 242 178 m 221 360 q 211 335 218 353 q 204 314 204 318 q 203 306 204 311 q 203 297 203 300 l 211 297 q 231 302 215 300 q 249 307 246 304 l 249 310 l 249 314 q 242 335 249 318 q 236 360 236 353 q 231 366 233 360 q 228 372 229 372 l 221 360 z "},"X":{"ha":622,"x_min":-37,"x_max":631,"o":"m 563 13 q 561 -1 563 8 q 559 -19 560 -10 q 557 -37 558 -29 q 556 -47 556 -46 q 552 -65 556 -53 q 546 -79 549 -76 l 538 -72 l 538 3 q 524 8 535 6 q 508 13 513 10 l 501 19 l 501 71 q 499 78 500 74 q 496 88 496 86 q 482 103 490 93 q 471 115 474 113 q 456 135 468 121 q 428 163 443 149 q 401 190 414 178 q 383 207 388 203 q 364 222 381 208 q 338 244 347 236 q 315 262 329 251 q 300 275 301 272 q 292 278 297 275 q 283 282 286 282 l 281 282 l 276 282 l 271 275 q 263 264 268 272 q 256 253 258 256 q 248 242 253 250 q 238 224 243 233 q 226 204 232 214 q 218 190 221 194 q 205 170 214 185 q 196 153 196 156 q 190 143 193 150 q 183 129 186 136 q 176 116 179 122 q 171 108 172 110 l 171 94 q 167 83 171 92 q 164 71 164 74 q 157 61 163 69 q 150 50 151 53 q 133 33 144 46 q 118 19 121 21 q 111 15 117 18 q 99 8 106 11 q 85 1 92 4 q 75 -4 78 -3 l 68 -4 l 58 -4 q 51 3 56 -4 q 43 13 46 10 l 43 21 l 43 33 q 48 45 46 36 q 51 57 50 54 q 58 72 53 61 q 70 94 64 83 q 81 117 76 106 q 89 132 86 128 q 98 149 89 133 q 113 169 107 164 q 133 202 118 179 q 164 251 147 225 q 196 301 181 278 q 218 333 211 324 l 208 344 l 14 483 q -6 488 10 483 q -24 494 -21 492 q -27 497 -25 494 q -32 500 -29 500 q -35 511 -32 503 q -37 521 -37 519 l -37 533 l -37 544 q -31 560 -37 549 q -24 575 -25 572 q -7 593 -21 578 q 14 613 7 608 q 19 615 15 614 q 25 618 22 617 q 31 619 28 619 q 42 624 33 621 q 51 628 50 628 l 56 628 l 58 628 q 67 624 61 628 q 75 619 72 621 l 293 463 l 300 463 l 308 463 q 314 469 311 465 q 318 474 317 472 q 321 478 319 476 q 340 500 325 482 q 373 540 354 518 q 408 585 392 563 q 433 619 425 607 q 447 638 438 626 q 458 650 456 650 q 459 657 458 651 q 461 669 460 663 q 463 681 463 675 q 464 688 464 686 q 467 695 464 690 q 471 703 471 700 q 481 714 474 706 q 488 725 488 722 q 494 733 489 728 q 501 740 500 738 q 513 747 504 740 q 525 757 522 754 q 528 758 526 758 q 532 760 531 758 q 539 763 535 761 l 551 763 l 563 763 q 572 756 567 763 q 576 746 576 749 q 578 738 576 742 q 581 725 581 729 q 578 711 581 719 q 576 703 576 706 q 569 683 576 700 q 556 657 561 667 q 551 650 554 656 q 543 638 547 644 q 536 626 539 632 q 533 619 533 621 q 532 610 532 618 q 532 594 532 603 q 533 577 532 585 q 533 569 533 569 q 531 556 532 565 q 528 535 529 546 q 526 515 528 525 q 525 500 525 504 q 520 472 524 492 q 513 428 517 451 q 506 385 510 406 q 501 357 503 365 q 499 338 501 349 q 496 328 497 332 l 483 328 q 484 341 483 332 q 485 360 485 350 q 487 381 486 371 q 488 394 488 390 q 490 415 488 399 q 495 448 493 431 q 499 481 497 465 q 501 500 501 496 q 504 515 503 504 q 506 535 506 525 q 508 556 507 546 q 508 569 508 565 l 508 578 l 508 590 l 504 586 q 503 583 503 585 q 501 582 503 582 q 501 574 501 581 q 499 559 500 567 q 497 545 497 551 q 496 538 496 539 q 486 522 493 533 q 476 507 479 511 l 476 544 q 471 542 475 544 q 464 538 467 540 q 450 519 461 533 q 426 489 439 506 q 401 456 414 472 q 383 432 389 440 q 376 420 381 429 q 368 408 371 411 l 375 403 l 458 333 q 471 323 463 331 q 488 307 479 315 q 506 291 497 299 q 518 282 514 283 l 556 244 q 575 222 561 239 q 593 200 589 206 q 610 175 599 193 q 625 153 622 157 q 628 142 625 150 q 631 132 631 133 l 631 113 l 631 94 q 628 83 631 92 q 625 71 625 74 q 615 61 622 69 q 608 50 608 53 q 606 45 607 47 q 603 40 604 43 q 600 33 601 36 l 588 -318 l 576 -304 q 574 -219 575 -261 q 572 -147 572 -183 q 571 -85 571 -110 l 571 13 l 563 13 z "},"O":{"ha":519,"x_min":6,"x_max":524,"o":"m 261 8 q 258 -7 260 4 q 253 -29 256 -18 q 248 -51 250 -40 q 244 -67 246 -62 q 242 -74 244 -68 q 239 -81 239 -79 l 232 -81 l 231 -81 q 227 -71 231 -79 q 224 -60 224 -62 q 221 -44 222 -56 q 219 -21 219 -33 q 217 2 218 -8 q 214 15 215 13 q 192 24 208 18 q 169 32 175 29 q 163 35 168 32 q 156 40 157 38 q 149 44 153 42 q 142 49 146 46 q 132 53 136 51 q 120 65 129 57 q 102 83 111 74 q 85 102 93 93 q 74 115 76 111 q 65 124 71 115 q 57 138 60 133 q 51 147 54 140 q 44 160 47 153 q 39 174 42 168 q 36 182 36 181 q 28 202 33 183 q 19 228 22 221 q 16 243 18 232 q 11 257 14 254 q 8 288 11 267 q 6 315 6 310 l 6 344 l 6 369 q 6 382 6 372 q 8 402 7 392 q 10 423 10 413 q 11 438 11 433 q 16 458 14 443 q 19 475 18 472 q 24 490 21 479 q 31 510 28 500 q 38 531 35 521 q 43 544 42 540 q 51 561 44 549 q 65 588 57 574 q 78 615 72 603 q 86 632 83 628 q 93 642 88 633 q 105 659 99 650 q 117 676 111 668 q 124 683 122 683 q 129 693 126 686 q 132 700 131 697 l 132 746 l 139 758 q 151 771 143 763 q 167 788 158 779 q 183 803 175 796 q 193 813 190 810 q 208 822 197 815 q 224 828 219 828 l 244 828 l 268 828 q 284 822 272 828 q 299 813 296 815 q 313 799 301 810 q 337 776 324 789 q 362 750 350 763 q 381 732 374 738 q 390 717 382 729 q 401 700 399 706 q 410 689 404 697 q 418 678 415 681 q 431 657 422 671 q 439 640 439 643 q 447 625 440 636 q 459 602 453 614 q 470 580 465 590 q 476 565 475 569 q 485 547 479 563 q 493 528 490 532 q 500 506 494 522 q 507 482 506 489 q 512 467 510 479 q 514 453 514 456 q 520 426 517 443 q 524 407 524 408 l 524 357 l 524 303 q 520 286 524 300 q 514 265 517 272 q 512 248 514 260 q 507 233 510 236 q 504 224 507 232 q 501 213 501 215 q 494 199 499 208 q 484 180 489 189 q 475 163 479 171 q 469 153 471 154 q 460 135 468 147 q 449 121 451 124 q 437 110 444 118 q 421 94 429 103 q 405 78 413 86 q 394 69 397 71 q 389 64 394 68 q 376 55 383 60 q 363 46 369 50 q 351 40 356 42 q 346 37 350 39 q 336 32 342 35 q 326 27 331 29 q 319 25 321 25 q 314 15 314 25 q 311 -30 313 3 q 309 -99 310 -62 q 307 -169 308 -136 q 306 -217 306 -203 q 304 -231 306 -222 q 301 -247 303 -239 q 299 -268 300 -257 l 289 -268 l 276 8 l 261 8 m 124 357 q 127 337 124 351 q 132 315 131 322 q 140 293 135 310 q 149 271 146 276 q 160 249 151 267 q 169 228 168 232 q 181 212 172 222 q 193 196 190 201 l 224 165 q 232 161 228 164 q 238 156 235 158 q 244 153 242 154 q 253 147 247 150 q 261 144 258 144 q 272 140 264 142 q 282 138 281 138 l 319 138 l 357 138 q 369 149 360 140 q 381 158 378 157 q 388 172 382 161 q 394 190 393 183 q 399 201 397 193 q 401 213 401 210 q 404 223 403 214 q 406 244 406 232 q 408 269 407 257 q 411 288 410 281 l 411 290 l 411 294 q 408 310 410 300 q 406 332 407 321 q 404 351 406 343 q 401 363 403 360 q 398 377 401 365 q 394 394 394 389 q 388 416 393 399 q 381 438 382 433 q 372 458 378 443 q 364 475 367 472 q 358 490 363 479 q 347 513 353 501 q 334 535 340 524 q 326 550 328 546 q 315 569 324 556 q 306 588 307 583 q 294 602 303 590 q 282 619 285 614 q 275 626 281 619 q 268 632 269 632 l 261 619 q 255 605 258 614 q 251 594 251 596 q 250 573 251 590 q 248 535 249 556 q 246 497 247 515 q 244 475 244 479 q 242 453 244 471 q 239 432 239 436 q 233 453 236 436 q 231 475 231 471 q 229 512 231 485 q 227 569 228 539 q 225 625 226 599 q 224 663 224 651 l 214 663 l 207 663 q 197 653 206 663 q 186 640 189 644 q 175 624 183 638 q 161 603 167 610 q 158 595 161 600 q 156 588 156 590 q 151 573 154 583 q 144 552 147 563 q 137 532 140 542 q 132 519 133 522 q 127 500 131 514 q 124 482 124 486 l 124 419 l 124 357 z "},"B":{"ha":731,"x_min":6,"x_max":781,"o":"m 394 -3 l 381 -12 q 377 -35 381 -18 q 374 -57 374 -51 q 370 -64 374 -58 q 364 -71 367 -69 l 361 -71 l 357 -71 q 356 -60 357 -68 q 354 -44 356 -53 q 352 -29 353 -36 q 351 -19 351 -22 q 343 -12 347 -12 q 335 -11 342 -11 q 320 -11 328 -11 q 306 -12 313 -11 q 299 -12 300 -12 q 276 -8 294 -10 q 251 -3 258 -6 q 240 1 249 -3 q 231 4 232 4 q 219 8 228 4 q 200 18 210 13 q 181 28 190 24 q 169 35 172 33 l 168 35 l 161 35 q 144 25 158 32 q 124 18 129 18 l 119 18 l 118 18 q 108 26 115 21 q 101 35 101 32 l 101 43 l 101 56 q 103 63 101 57 q 106 76 104 69 q 110 88 108 82 q 111 93 111 93 l 111 163 l 111 229 q 94 238 103 232 q 85 238 92 238 q 69 240 78 239 q 52 242 60 242 q 43 243 44 243 q 35 250 40 243 q 26 260 29 257 l 26 267 l 26 275 q 35 290 29 279 q 43 304 40 301 q 52 315 44 307 q 68 331 60 322 q 84 346 76 339 q 94 356 92 353 l 94 367 q 78 450 86 410 q 63 521 71 485 q 49 581 54 557 q 46 597 49 586 q 43 613 43 607 q 40 624 43 615 q 36 635 36 632 q 31 644 35 638 q 24 658 28 651 q 16 672 19 665 q 11 681 13 678 q 8 692 11 683 q 6 704 6 701 l 6 725 l 6 747 q 12 762 6 750 q 19 779 18 774 q 33 792 22 781 q 49 806 44 804 q 63 817 54 811 q 74 822 71 822 l 89 822 l 111 822 l 114 819 q 117 818 114 818 q 118 817 118 818 q 121 808 118 814 q 124 800 124 803 q 128 788 125 797 q 136 769 132 779 q 144 750 140 758 q 149 742 147 742 q 160 727 149 739 q 176 710 171 715 q 190 701 181 707 q 209 688 199 696 q 230 674 219 681 q 244 667 240 668 q 256 660 247 664 q 274 651 264 656 q 292 642 283 646 q 306 635 301 638 q 335 624 313 632 q 364 613 357 615 q 389 605 368 610 q 418 597 410 600 q 432 594 422 596 q 451 589 442 592 q 467 584 460 586 q 476 581 475 582 q 499 577 483 581 q 533 570 515 574 q 567 564 551 567 q 589 560 583 561 q 596 557 593 560 l 599 554 l 599 538 l 599 522 q 595 514 599 519 q 589 506 592 508 q 580 496 586 503 q 567 482 574 489 q 553 469 560 475 q 544 463 547 464 q 539 458 544 461 q 526 452 533 456 q 513 445 519 449 q 501 442 506 442 q 487 435 499 440 q 463 425 475 431 q 439 415 450 419 q 426 410 428 411 q 402 399 419 407 q 381 388 385 390 l 394 388 l 411 388 q 422 388 414 388 q 440 390 431 389 q 458 392 450 392 q 469 393 467 393 q 493 396 476 394 q 528 399 510 397 q 561 401 546 400 q 582 404 576 403 l 611 404 l 636 404 q 649 401 639 403 q 669 399 658 400 q 691 396 681 397 q 706 393 701 394 l 714 390 q 726 388 722 388 q 743 379 735 382 q 753 367 744 376 q 764 356 761 358 q 767 349 765 351 q 767 347 767 347 q 768 344 768 346 q 769 342 768 343 q 775 327 772 339 q 781 313 778 315 l 781 300 l 781 292 q 775 274 778 286 q 769 260 772 263 q 760 238 768 256 q 749 213 751 219 q 740 201 746 210 q 732 192 735 193 q 719 177 729 188 q 696 155 708 167 q 672 132 683 143 q 657 117 661 121 q 644 105 656 114 q 631 93 632 96 q 609 83 625 92 q 589 72 593 75 q 578 65 586 69 q 560 57 569 61 q 542 48 551 53 q 531 42 533 43 q 513 33 528 39 q 493 25 497 28 q 479 21 489 24 q 459 15 469 18 q 440 8 449 11 q 426 4 431 4 q 421 -26 424 -4 q 418 -57 418 -49 q 416 -92 418 -64 q 411 -154 414 -121 q 406 -216 408 -187 q 401 -253 403 -244 q 400 -266 401 -257 q 398 -285 399 -275 q 396 -303 397 -294 q 394 -312 394 -311 q 392 -324 394 -315 q 389 -333 389 -332 q 388 -316 389 -329 q 388 -289 388 -303 q 387 -262 388 -275 q 386 -244 386 -249 q 387 -222 386 -236 q 388 -192 388 -207 q 388 -167 388 -178 q 389 -153 389 -156 q 390 -133 389 -150 q 392 -98 390 -117 q 394 -62 393 -79 q 394 -40 394 -44 l 394 -21 l 394 -3 m 411 275 q 408 259 411 269 q 401 243 404 249 q 398 236 401 242 q 394 229 394 231 q 388 228 393 225 l 382 231 l 382 275 l 374 275 q 351 270 369 272 q 326 267 333 268 q 309 263 321 265 q 285 258 297 261 q 263 253 274 256 q 251 250 253 251 q 244 248 249 250 q 239 243 239 246 l 239 168 q 249 160 243 164 q 268 147 260 151 q 281 139 272 144 q 289 131 289 133 q 306 124 293 129 q 319 117 318 118 q 326 115 322 117 q 333 113 329 114 q 343 110 339 111 l 382 110 l 426 110 q 442 113 435 111 q 455 115 449 114 q 464 117 461 117 q 479 120 468 118 q 493 125 490 122 q 519 133 503 128 q 539 138 536 138 q 554 145 543 139 q 576 158 565 151 q 599 169 588 164 q 614 175 610 174 q 626 186 614 178 q 643 200 638 194 q 647 203 644 200 q 651 206 649 206 q 654 214 651 208 q 657 222 657 219 l 657 238 l 657 250 q 649 263 657 253 q 636 275 642 272 q 625 278 633 275 q 614 281 617 281 l 449 281 q 448 257 449 274 q 446 222 447 240 q 442 185 444 203 q 439 163 440 168 q 435 145 439 157 q 432 131 432 133 q 431 141 432 133 q 429 157 431 149 q 427 173 428 165 q 426 185 426 181 q 424 201 425 189 q 421 228 422 214 q 419 256 419 243 q 418 275 418 269 l 411 275 m 364 388 q 358 380 358 388 q 364 372 358 372 q 371 380 371 372 q 364 388 371 388 m 214 425 q 219 420 217 422 q 224 417 221 418 l 226 417 l 231 417 q 243 420 235 418 q 251 425 251 422 q 271 433 257 426 q 299 447 285 439 q 326 460 314 454 q 343 468 339 465 q 347 472 344 468 q 351 479 349 476 l 214 522 l 199 522 l 199 500 q 202 485 200 496 q 206 462 204 474 q 210 440 208 450 q 214 425 213 429 z "},"Y":{"ha":685,"x_min":-1,"x_max":817,"o":"m 217 -36 q 208 -33 214 -36 q 200 -29 203 -29 q 195 -24 199 -26 q 192 -19 192 -22 l 192 -11 l 192 1 q 199 16 194 4 q 207 31 204 28 q 222 48 211 36 q 238 63 233 60 q 252 70 240 64 q 269 76 264 76 q 282 78 271 76 q 306 80 293 79 q 330 82 318 81 q 344 83 342 83 q 366 88 349 86 q 388 93 383 90 l 388 101 l 388 114 q 387 124 388 117 q 385 141 386 132 q 383 158 383 150 q 382 168 382 165 q 379 181 381 171 q 376 201 378 190 q 374 221 375 211 q 374 233 374 231 q 370 253 374 238 q 367 271 367 268 q 353 258 363 268 q 334 238 344 249 q 313 218 324 228 q 299 206 303 208 q 291 200 297 204 q 278 191 285 196 q 264 181 271 186 q 254 175 257 176 q 238 168 251 175 q 224 158 225 161 l 217 151 q 212 122 214 144 q 207 93 210 100 q 206 84 207 89 q 203 74 204 79 q 200 63 201 68 l 192 63 l 192 151 l 186 151 l 169 108 q 165 111 167 110 q 163 114 163 114 q 161 122 163 115 q 159 134 160 128 q 157 146 158 140 q 154 151 156 151 q 148 156 154 153 q 133 163 142 160 q 118 170 125 167 q 111 175 111 174 q 102 183 108 176 q 89 197 96 189 q 76 211 82 204 q 67 221 69 218 q 56 238 64 221 q 42 264 47 254 q 39 276 42 267 q 36 288 36 285 q 31 305 33 294 q 29 318 29 315 l 13 521 q 5 528 11 521 q -1 538 -1 535 l -1 546 l -1 558 q 1 573 -1 561 q 4 588 4 585 q 9 595 7 589 q 13 601 11 601 q 22 613 15 606 q 36 627 29 619 q 49 641 43 635 q 57 650 56 647 q 72 657 60 651 q 88 663 83 663 l 93 663 q 97 663 96 663 q 100 664 99 664 l 111 663 q 118 657 115 660 q 122 652 121 654 q 125 650 124 650 q 132 639 126 643 q 136 633 135 636 l 136 414 q 140 399 138 406 q 144 386 143 392 q 149 376 146 381 q 151 364 149 371 q 156 350 153 357 q 163 333 158 342 q 169 322 163 331 q 179 308 176 313 l 200 288 q 207 283 203 285 q 217 281 215 281 q 228 276 219 278 q 238 271 236 274 l 244 271 l 254 271 q 260 276 254 274 q 269 281 267 278 q 276 288 269 283 q 282 296 282 293 q 288 306 283 297 q 299 323 293 314 q 308 342 304 332 q 313 356 313 351 q 321 375 315 358 q 329 400 326 392 q 331 410 329 401 q 336 428 333 418 q 341 449 339 439 q 344 463 343 458 q 347 481 344 467 q 350 500 350 494 q 351 512 350 503 q 353 531 353 521 q 356 551 354 542 q 357 564 357 561 q 360 588 358 568 q 364 632 363 608 q 366 676 365 656 q 367 700 367 696 q 368 715 367 704 q 370 735 369 725 q 372 755 371 746 q 374 768 374 764 q 376 779 374 771 q 382 789 379 788 q 385 799 382 790 q 388 806 386 803 q 400 818 392 810 q 417 834 408 826 q 432 849 425 842 q 442 858 439 856 l 450 861 q 463 864 458 864 l 467 864 l 469 864 q 479 861 471 864 q 486 858 482 860 q 490 851 488 856 q 494 843 492 846 l 494 800 l 494 751 q 492 716 493 744 q 489 655 490 688 q 487 594 488 622 q 486 558 486 565 l 486 468 l 486 383 q 487 362 486 378 q 489 328 488 346 q 492 294 490 310 q 494 271 493 278 q 497 253 494 268 q 501 219 499 238 q 505 186 503 201 q 507 168 507 171 q 509 155 507 165 q 511 139 511 144 q 508 124 511 135 q 507 114 507 118 q 505 104 507 113 q 500 93 503 96 q 542 90 513 92 q 603 88 571 89 q 664 86 635 88 q 704 83 693 85 q 728 81 710 83 q 757 76 747 79 q 772 74 760 76 q 786 71 783 71 q 794 66 788 68 q 800 63 800 64 q 810 54 803 60 q 817 46 817 49 l 817 31 l 817 8 q 814 1 815 4 q 811 -7 811 -7 q 802 -15 808 -10 q 788 -28 796 -21 q 774 -42 781 -36 q 763 -50 767 -49 q 756 -53 761 -50 q 749 -57 750 -57 q 742 -60 744 -58 q 732 -61 738 -61 q 725 -60 728 -61 l 719 -57 q 708 -51 717 -57 q 699 -44 703 -49 q 681 -39 693 -42 q 667 -36 669 -36 l 486 -36 q 485 -56 486 -42 q 483 -85 483 -69 q 481 -114 482 -100 q 479 -132 479 -128 q 476 -145 479 -136 q 469 -157 472 -154 q 469 -142 469 -153 q 467 -122 468 -132 q 465 -101 467 -111 q 463 -87 464 -92 q 461 -74 461 -82 q 460 -57 461 -65 q 457 -36 458 -47 l 444 -36 l 444 -149 l 432 -162 q 428 -149 432 -161 q 425 -132 425 -136 q 424 -114 425 -128 q 422 -85 424 -100 q 420 -56 421 -69 q 419 -36 419 -42 l 217 -36 z "},"P":{"ha":568,"x_min":-99,"x_max":715,"o":"m 329 172 q 330 198 331 179 q 329 221 329 217 q 318 218 326 221 q 308 213 310 215 q 298 209 306 211 q 281 204 290 207 q 265 199 272 201 q 253 196 257 196 q 238 189 250 193 q 224 182 226 185 q 219 162 221 176 q 214 131 217 147 q 208 101 211 115 q 204 81 206 86 q 204 70 204 78 q 203 53 204 63 q 202 37 203 44 q 200 26 201 29 q 197 17 200 25 q 192 7 194 8 q 183 -6 189 3 q 175 -17 176 -14 q 160 -31 172 -19 q 143 -43 147 -42 q 131 -50 140 -44 q 118 -56 122 -56 q 108 -58 113 -57 q 96 -61 97 -61 l 92 -60 l 89 -60 q 79 -51 86 -58 l 74 -46 l 92 165 q 81 165 89 164 q 65 169 74 167 q 50 173 57 171 q 42 178 43 175 q 31 188 39 179 q 19 200 22 197 q 21 206 21 203 q 21 213 21 210 q 22 219 21 215 q 22 225 22 222 q 30 239 22 228 q 42 253 38 250 q 49 262 43 256 q 61 274 54 268 q 74 286 68 281 q 82 294 79 292 q 78 310 79 299 q 75 325 78 322 q 73 342 75 331 q 68 365 71 353 q 63 388 65 378 q 61 401 61 399 q 52 431 58 408 q 43 461 46 454 q 40 475 43 465 q 32 496 36 485 q 24 517 28 507 q 18 532 19 528 q 14 550 19 538 q 6 565 8 563 q -2 583 6 568 q -12 604 -10 597 q -19 616 -15 607 q -26 628 -24 625 q -37 640 -29 631 q -47 650 -44 649 q -59 665 -49 654 q -72 676 -69 676 q -78 681 -75 678 q -81 686 -82 683 q -87 697 -83 689 q -94 710 -92 706 q -97 721 -94 713 q -99 731 -99 729 q -94 742 -97 733 q -90 753 -92 750 q -82 765 -87 757 q -74 776 -76 774 q -55 790 -68 781 q -40 800 -42 799 q -25 809 -37 803 q -10 814 -12 815 l -1 814 l 6 814 q 13 810 8 813 q 21 807 18 807 q 31 795 22 804 q 48 776 39 786 q 65 757 57 765 q 75 747 72 749 q 89 738 78 744 q 104 729 100 732 q 126 719 110 726 q 147 708 142 713 q 161 705 151 708 q 183 699 171 701 q 206 692 194 696 q 221 689 217 689 q 253 682 231 688 q 282 676 275 676 q 331 669 292 675 q 414 658 369 664 q 498 645 458 651 q 547 636 538 639 q 561 634 551 636 q 581 630 571 632 q 602 626 592 628 q 617 625 613 625 l 628 619 q 644 614 639 614 q 658 610 649 614 q 669 604 667 606 q 683 595 672 601 q 693 586 693 589 q 701 578 696 585 q 708 571 706 572 l 713 563 l 715 557 q 714 543 714 554 q 714 525 714 532 q 711 508 713 521 q 710 494 710 496 l 707 486 q 703 479 706 483 q 700 472 701 475 q 691 457 697 468 q 681 443 685 446 q 670 430 679 440 q 658 417 661 419 q 638 400 651 411 q 611 376 625 389 q 585 353 597 364 q 571 340 574 343 q 561 335 569 340 q 542 324 553 331 q 520 312 531 318 q 504 301 510 306 q 492 295 501 300 q 479 289 482 290 q 459 278 476 286 q 422 260 442 269 q 385 243 403 251 q 361 233 367 235 q 358 228 361 231 q 356 225 356 226 q 352 204 354 218 q 349 175 350 190 q 346 146 347 160 q 344 128 344 132 q 344 113 344 124 q 342 90 343 101 q 341 67 342 78 q 340 53 340 57 q 331 -42 335 -15 q 325 -66 326 -68 q 323 -40 324 -64 q 323 16 322 -15 q 325 79 324 47 q 328 129 326 111 q 328 149 328 132 q 329 172 329 165 m 160 568 q 166 535 161 558 q 177 486 171 513 q 188 436 183 460 q 196 403 193 413 q 201 382 197 397 q 208 348 204 367 q 213 313 211 329 q 215 289 215 296 q 221 288 218 288 l 228 288 q 231 287 229 288 q 235 286 232 286 l 239 286 q 249 289 240 286 q 261 292 258 292 q 281 299 268 294 q 306 306 293 303 q 327 313 318 310 q 338 315 336 315 q 356 322 343 317 q 385 333 369 326 q 413 344 400 339 q 433 351 426 349 q 451 361 435 354 q 472 374 467 368 q 484 378 476 375 q 499 386 492 382 q 513 394 507 390 q 521 399 519 397 q 528 403 522 399 q 542 412 535 407 q 557 422 550 417 q 567 432 564 428 q 573 435 569 433 q 579 440 576 438 q 587 451 581 443 q 593 461 593 458 l 596 468 q 594 469 594 468 l 594 472 l 594 476 q 589 483 592 479 q 583 493 583 492 q 576 496 581 494 q 568 500 571 497 q 556 506 564 500 q 547 510 551 508 q 522 515 539 511 q 500 522 506 519 q 488 524 500 522 q 461 528 476 526 q 430 533 446 531 q 404 536 414 535 l 400 536 l 394 536 q 393 524 394 533 q 390 505 392 515 q 386 484 389 494 q 382 469 383 474 q 380 456 381 464 q 376 440 379 449 q 372 419 374 431 q 365 412 369 418 q 358 406 361 406 l 371 539 l 358 540 q 354 522 357 536 q 347 503 351 508 q 342 500 347 501 q 335 499 338 499 l 339 542 q 272 553 304 547 q 215 564 244 558 q 165 574 185 569 l 160 574 l 160 568 z "},"Z":{"ha":743,"x_min":-31,"x_max":819,"o":"m 321 -47 q 315 -46 315 -47 q 310 -34 313 -43 q 307 -22 307 -25 q 306 -11 307 -21 q 303 10 304 -1 q 301 32 303 22 q 300 46 300 42 q 297 57 300 49 q 290 67 293 65 l 288 67 l 283 67 q 281 51 283 63 q 278 36 278 40 q 273 30 275 36 q 269 21 271 24 l 253 67 l 233 67 l 203 67 q 178 64 196 67 q 157 58 161 61 q 135 53 151 58 q 113 46 118 49 q 96 38 108 43 q 70 28 83 33 q 44 17 57 22 q 28 8 32 11 l 19 4 q 11 6 14 4 q 7 8 8 7 l 0 15 q -3 19 -1 17 q -4 28 -4 22 l -4 29 q -3 32 -4 31 q 0 36 -1 33 q 5 53 0 40 q 13 67 10 65 l 390 442 l 403 465 l 396 465 l 390 465 q 374 462 385 465 q 358 458 364 458 q 328 447 350 454 q 281 432 306 440 q 233 416 256 424 q 203 404 211 408 q 183 397 197 403 q 163 390 168 392 q 156 386 160 390 l 153 383 l 153 261 l 138 271 l 138 374 q 133 360 138 371 q 125 346 128 349 q 123 341 125 343 q 119 336 121 339 q 116 341 119 339 q 113 346 113 343 q 108 352 110 346 q 103 361 106 358 l 96 361 l 88 361 q 78 358 86 360 q 62 353 71 356 q 46 348 53 350 q 38 346 39 346 q 18 339 28 340 q 7 336 13 338 l -6 336 l -17 336 q -24 344 -18 339 q -31 353 -31 350 l -31 358 l -31 367 q -28 381 -31 369 q -25 390 -26 386 q -13 406 -22 394 q 0 421 -4 418 q 13 432 3 424 q 28 442 22 440 q 44 451 32 444 q 58 458 57 458 q 67 460 60 458 q 81 462 74 461 q 95 464 89 463 q 103 465 101 465 q 114 468 106 465 q 125 474 122 471 q 147 482 129 475 q 185 497 165 489 q 224 510 206 504 q 246 517 242 517 q 282 529 258 521 q 331 546 306 538 q 376 561 356 554 q 403 571 397 568 q 417 574 404 571 q 444 579 429 576 q 473 585 458 582 q 494 592 488 589 q 515 599 501 594 q 532 603 529 603 l 546 603 l 563 603 q 567 597 565 600 q 569 592 569 594 l 569 585 q 570 579 569 582 q 571 574 571 576 q 570 567 571 571 q 569 561 569 564 l 569 554 q 563 540 569 553 q 553 524 557 528 l 544 513 q 538 503 542 508 q 532 496 535 499 q 523 485 529 492 q 510 470 517 478 q 499 456 504 463 q 494 449 494 450 q 465 418 485 439 q 419 370 444 397 q 364 314 393 343 q 309 258 335 285 q 263 210 283 232 q 232 179 242 189 q 248 181 236 179 q 273 183 260 182 q 298 185 286 183 q 315 186 310 186 l 344 186 l 375 186 q 388 185 378 186 q 409 183 397 183 q 432 181 421 182 q 450 179 443 179 q 472 176 456 179 q 494 174 489 174 q 506 170 496 172 q 528 165 517 168 q 550 160 540 163 q 563 158 560 158 l 565 158 l 569 158 q 565 165 567 161 q 563 174 563 171 q 554 183 560 174 q 546 196 549 193 q 540 203 543 199 q 533 213 536 208 l 525 224 q 513 238 522 228 q 491 259 503 247 q 469 280 479 271 q 457 292 458 289 q 453 300 457 294 q 450 308 450 306 q 453 319 450 311 q 457 329 457 328 q 464 341 458 332 q 471 353 469 350 q 483 363 474 354 q 494 374 492 371 q 501 378 497 376 q 507 383 504 381 q 515 390 511 386 l 538 390 l 563 390 q 570 388 565 390 q 578 383 575 386 l 615 346 q 623 333 617 342 q 637 316 629 325 q 650 299 644 307 q 658 286 656 290 q 689 242 668 272 q 731 178 710 211 q 772 119 753 146 q 794 83 790 92 q 800 74 796 81 q 808 60 804 68 q 815 44 811 51 q 819 36 818 38 l 819 29 l 819 21 q 814 10 817 18 q 808 -1 811 1 q 799 -12 806 -4 q 783 -28 792 -19 q 767 -44 775 -36 q 757 -54 760 -51 q 747 -57 753 -56 q 733 -60 736 -60 l 725 -60 l 713 -60 q 688 -48 706 -57 q 652 -30 671 -39 q 617 -12 633 -21 q 594 -1 600 -4 q 579 5 590 0 q 556 14 568 10 q 533 22 544 18 q 515 29 521 26 q 508 31 514 29 q 493 36 501 33 q 477 42 485 39 q 465 46 469 44 q 450 49 460 47 q 431 53 440 51 q 413 57 421 56 q 403 58 404 58 q 393 61 400 60 q 378 64 386 63 q 362 66 369 65 q 353 67 354 67 q 335 66 347 67 q 321 65 324 65 l 321 -47 z "},"C":{"ha":617,"x_min":1,"x_max":685,"o":"m 369 -53 q 347 -47 365 -53 q 322 -37 329 -40 q 300 -26 317 -35 q 278 -15 283 -18 q 265 -8 275 -14 q 245 6 256 -1 q 224 19 235 13 q 210 29 214 26 q 201 35 207 31 q 190 45 196 40 q 178 54 183 50 q 172 60 174 58 l 60 172 l 51 183 q 45 192 49 188 q 39 200 42 197 q 31 213 36 204 q 22 225 25 222 l 15 238 q 13 250 15 240 q 7 263 10 260 q 4 279 7 265 q 1 292 3 285 l 1 318 l 1 343 q 4 359 1 349 q 7 375 7 369 q 15 392 10 381 q 27 416 21 404 q 38 438 33 428 q 44 450 43 447 q 57 462 47 451 q 78 484 67 472 q 101 508 90 496 q 119 525 113 519 q 131 533 122 528 q 144 542 140 539 q 167 551 150 543 q 189 563 183 560 q 213 571 196 565 q 235 579 229 576 q 250 580 239 579 q 274 582 261 581 q 299 584 288 583 q 315 585 311 585 q 314 604 314 590 q 315 622 314 618 q 322 638 315 628 q 332 654 329 649 q 350 672 335 658 q 369 692 365 686 l 397 706 l 407 706 l 414 706 q 421 702 415 704 q 428 697 426 700 l 435 692 q 438 685 436 689 q 442 678 440 682 q 444 668 443 672 q 452 655 447 664 q 460 643 457 646 q 480 622 464 638 q 514 589 496 607 q 549 554 532 571 q 572 531 565 538 q 581 524 574 531 q 598 510 589 518 q 615 496 607 503 q 626 488 624 489 q 637 477 629 485 q 652 461 644 469 q 667 445 660 453 q 676 435 674 438 q 681 426 678 432 q 685 418 685 421 q 681 410 682 414 q 678 403 679 407 q 676 397 676 400 q 675 392 676 394 q 672 388 674 390 q 669 381 671 383 q 661 373 667 378 q 649 362 656 368 q 638 350 643 356 q 632 343 633 344 q 617 336 629 342 q 601 329 606 331 l 590 329 l 578 329 q 568 336 575 331 q 553 348 561 342 q 537 360 544 354 q 526 367 529 365 q 501 384 518 374 q 482 397 485 394 q 460 408 478 400 q 435 418 442 417 q 413 426 429 421 q 390 435 396 432 l 378 435 l 378 360 l 365 360 l 365 442 l 353 442 q 346 422 351 436 q 339 404 340 408 l 332 397 q 327 408 329 400 q 322 418 325 417 q 319 438 322 424 q 315 456 315 451 q 294 461 311 458 q 272 467 276 464 l 228 467 l 189 467 q 179 463 185 465 l 165 456 q 149 449 161 454 q 135 442 138 443 l 128 435 q 123 426 126 432 q 119 418 119 421 l 119 379 l 119 343 q 126 332 122 338 q 131 324 129 328 q 135 317 133 319 q 143 302 138 311 q 151 292 149 293 q 158 283 153 289 q 170 269 164 276 q 182 256 176 263 q 189 247 188 250 q 198 236 190 243 q 214 221 206 229 q 230 205 222 213 q 240 193 238 197 q 250 185 243 190 q 265 172 257 179 q 282 158 274 164 q 294 150 290 151 q 308 138 297 147 q 322 125 319 129 q 333 118 326 122 q 348 110 340 114 q 362 102 356 106 q 369 97 368 99 q 390 86 372 94 q 414 75 408 78 q 420 72 417 74 q 426 69 424 71 l 435 67 l 464 67 l 489 67 q 492 69 490 67 q 497 75 494 72 l 503 88 q 508 103 506 92 q 510 118 510 114 q 513 128 511 121 q 517 145 515 136 q 519 162 518 154 q 519 172 519 169 q 523 188 519 178 q 526 200 526 197 q 530 210 528 203 q 535 217 532 217 q 542 226 536 219 q 556 240 549 233 q 569 253 564 247 q 578 263 575 260 q 585 265 581 264 q 594 268 593 268 q 601 271 597 269 q 607 275 604 272 q 615 279 611 278 q 625 271 618 276 q 632 263 632 265 l 632 235 l 632 210 q 629 190 632 207 q 626 163 626 172 q 621 149 624 160 q 615 135 618 138 q 609 117 615 131 q 601 97 603 103 q 594 81 601 93 q 585 67 588 68 q 580 55 585 64 q 572 43 575 46 q 558 27 567 39 q 547 13 550 15 l 535 0 q 520 -12 532 -3 q 503 -25 508 -21 q 497 -28 500 -26 q 490 -32 493 -29 l 482 -37 q 475 -41 481 -39 q 463 -46 469 -43 q 451 -51 457 -49 q 444 -53 446 -53 q 435 -58 442 -56 q 428 -62 428 -60 l 422 -75 q 417 -81 419 -78 q 414 -83 415 -83 q 412 -74 414 -82 q 407 -62 410 -65 q 404 -58 407 -58 l 403 -58 q 397 -62 401 -58 q 396 -97 397 -72 q 394 -151 394 -122 q 392 -206 393 -181 q 390 -240 390 -231 q 388 -265 390 -244 q 385 -294 385 -285 q 379 -315 382 -301 q 376 -332 376 -329 q 373 -339 376 -333 q 369 -346 369 -344 l 369 -53 l 369 -53 z "},"":{"ha":188,"x_min":-64,"x_max":221,"o":"m 103 -364 l 100 -364 q 99 -349 100 -361 q 96 -333 97 -336 q 95 -331 96 -332 q 94 -326 94 -329 q 93 -321 93 -324 q 86 -317 92 -319 q 79 -314 81 -314 q 74 -310 78 -312 q 69 -307 71 -308 l 46 -283 q 41 -278 44 -282 q 36 -271 38 -274 q 31 -262 35 -268 q 26 -254 28 -257 q 19 -240 24 -251 q 13 -226 15 -229 q 10 -219 13 -225 q 6 -210 7 -212 q 3 -200 6 -207 q 0 -190 0 -193 l -7 -190 l -14 -190 q -22 -192 -15 -190 q -31 -193 -29 -193 q -35 -194 -32 -194 q -40 -194 -39 -194 l -40 -190 l -40 -189 q -39 -185 -40 -186 q -37 -181 -39 -182 q -35 -176 -37 -179 q -31 -171 -32 -172 q -29 -168 -31 -171 q -28 -167 -29 -167 q -24 -165 -26 -167 q -21 -164 -22 -164 q -16 -162 -19 -162 q -11 -160 -12 -161 l -11 -131 l -17 -131 q -27 -132 -19 -131 q -37 -133 -35 -133 q -42 -135 -39 -135 q -46 -136 -43 -136 l -47 -136 q -50 -139 -47 -137 q -54 -140 -53 -140 l -57 -140 l -61 -140 q -62 -139 -62 -140 q -64 -136 -64 -137 l -64 -129 l -64 -124 q -61 -119 -64 -122 q -57 -114 -58 -115 q -50 -107 -54 -107 l -14 -100 q -12 -99 -14 -100 l -11 -97 q -8 -85 -10 -94 q -7 -74 -7 -75 q -6 -65 -7 -71 q -4 -57 -4 -60 q -2 -49 -3 -54 q 0 -43 -1 -44 q 3 -33 1 -40 q 6 -24 6 -25 q 14 -8 8 -21 q 22 10 19 6 q 26 15 24 11 q 29 19 28 18 q 36 28 32 22 q 43 38 40 35 q 47 40 44 38 q 50 43 49 43 q 55 47 51 44 q 60 50 58 49 q 67 53 63 51 q 74 57 72 56 q 79 58 75 57 q 86 60 83 60 l 90 60 l 93 60 q 102 58 96 60 q 110 57 108 57 q 116 54 111 57 q 124 50 121 51 q 128 47 125 49 q 133 43 132 44 q 147 30 136 40 q 160 17 157 19 q 165 10 161 15 q 169 3 168 6 q 177 -8 172 0 q 183 -17 182 -15 q 187 -24 185 -19 q 190 -31 189 -29 l 190 -39 l 190 -50 q 186 -60 190 -56 q 181 -72 185 -64 q 176 -81 178 -79 q 167 -90 174 -83 q 160 -97 161 -97 l 150 -97 q 149 -87 150 -94 q 146 -76 147 -79 q 144 -74 144 -75 q 144 -72 144 -72 q 143 -69 143 -71 q 136 -60 140 -67 q 129 -50 132 -53 q 123 -42 128 -47 q 117 -33 118 -36 l 103 -19 q 97 -15 101 -18 q 90 -10 92 -11 q 89 -10 89 -10 q 88 -11 89 -11 l 85 -11 q 85 -39 85 -18 q 86 -67 86 -60 q 85 -73 86 -68 q 83 -81 83 -78 q 81 -73 82 -78 q 79 -67 81 -68 q 76 -37 78 -60 q 74 -7 74 -14 l 68 -3 l 68 -50 l 63 -57 q 61 -50 63 -54 q 60 -43 60 -46 q 58 -24 58 -39 q 57 -3 57 -8 l 54 -3 l 53 -3 q 49 -5 51 -4 q 46 -7 47 -6 l 43 -10 q 42 -13 43 -11 q 40 -17 40 -15 q 36 -26 36 -21 q 34 -37 35 -29 q 33 -47 33 -44 q 33 -58 33 -49 q 32 -72 32 -68 q 33 -82 32 -75 q 33 -90 33 -89 l 36 -93 q 62 -94 43 -93 q 86 -97 81 -96 q 93 -99 89 -97 q 100 -100 97 -100 l 101 -101 q 103 -103 101 -103 l 103 -108 l 103 -114 l 100 -119 q 95 -126 99 -122 q 90 -131 92 -129 l 89 -131 l 86 -131 q 78 -128 85 -129 q 69 -126 71 -126 q 55 -127 67 -126 q 40 -128 43 -128 q 40 -133 40 -133 q 41 -138 40 -135 q 43 -143 42 -142 q 44 -147 43 -146 q 46 -150 44 -149 l 153 -150 q 157 -154 157 -150 q 156 -158 157 -157 q 153 -164 153 -164 q 151 -167 153 -165 q 150 -171 150 -169 l 140 -181 l 63 -181 l 61 -182 q 60 -183 60 -182 l 60 -185 l 60 -187 q 63 -194 60 -189 q 67 -200 65 -199 q 72 -210 68 -203 q 79 -221 76 -218 q 85 -228 82 -224 q 90 -233 89 -232 l 100 -243 q 105 -247 101 -244 q 110 -250 108 -249 q 116 -253 111 -251 q 124 -257 121 -256 q 128 -259 125 -258 q 133 -260 132 -260 l 136 -260 l 140 -260 q 145 -259 142 -260 q 150 -257 149 -258 q 153 -254 151 -257 q 157 -250 156 -251 q 163 -237 158 -247 q 169 -224 168 -228 q 172 -219 171 -224 q 174 -214 172 -215 q 178 -197 174 -211 q 183 -181 182 -183 q 188 -170 185 -178 q 193 -160 192 -162 q 203 -150 196 -157 q 214 -140 211 -143 l 215 -140 l 217 -140 l 218 -142 q 219 -143 218 -143 q 220 -147 219 -144 q 221 -151 221 -150 q 220 -154 221 -153 q 219 -157 219 -156 l 219 -160 q 217 -172 219 -162 q 214 -187 215 -182 q 210 -197 213 -189 q 207 -207 208 -204 q 203 -216 206 -210 q 200 -224 200 -222 q 188 -247 197 -229 q 176 -271 179 -265 q 174 -275 175 -274 q 171 -278 172 -278 q 169 -281 169 -279 q 165 -288 168 -283 q 160 -293 161 -293 q 153 -301 157 -296 q 146 -307 149 -306 q 136 -314 144 -308 q 126 -321 128 -319 l 124 -324 q 122 -352 122 -331 q 119 -381 121 -374 q 118 -390 119 -383 q 117 -400 117 -397 q 114 -408 115 -403 q 111 -414 113 -412 l 111 -324 l 103 -364 m 60 64 q 60 60 64 64 q 57 62 57 60 q 60 64 57 64 z "},"Q":{"ha":657,"x_min":0,"x_max":713,"o":"m 0 444 q 3 463 0 447 q 6 482 6 478 q 13 508 8 490 q 21 531 18 525 q 28 544 22 533 q 39 567 33 554 q 50 590 44 579 q 58 606 56 601 q 69 619 61 607 q 81 632 78 631 q 96 647 85 636 q 119 671 107 658 q 141 694 131 683 q 156 707 151 704 q 167 715 158 710 q 181 724 176 721 q 194 731 185 726 q 213 741 203 736 q 229 750 222 746 q 239 756 236 754 q 253 758 242 756 q 271 761 265 761 l 313 761 l 346 761 q 359 754 349 761 q 375 744 369 747 q 383 738 376 744 q 389 731 389 732 q 394 716 392 728 q 396 701 396 704 q 415 685 401 697 q 444 658 429 672 q 471 630 458 643 q 488 611 483 617 q 494 600 489 608 q 501 589 500 592 q 513 568 506 582 q 526 540 519 554 q 539 513 533 525 q 546 499 544 501 q 551 485 547 494 q 560 466 556 476 q 567 445 564 456 q 571 431 569 435 q 574 408 571 425 q 576 386 576 392 l 576 332 l 576 289 q 574 274 576 286 q 570 250 572 263 q 565 226 568 238 q 563 214 563 215 l 563 207 l 563 206 q 586 181 569 199 q 622 142 603 163 q 659 103 642 122 q 683 76 676 85 q 694 63 686 74 q 706 49 703 51 q 709 38 706 46 q 713 24 713 29 l 713 19 l 713 18 q 705 1 710 13 q 700 -14 700 -11 q 691 -20 697 -15 q 678 -31 685 -25 q 667 -43 672 -37 q 663 -51 663 -49 q 648 -59 660 -54 q 631 -64 636 -64 l 628 -67 q 621 -68 626 -68 l 614 -64 l 606 -56 l 593 -43 q 586 -35 592 -42 q 574 -20 581 -28 q 563 -6 568 -12 q 556 1 557 0 l 481 76 q 467 67 476 74 q 448 54 458 61 q 427 41 438 47 q 413 32 417 35 q 405 28 411 32 q 392 22 399 25 q 378 15 385 18 q 368 11 371 13 q 360 8 367 10 q 348 3 354 6 q 336 -2 342 0 q 331 -6 331 -4 q 326 -26 328 -7 q 321 -51 324 -46 l 314 -57 q 311 -54 314 -57 l 308 -51 q 303 -31 306 -46 q 300 -14 300 -17 l 293 -14 q 290 -35 292 -21 q 285 -66 288 -50 q 280 -97 282 -82 q 276 -118 278 -112 q 273 -144 275 -128 q 271 -164 271 -161 q 266 -167 268 -164 q 263 -169 264 -169 l 263 -14 q 258 -8 263 -12 l 256 -6 q 244 -2 253 -4 q 224 3 235 0 q 205 8 214 6 q 193 11 196 10 q 180 17 189 13 q 161 25 171 21 q 143 33 151 29 q 133 39 135 38 q 122 49 131 40 q 105 67 114 57 q 87 86 96 76 q 75 101 78 96 q 60 118 72 101 q 43 144 49 135 q 40 151 42 147 q 38 161 38 160 q 29 181 35 167 q 21 199 24 194 q 17 208 19 201 q 13 222 15 215 q 9 235 11 229 q 6 243 7 242 q 3 264 6 250 q 0 281 0 278 l 0 364 l 0 444 m 113 376 q 115 356 113 374 q 118 332 118 338 q 122 319 119 329 q 129 299 125 310 q 137 278 133 289 q 143 264 140 268 q 149 250 143 261 q 156 236 156 239 q 173 211 161 229 q 188 189 185 193 q 201 175 189 186 q 218 161 214 164 q 226 153 218 158 q 239 144 235 147 q 264 133 247 143 q 283 124 281 124 q 300 117 288 121 q 314 114 313 114 l 356 114 l 389 114 q 405 122 394 117 q 421 131 415 128 q 401 149 415 135 q 383 168 388 163 q 358 190 378 172 q 315 228 338 208 q 272 267 292 249 q 246 289 251 285 q 235 300 243 292 q 225 311 226 308 q 218 322 225 314 q 208 332 211 331 q 205 340 208 335 q 201 349 201 346 l 201 351 l 201 356 q 204 368 201 360 q 208 376 206 372 q 217 389 211 379 q 225 401 222 399 q 235 413 226 404 q 246 424 243 421 q 258 431 250 426 q 271 439 265 436 q 279 442 274 440 q 293 444 288 444 l 296 444 l 300 444 q 307 442 301 444 q 314 439 313 439 q 322 426 317 436 q 331 414 328 417 l 389 356 q 405 340 396 349 q 425 322 414 331 q 450 301 436 313 l 458 301 l 458 339 q 455 353 458 342 q 450 369 451 365 q 447 381 450 372 q 443 393 443 390 q 433 414 440 400 q 426 431 426 428 q 419 446 425 435 q 413 461 414 457 q 401 481 410 467 q 389 499 392 494 q 379 516 388 504 q 368 531 371 528 q 359 538 365 532 q 346 552 353 544 q 332 565 339 560 q 321 574 325 571 q 300 592 314 579 q 283 606 286 606 l 271 594 q 267 604 271 597 q 263 611 264 611 l 258 611 l 256 611 q 253 599 254 607 q 251 581 251 590 q 249 564 250 572 q 246 551 247 556 q 244 540 246 546 q 242 528 243 535 q 239 514 240 521 l 233 514 q 228 524 231 514 q 225 543 225 535 l 225 618 l 221 622 q 218 626 219 624 q 201 631 214 629 q 188 632 189 632 q 181 631 185 632 q 171 626 172 628 q 165 619 171 624 q 156 611 158 614 q 151 600 156 608 q 143 589 146 592 q 138 581 140 586 q 133 574 136 576 q 130 563 132 569 q 126 549 128 556 q 122 536 124 542 q 118 531 119 531 q 115 508 118 522 q 113 493 113 494 l 113 436 l 113 376 z "},"D":{"ha":665,"x_min":-71,"x_max":696,"o":"m 325 -161 q 328 -146 326 -158 q 330 -119 329 -133 q 332 -90 331 -104 q 335 -71 333 -76 q 336 -59 335 -69 q 338 -37 338 -49 q 340 -15 339 -25 q 342 -3 342 -6 l 342 17 l 342 35 q 327 33 338 35 q 305 28 317 31 q 282 23 293 25 q 267 21 271 21 q 242 16 258 18 q 222 14 225 14 q 200 11 215 13 q 167 9 185 10 q 133 7 149 8 q 110 4 117 6 l 81 4 l 56 4 q 49 13 54 7 q 42 21 43 18 l 42 22 l 42 29 q 45 40 43 32 q 47 51 47 49 q 59 65 50 54 q 72 79 68 76 q 78 85 74 81 q 87 95 82 90 q 96 105 92 100 q 100 110 100 110 q 101 119 100 114 q 104 133 104 131 q 102 149 104 138 q 100 164 100 161 q 98 181 100 167 q 93 201 96 194 q 90 213 93 204 q 85 222 88 221 q 78 243 85 228 q 72 260 72 258 q 66 285 68 268 q 61 304 64 301 q 58 324 61 306 q 51 367 56 342 q 42 424 47 393 q 33 481 38 454 q 24 525 28 507 q 18 546 19 543 q 12 560 15 549 q 6 583 8 571 q 0 607 3 596 q -3 619 -3 618 q -21 636 -7 621 q -40 657 -35 651 q -47 660 -42 657 q -57 666 -51 663 q -67 673 -62 669 q -71 678 -71 676 l -71 694 l -71 715 q -68 722 -69 718 q -65 732 -65 731 q -56 740 -62 733 q -43 753 -50 746 q -29 767 -36 761 q -19 775 -22 772 q -11 780 -17 778 q -3 782 -6 782 l 4 782 q 10 783 7 782 q 17 783 14 783 q 25 783 18 783 q 35 782 32 782 q 42 780 36 782 q 56 776 49 778 q 71 772 64 774 q 79 769 78 769 q 88 766 81 768 q 104 763 96 764 q 120 760 113 761 q 131 758 128 758 q 170 756 139 758 q 236 752 201 754 q 302 747 271 750 q 342 744 333 744 q 351 743 343 744 q 368 741 358 742 q 387 739 378 740 q 400 738 396 738 q 422 735 404 738 q 447 732 440 732 q 467 726 453 729 q 485 721 481 724 q 500 718 490 721 q 513 715 510 715 q 525 712 515 715 q 538 707 535 708 q 556 701 542 707 q 575 694 569 694 q 582 689 575 692 q 592 683 589 686 q 601 676 593 682 q 613 669 610 671 q 624 660 617 667 q 638 647 631 654 q 650 634 644 640 q 656 625 656 628 q 663 599 657 622 q 677 547 669 575 q 690 495 685 519 q 696 469 696 471 q 690 401 693 432 q 686 352 688 375 q 685 326 685 329 q 683 317 685 322 q 678 306 681 311 l 672 292 q 669 280 672 289 q 667 267 667 271 q 657 253 664 264 q 650 239 650 242 q 639 222 647 235 q 629 208 631 210 q 617 198 625 206 q 600 182 608 190 q 584 166 592 174 q 575 154 576 158 q 562 146 572 154 q 543 133 551 138 q 533 125 542 131 q 522 117 525 119 q 501 106 515 114 q 485 96 488 97 q 476 91 482 94 q 461 84 469 88 q 446 77 453 81 q 438 72 439 74 l 431 67 q 428 43 431 61 q 425 21 425 25 q 420 9 422 18 q 417 -3 418 0 l 410 4 q 406 13 408 6 q 403 28 404 19 q 401 42 401 36 q 400 51 400 49 l 393 51 l 388 51 q 377 48 382 51 q 372 42 372 44 l 372 14 q 367 -20 371 7 q 361 -80 364 -47 q 355 -144 358 -112 q 350 -190 351 -175 q 347 -204 349 -196 q 344 -221 346 -212 q 342 -242 343 -231 l 335 -242 q 332 -225 333 -233 q 328 -211 331 -218 q 325 -199 326 -204 l 325 -179 l 325 -161 m 168 625 q 172 601 169 624 q 177 544 174 578 q 185 470 181 510 q 192 397 189 431 q 197 339 194 363 q 200 314 199 315 q 203 303 200 311 q 206 292 206 294 q 210 274 208 285 q 213 260 213 263 q 216 234 214 253 q 219 194 218 215 q 222 153 221 172 q 222 126 222 133 l 231 126 l 243 126 q 257 128 247 126 q 277 130 267 129 q 298 132 288 131 q 313 133 308 133 q 329 136 315 133 q 350 142 343 139 q 365 144 354 142 q 379 147 376 147 q 395 152 385 149 q 417 159 406 156 q 436 166 428 163 q 447 171 444 169 q 458 175 450 171 q 474 185 465 179 q 492 194 483 190 q 506 201 501 199 q 520 209 511 204 q 529 217 529 214 q 547 233 536 221 q 560 246 557 246 l 560 258 l 560 267 q 558 278 558 268 q 560 298 558 288 q 561 317 561 308 q 560 325 561 325 q 557 342 560 326 q 550 383 554 358 q 542 434 546 407 q 533 485 538 461 q 526 526 529 510 q 522 543 522 542 q 515 547 521 543 q 504 557 510 551 q 493 567 499 563 q 486 571 488 571 q 485 549 486 572 q 482 492 483 526 q 478 416 481 457 q 475 340 476 375 q 472 282 474 306 q 471 258 471 258 q 467 285 469 260 q 463 347 465 310 q 459 428 461 385 q 455 508 457 471 q 451 570 453 546 q 447 594 449 594 q 436 598 444 596 q 425 603 428 600 q 407 606 418 603 q 393 608 396 608 l 381 608 l 372 608 q 367 603 369 608 q 363 594 365 599 q 362 572 363 593 q 360 518 361 550 q 359 449 360 486 q 358 381 358 413 q 356 327 357 349 q 356 304 356 306 l 350 292 l 338 297 l 338 603 l 331 610 q 324 615 328 613 q 318 619 321 617 q 308 622 317 619 q 297 625 300 625 q 283 626 293 625 q 260 628 272 628 q 238 631 249 629 q 222 632 226 632 q 210 633 218 632 q 194 633 203 633 q 177 633 185 633 q 167 633 169 633 l 168 625 z "},"R":{"ha":725,"x_min":-24,"x_max":728,"o":"m 190 -19 q 174 -22 189 -19 q 153 -24 158 -24 q 146 -14 151 -21 q 140 -6 140 -7 l 153 82 q 137 89 149 85 q 122 94 125 93 q 109 108 117 97 q 101 119 101 118 l 101 136 q 105 149 103 142 q 107 157 107 156 q 108 167 107 161 q 114 181 111 178 q 124 194 115 182 q 135 207 132 206 q 142 217 138 211 q 147 224 144 221 q 151 231 149 228 l 151 249 q 154 261 151 253 l 157 269 q 153 285 157 272 q 147 306 150 297 q 145 331 150 310 q 139 361 140 351 q 140 372 139 364 q 139 382 140 381 q 133 398 136 388 q 128 417 131 408 q 124 434 125 426 q 122 443 122 442 q 113 466 119 450 q 99 500 106 482 q 85 533 92 518 q 78 556 79 549 q 70 571 78 560 q 60 582 63 582 q 49 590 57 585 q 31 602 40 596 q 13 614 21 608 q 3 619 4 619 q -6 631 1 619 q -18 649 -12 642 q -21 656 -18 651 q -24 664 -24 661 l -24 671 q -23 676 -24 674 q -22 681 -22 678 q -20 688 -22 682 q -18 694 -18 693 q -15 699 -17 696 q -12 702 -14 701 q -11 706 -11 703 q -3 715 -10 707 q 3 726 3 724 q 17 738 6 729 q 32 749 29 746 q 44 754 35 751 q 57 757 54 757 l 65 760 q 72 763 68 761 q 78 764 75 764 l 82 764 l 85 764 q 101 754 89 761 q 115 743 114 747 q 126 735 118 742 q 142 719 133 728 q 159 703 151 711 q 169 693 167 696 q 185 686 175 690 q 201 682 196 682 q 263 674 218 679 q 359 663 308 669 q 454 651 410 657 q 515 644 499 646 q 544 636 521 640 q 576 632 567 632 q 597 622 583 625 q 614 618 611 619 q 626 613 617 617 q 644 603 635 608 q 664 594 654 599 q 678 589 674 590 q 686 585 681 589 q 694 582 692 582 q 706 568 700 575 q 714 561 711 561 q 722 550 715 558 q 728 539 728 542 q 727 526 728 536 q 726 511 726 517 q 722 496 722 507 l 722 486 q 719 479 722 485 q 711 467 715 474 q 702 453 707 460 q 694 443 697 446 q 686 433 692 440 q 678 424 681 426 q 657 403 671 417 q 640 386 643 389 q 610 362 632 379 q 563 324 588 344 q 515 286 538 304 q 485 261 493 268 q 490 258 488 261 q 494 251 492 254 q 504 245 497 250 q 518 234 511 240 q 531 223 525 228 q 540 218 538 218 q 556 206 544 214 q 578 190 567 199 q 599 175 589 182 q 614 164 610 168 q 622 156 615 161 q 632 144 629 150 q 647 134 638 142 q 665 119 656 126 q 681 104 674 111 q 689 94 688 97 q 694 86 689 92 q 704 74 699 81 q 715 63 710 68 q 719 56 719 57 q 728 39 725 47 q 726 32 726 35 l 726 24 l 726 7 q 717 -5 724 6 q 707 -18 710 -15 q 690 -33 704 -22 q 672 -44 676 -43 q 658 -51 669 -47 q 644 -57 647 -56 l 632 -57 q 626 -56 629 -57 q 619 -56 622 -56 q 607 -40 615 -51 q 590 -18 599 -29 q 572 4 581 -7 q 560 19 564 15 q 547 28 557 19 q 528 44 536 38 q 521 53 528 47 q 514 61 514 58 q 495 74 507 65 q 472 92 483 83 q 451 106 460 100 q 440 114 442 113 q 428 122 438 115 q 406 135 418 128 q 384 149 394 143 q 369 157 374 154 q 363 161 367 160 q 356 165 358 163 l 347 169 q 340 167 344 169 q 332 161 335 164 q 317 153 328 161 q 301 144 306 144 q 293 138 299 143 q 285 131 288 132 q 279 115 282 126 q 274 90 276 103 q 269 67 271 78 q 265 51 267 56 q 263 44 265 50 q 259 33 261 39 q 254 21 257 26 q 251 14 251 15 q 247 3 250 11 q 240 -15 243 -6 q 233 -32 236 -24 q 228 -43 229 -40 q 221 -50 228 -43 q 214 -57 217 -53 l 219 -14 q 210 -34 217 -18 q 201 -56 203 -50 q 199 -73 201 -60 q 195 -100 197 -86 q 191 -127 193 -114 q 189 -144 189 -140 l 178 -131 l 190 -19 m 235 543 q 242 512 236 535 q 253 463 247 489 q 264 413 258 436 q 272 382 269 390 q 276 372 274 379 q 279 354 278 364 q 281 336 281 344 q 282 326 282 328 l 286 314 l 289 306 l 290 306 l 301 306 q 321 305 307 306 q 351 303 335 304 q 381 301 367 301 q 401 299 394 300 l 415 306 q 428 315 419 308 q 448 329 438 322 q 468 342 458 336 q 482 351 478 349 q 505 371 489 357 q 539 399 521 385 q 572 426 557 414 q 594 444 588 439 q 601 451 597 444 q 607 461 604 458 q 599 467 604 461 q 594 476 594 474 q 579 485 590 476 q 564 494 568 494 q 555 498 563 496 q 538 503 547 500 q 519 510 529 507 q 503 518 508 514 q 484 523 496 519 q 469 526 472 526 q 457 529 463 528 q 439 532 443 532 l 410 532 q 402 522 404 531 q 397 511 400 514 q 394 499 397 508 q 390 486 390 489 l 385 486 q 381 512 385 492 q 378 539 378 532 l 378 542 q 376 544 378 543 l 372 544 l 365 544 q 358 523 364 540 q 353 501 353 506 q 349 488 353 496 q 344 476 344 479 l 339 476 l 335 481 q 333 492 335 482 q 332 507 332 503 q 330 529 329 513 q 328 551 331 546 l 240 557 l 235 543 z "},"E":{"ha":660,"x_min":-15,"x_max":743,"o":"m 193 50 q 188 46 190 47 q 183 43 185 44 q 178 42 181 42 q 168 35 174 39 q 156 25 157 26 q 139 18 147 22 l 128 13 q 122 11 125 13 q 115 10 118 10 q 109 11 113 10 q 103 13 106 13 l 100 15 q 97 18 97 18 l 97 29 l 97 42 q 98 47 97 42 q 100 59 99 53 q 102 72 101 65 q 103 79 103 78 q 108 106 106 89 q 111 125 111 122 l 111 231 l 111 342 q 108 345 111 343 q 103 350 106 347 l 99 350 l 97 350 q 90 347 96 349 q 77 345 83 346 q 65 343 71 344 q 60 342 60 342 l 40 342 l 22 342 q 18 344 19 343 q 15 350 15 347 l 13 353 q 11 360 11 354 q 13 367 11 364 l 15 372 q 17 379 15 375 q 22 388 21 386 q 29 399 24 390 q 36 410 35 407 q 43 417 36 413 q 53 425 50 422 q 67 435 56 425 q 81 447 78 444 q 88 450 85 447 q 90 454 89 451 l 90 463 l 90 468 q 87 492 89 471 q 82 538 85 513 q 77 584 79 563 q 74 610 75 606 l 60 638 q 51 651 57 642 q 43 660 46 660 q 29 677 40 665 q 15 692 18 689 q 3 698 13 692 q -10 706 -7 704 l -15 713 l -15 729 l -15 743 q -9 758 -15 746 q -1 772 -3 769 q 13 790 1 778 q 28 804 25 801 q 45 811 33 806 q 60 818 57 817 l 72 818 l 81 818 q 90 815 82 818 q 108 807 99 811 q 124 800 117 803 q 135 797 132 797 q 156 787 142 793 q 172 781 169 781 q 192 774 179 778 q 220 765 206 769 q 247 756 235 760 q 261 750 258 751 q 275 747 264 750 q 301 740 286 744 q 330 733 315 736 q 353 729 344 729 q 369 726 356 729 q 390 722 383 722 q 400 719 393 721 q 414 715 407 717 q 427 713 421 714 q 435 713 433 713 q 467 710 444 713 q 514 706 489 708 q 561 701 539 703 q 593 697 583 699 l 596 694 l 599 692 l 599 675 l 599 660 l 593 647 q 585 636 590 643 q 574 622 579 629 q 563 608 568 615 q 556 600 557 601 l 540 304 l 528 297 l 528 585 l 522 582 q 519 581 521 581 q 518 579 518 581 q 515 559 517 578 q 513 519 514 540 q 511 480 513 497 q 510 463 510 463 q 504 457 510 460 l 499 454 l 499 585 q 478 588 493 586 q 448 590 464 589 q 417 592 432 590 q 397 593 403 593 q 384 594 393 593 q 365 597 375 596 q 347 599 356 597 q 336 600 339 600 q 315 605 332 601 q 280 613 299 608 q 244 619 261 617 q 224 622 228 622 l 218 622 q 217 611 218 619 q 218 600 215 603 q 219 580 218 599 q 220 539 219 561 q 222 498 221 517 q 224 479 224 479 q 253 476 232 478 q 297 474 274 475 q 340 471 319 472 q 368 468 360 469 q 383 465 371 468 q 397 463 394 463 q 405 455 399 460 q 411 447 411 450 l 411 438 l 411 425 q 408 417 411 422 q 406 410 406 413 q 397 396 403 404 q 390 388 393 390 q 379 374 388 382 q 368 363 371 365 q 351 355 363 360 q 336 350 339 350 q 332 349 335 349 q 324 347 329 347 q 314 349 319 347 q 306 350 308 350 q 288 353 303 350 q 268 356 272 356 l 231 356 l 231 163 q 254 165 235 163 q 278 168 274 168 q 299 169 283 168 q 333 172 315 171 q 367 174 351 172 q 390 175 383 175 q 381 193 388 179 q 374 213 374 207 q 371 230 374 215 q 368 250 368 244 l 368 256 l 368 260 q 371 271 368 263 q 374 281 374 279 q 376 290 374 282 q 381 297 378 294 q 389 306 382 300 q 403 319 396 313 q 417 333 410 326 q 428 342 424 339 q 435 345 431 343 q 443 350 440 347 l 460 350 l 472 350 q 475 343 474 346 q 481 335 476 339 q 483 319 481 332 q 486 304 486 306 q 498 282 489 299 q 510 260 507 265 q 519 244 511 256 q 531 229 528 233 q 539 220 532 226 q 553 207 546 214 q 567 194 560 200 q 578 185 574 188 q 596 170 581 182 q 615 154 611 158 q 626 146 618 151 q 636 138 635 140 q 653 130 640 136 q 682 117 667 124 q 710 103 697 110 q 728 93 724 96 q 737 86 731 92 q 743 79 743 81 l 743 67 l 743 50 q 740 41 743 47 q 735 35 736 35 q 726 24 732 31 q 713 10 719 17 q 699 -4 706 3 q 690 -12 693 -11 q 682 -16 688 -12 q 674 -19 676 -19 l 656 -19 l 636 -19 q 626 -17 633 -19 q 610 -12 619 -15 q 594 -7 601 -10 q 585 -3 586 -4 q 555 5 574 0 q 517 14 536 10 q 483 22 497 18 q 465 25 468 25 q 458 26 463 25 q 449 29 450 29 q 442 27 447 29 q 435 25 436 25 q 433 13 435 22 q 431 -8 432 3 q 429 -28 431 -18 q 428 -40 428 -37 q 424 -60 428 -44 q 418 -78 421 -75 q 415 -86 418 -81 q 411 -94 411 -92 q 410 -84 411 -92 q 408 -68 410 -76 q 406 -52 407 -60 q 406 -40 406 -44 q 403 -27 404 -37 q 400 -4 401 -17 q 398 19 399 8 q 397 35 397 31 l 390 42 q 384 40 388 42 q 378 38 381 38 l 378 -183 l 368 -221 q 363 -211 365 -219 q 360 -200 360 -203 q 358 -187 360 -196 q 356 -167 357 -178 q 354 -147 356 -157 q 353 -132 353 -136 q 350 -97 351 -122 q 348 -42 349 -71 q 346 13 347 -12 q 343 50 344 39 l 193 50 z "},"F":{"ha":540,"x_min":3,"x_max":596,"o":"m 204 136 q 203 142 204 136 q 201 154 203 147 q 199 168 200 161 q 196 179 197 175 q 194 199 196 185 q 190 219 192 214 q 187 234 189 224 q 182 255 185 244 q 177 274 179 265 q 174 286 175 283 q 167 317 174 296 q 158 344 161 339 q 156 358 158 349 q 153 369 153 367 l 146 375 q 140 374 143 375 q 133 374 136 374 l 133 263 l 121 249 q 118 258 121 250 q 115 269 115 267 q 114 292 115 276 q 112 326 113 308 q 110 360 111 344 q 108 382 108 376 l 99 382 q 97 365 99 378 q 95 338 96 353 q 93 311 94 324 q 92 294 92 299 q 89 270 92 288 q 83 249 86 253 q 81 244 82 246 l 78 242 q 74 271 78 249 q 71 300 71 293 q 67 317 69 304 q 64 344 65 329 q 62 372 63 358 q 61 392 61 385 q 50 395 58 392 q 40 399 42 399 q 24 401 38 399 q 8 407 11 404 l 3 413 l 3 429 l 3 444 l 8 457 q 17 468 11 461 q 31 482 24 475 q 44 495 38 489 q 54 504 51 501 q 61 507 57 506 q 66 510 64 508 q 71 511 68 511 q 93 515 76 513 q 115 519 110 517 l 115 525 l 71 707 q 68 714 69 710 q 67 724 67 718 q 67 730 67 726 q 68 736 67 733 l 71 744 q 72 750 71 747 q 74 756 74 753 q 78 761 75 758 q 85 771 79 763 q 92 782 90 779 l 108 799 q 117 803 113 800 q 123 807 119 806 q 129 811 126 808 q 138 816 132 813 q 146 819 143 819 l 158 819 l 167 819 q 176 813 171 815 q 190 804 185 806 q 199 797 192 803 q 213 785 206 792 q 226 774 219 779 q 236 767 233 768 q 247 758 239 764 q 258 750 256 753 q 288 735 268 746 q 329 714 308 725 q 368 694 350 703 q 392 686 386 686 q 431 667 403 679 q 490 642 458 656 q 548 616 521 628 q 586 600 575 604 q 593 597 590 600 l 596 594 l 596 579 l 596 563 q 593 556 594 558 q 586 549 589 549 q 572 526 583 543 q 558 504 561 510 q 558 474 558 496 q 556 428 557 453 q 552 383 554 404 q 549 354 550 363 q 548 344 549 351 q 547 326 547 336 q 544 308 546 317 q 542 294 543 299 q 539 274 542 288 q 536 257 536 260 q 531 248 533 254 q 528 242 529 242 l 528 488 l 521 488 q 516 485 518 488 q 511 482 514 482 q 508 458 511 475 q 504 436 504 440 l 499 436 q 495 458 499 440 q 490 482 492 475 q 483 488 486 485 q 478 492 481 490 q 474 494 476 494 q 463 503 474 497 q 446 511 451 508 q 405 529 435 517 q 341 556 375 542 q 277 583 307 571 q 236 600 247 596 l 236 599 l 236 594 q 241 574 238 588 q 247 545 244 560 q 253 519 250 531 q 258 504 257 507 q 262 496 258 501 q 265 488 265 490 q 272 485 267 488 q 279 482 278 482 q 296 477 283 481 q 322 469 308 474 q 347 462 335 465 q 361 457 358 458 q 376 453 365 456 q 397 447 386 450 q 417 440 407 443 q 429 436 426 436 q 438 433 432 436 q 446 429 443 429 q 453 419 449 426 q 461 413 458 413 l 461 404 l 461 392 l 446 361 q 431 347 443 358 q 415 332 419 335 q 401 322 413 326 q 386 317 389 317 l 371 317 l 354 317 q 340 323 353 317 q 324 332 326 329 q 314 331 321 332 q 304 329 307 329 q 303 325 304 326 q 303 321 303 324 l 303 317 q 306 301 303 313 q 310 274 308 289 q 315 248 313 260 q 317 232 317 236 l 317 157 l 317 13 q 314 1 317 10 q 311 -8 311 -7 q 308 -13 310 -11 q 306 -18 307 -15 q 303 -25 304 -22 q 294 -35 300 -28 q 281 -49 288 -42 q 267 -62 274 -56 q 258 -69 261 -68 q 244 -76 256 -71 q 228 -83 232 -82 l 224 -83 l 221 -83 q 211 -77 218 -83 q 204 -69 204 -71 l 204 136 z "},"G":{"ha":657,"x_min":1,"x_max":701,"o":"m 219 15 q 205 22 215 17 q 184 33 194 26 q 164 44 174 39 q 151 53 154 50 q 137 60 146 56 q 128 68 128 65 q 113 82 124 72 q 92 103 103 92 q 71 123 81 114 q 60 135 61 132 q 49 153 60 136 q 32 181 38 171 q 27 185 29 181 q 22 193 25 190 q 15 214 19 200 q 7 231 10 228 q 4 247 7 235 q 1 261 1 260 l 1 322 l 1 385 q 4 399 3 392 q 6 412 6 406 q 7 422 7 418 q 12 432 10 424 q 15 443 14 440 q 25 463 18 449 q 39 491 32 476 q 52 518 46 506 q 60 535 58 531 q 71 548 63 536 q 82 561 79 560 q 103 582 89 568 q 131 610 117 596 q 158 637 146 625 q 172 653 169 649 q 180 658 174 654 q 194 667 186 663 q 208 677 201 672 q 219 685 215 682 q 242 694 225 686 q 264 706 258 703 q 285 714 268 708 q 310 722 303 719 q 331 725 314 722 q 353 728 349 728 l 376 728 l 397 728 q 419 725 401 728 q 444 722 438 722 q 456 717 447 719 q 465 711 464 714 q 483 705 471 711 q 497 697 494 699 q 513 685 501 694 q 526 674 524 676 q 536 663 528 674 q 547 647 544 651 q 551 642 549 644 q 554 638 553 640 q 557 631 556 633 l 557 615 l 557 599 q 553 589 557 597 q 547 578 550 581 q 538 566 544 574 q 523 550 531 558 q 508 534 515 542 q 497 524 501 526 q 485 521 494 524 q 472 518 476 518 l 465 518 l 460 518 q 446 529 454 521 q 435 540 438 538 q 431 551 435 543 q 428 561 428 560 q 418 573 426 564 q 407 585 410 582 q 392 592 404 586 q 376 599 381 597 q 365 606 374 601 q 353 610 356 610 l 322 610 l 294 610 q 294 588 294 603 q 292 556 293 572 q 288 524 290 539 q 285 503 286 508 q 281 485 285 499 q 278 465 278 471 l 265 481 l 265 610 l 247 556 l 240 561 q 237 577 239 567 q 235 593 235 588 l 228 593 l 226 593 q 219 589 224 590 q 214 586 217 588 q 210 585 211 585 q 199 577 207 582 q 189 572 190 572 q 177 560 186 569 q 165 547 168 551 q 153 533 161 544 q 144 518 144 521 q 136 503 142 515 q 128 486 131 492 q 124 476 126 485 q 119 465 122 468 q 117 444 119 458 q 114 428 114 431 l 114 390 l 114 353 q 117 340 114 350 q 119 322 119 329 q 125 310 122 319 q 128 299 128 301 q 136 285 131 297 q 144 268 142 272 l 150 260 q 155 253 153 257 q 157 247 157 250 q 171 230 163 242 q 182 218 179 218 q 196 201 185 213 q 210 186 207 189 q 226 176 214 185 q 240 165 239 168 q 251 160 243 164 q 269 151 260 156 q 288 141 278 146 q 301 135 297 136 q 311 131 303 135 q 322 128 319 128 q 335 124 326 126 q 353 121 344 122 q 368 119 361 119 q 376 118 375 118 q 392 122 381 118 q 407 128 404 125 q 421 140 410 131 q 435 156 432 150 q 451 183 442 165 q 460 203 460 200 l 460 306 q 424 308 449 307 q 369 310 399 310 q 315 313 340 311 q 278 315 289 314 q 253 317 269 315 q 221 319 238 318 q 190 321 204 319 q 172 322 176 322 q 161 326 169 324 q 151 331 153 328 q 147 336 149 333 q 144 343 144 342 l 144 349 l 144 353 q 147 365 144 357 q 151 374 149 369 q 160 386 153 378 q 176 403 168 394 q 192 418 185 411 q 203 428 200 425 q 215 431 206 428 q 226 435 224 435 l 244 435 l 272 435 q 328 434 294 435 q 401 433 363 433 q 477 431 439 432 q 547 430 515 431 q 601 428 579 429 q 626 428 622 428 q 638 427 629 428 q 658 425 647 426 q 678 423 668 424 q 690 422 688 422 l 701 411 l 701 397 l 701 385 q 697 376 701 382 q 690 368 693 371 q 683 356 689 365 q 676 343 678 346 q 672 342 674 343 q 669 336 669 339 q 653 324 665 332 q 639 315 640 315 q 617 307 633 313 q 594 299 600 301 q 590 289 592 297 q 585 278 588 281 l 585 265 l 585 256 q 588 242 586 253 q 593 216 590 231 q 598 188 596 201 q 601 165 600 174 q 605 146 603 161 q 610 128 607 131 q 612 115 610 124 q 617 98 614 107 q 622 81 619 89 q 626 68 625 72 q 628 57 626 65 q 633 40 631 49 q 637 24 635 31 q 639 15 639 17 q 640 1 639 13 q 640 -15 640 -11 q 640 -34 640 -24 q 639 -47 639 -44 q 633 -57 636 -53 q 628 -64 631 -61 q 626 -69 626 -67 q 609 -85 621 -75 q 594 -97 597 -94 q 579 -107 590 -100 q 564 -114 568 -114 l 553 -114 l 540 -114 l 535 -107 q 527 -85 532 -104 q 519 -60 522 -67 l 517 -49 q 513 -40 515 -44 q 510 -32 511 -35 q 507 -14 510 -28 q 500 17 504 0 q 492 49 496 33 q 489 68 489 64 q 485 79 489 71 q 482 90 482 88 q 464 75 478 86 q 444 60 450 64 q 426 45 438 54 q 414 36 415 36 q 392 26 408 35 q 369 15 375 18 q 347 6 365 13 q 322 -1 329 -1 q 325 -23 325 -6 q 322 -47 325 -40 q 319 -65 322 -50 q 315 -85 315 -79 q 312 -80 314 -82 q 310 -76 310 -78 q 305 -64 307 -76 q 301 -47 303 -51 q 298 -27 301 -42 q 294 -7 294 -12 l 292 -4 q 285 -1 289 -1 l 282 -1 l 278 -1 q 277 -26 278 -8 q 275 -65 276 -44 q 273 -103 274 -85 q 272 -128 272 -121 q 269 -142 271 -132 q 267 -162 268 -151 q 265 -183 267 -172 q 264 -197 264 -193 q 260 -215 264 -201 q 257 -235 257 -229 q 252 -237 254 -235 q 247 -240 250 -240 q 244 -222 247 -236 q 240 -203 240 -208 l 240 -128 q 238 -113 240 -126 q 235 -97 235 -100 q 232 -79 233 -93 q 229 -50 231 -65 q 227 -21 228 -35 q 226 -1 226 -7 l 219 15 z "},"H":{"ha":486,"x_min":6,"x_max":493,"o":"m 86 -44 q 78 -30 83 -42 q 74 -12 74 -18 q 67 1 71 -10 q 64 17 64 11 q 62 31 64 19 q 57 58 60 43 q 52 85 54 72 q 49 106 50 99 q 46 135 49 114 q 43 160 43 156 q 36 215 40 176 q 27 294 32 253 q 18 369 22 335 q 11 417 14 404 q 10 436 11 424 q 8 462 10 449 q 6 485 7 475 q 6 497 6 494 l 6 585 l 6 668 q 8 689 6 671 q 11 717 11 707 q 17 732 14 724 l 19 743 q 31 766 22 749 q 43 792 40 783 q 50 801 44 793 q 57 813 56 810 l 74 829 q 85 836 76 831 q 94 843 93 842 q 101 847 97 844 q 111 851 106 849 q 124 856 117 854 q 130 858 126 856 q 136 860 133 860 q 142 858 139 860 q 149 856 146 856 q 156 851 151 856 q 161 843 161 846 q 163 840 161 842 q 163 838 163 839 q 164 835 164 836 l 161 829 q 159 815 161 824 q 156 806 157 806 q 153 801 156 806 q 146 791 150 796 q 138 781 142 786 q 132 775 133 776 q 130 772 131 774 q 128 767 129 769 q 124 760 126 763 l 124 535 l 132 535 q 140 536 133 535 q 152 538 146 538 q 164 540 158 539 q 169 542 169 542 q 203 548 179 543 q 256 558 228 553 q 309 567 285 563 q 343 572 333 571 l 356 579 l 356 813 q 363 826 356 815 q 374 843 369 836 l 411 881 q 424 886 414 881 q 439 893 433 892 l 444 893 l 449 893 q 461 890 453 893 q 468 888 465 889 l 468 618 l 476 572 l 476 342 q 479 295 478 328 q 481 226 481 263 q 483 158 482 190 q 486 113 485 125 q 488 103 486 111 q 490 84 489 94 q 492 65 490 74 q 493 54 493 56 l 493 35 l 493 17 q 490 5 493 14 q 486 -7 486 -4 q 483 -22 485 -10 q 481 -49 482 -35 q 479 -74 481 -62 q 476 -87 478 -86 q 474 -101 476 -93 q 469 -112 472 -110 q 465 -114 468 -114 q 457 -115 463 -115 l 457 -37 q 456 -53 457 -42 q 454 -78 456 -65 q 451 -103 453 -92 q 449 -119 450 -115 q 445 -132 449 -124 q 439 -140 442 -140 q 438 -143 439 -142 l 438 -144 l 436 -144 l 433 -144 q 432 -140 432 -144 q 429 -122 432 -137 q 426 -103 426 -107 q 421 -81 424 -97 q 418 -58 418 -64 l 401 -58 q 394 -56 399 -58 q 389 -50 389 -53 q 384 -41 386 -50 q 381 -28 382 -32 q 376 -8 378 -22 q 374 10 374 7 q 371 32 372 15 q 369 68 369 49 q 367 105 368 88 q 364 129 365 122 q 363 176 364 139 q 360 257 361 214 q 358 338 360 300 q 357 385 357 375 q 356 400 357 389 q 354 422 356 411 q 352 444 353 433 q 351 460 351 456 l 332 460 l 314 460 q 290 457 307 460 q 268 454 272 454 q 265 449 268 451 q 261 443 261 446 q 258 414 260 435 q 256 369 257 393 q 254 323 256 344 q 251 293 253 301 q 250 278 251 290 q 248 249 249 265 q 246 219 247 233 q 244 197 244 204 q 244 182 244 193 q 242 158 243 171 q 240 135 240 146 q 239 122 239 125 q 236 110 238 118 q 234 94 235 103 q 232 78 233 86 q 231 68 231 71 q 227 90 231 74 q 224 113 224 107 l 224 131 l 224 150 q 225 181 224 157 q 227 234 226 206 q 229 286 228 263 q 231 317 231 310 l 231 443 l 219 443 q 220 433 219 440 q 222 418 221 426 q 223 402 222 410 q 224 392 224 394 q 219 372 221 386 q 214 354 217 358 l 211 354 l 207 354 q 202 361 206 356 q 199 368 199 367 q 199 382 199 372 q 200 402 200 392 q 201 422 200 413 q 201 435 201 431 q 185 436 199 435 q 169 438 172 438 q 154 434 165 438 q 139 429 143 431 l 139 406 l 139 385 q 142 365 140 381 q 147 328 144 349 q 152 287 150 307 q 156 256 154 267 q 158 235 156 250 q 163 204 160 221 q 167 172 165 188 q 169 150 169 156 q 172 135 169 147 q 176 110 174 124 q 182 85 179 97 q 186 68 185 72 l 186 54 l 186 38 q 183 33 185 36 q 180 28 182 31 q 176 25 178 26 q 169 11 174 19 q 161 0 164 3 q 153 -9 160 -3 q 140 -22 147 -15 q 126 -35 133 -29 q 118 -44 119 -42 l 118 -382 l 111 -396 q 105 -378 108 -392 q 101 -358 101 -364 q 100 -343 101 -354 q 98 -320 99 -332 q 96 -298 97 -308 q 94 -283 94 -287 q 93 -235 94 -269 q 91 -164 92 -201 q 89 -92 90 -126 q 86 -44 88 -58 z "},"I":{"ha":163,"x_min":13,"x_max":146,"o":"m 50 -3 q 38 -6 47 -3 q 26 -8 29 -8 q 19 -1 25 -7 q 13 6 13 4 l 13 93 l 13 179 q 13 228 13 189 q 15 322 14 268 q 19 439 17 376 q 22 556 21 501 q 25 650 24 610 q 26 700 26 690 q 38 722 29 704 q 50 743 47 739 q 59 755 50 746 q 71 767 68 764 q 82 774 74 768 q 93 781 90 779 q 101 788 97 785 q 108 792 104 790 l 121 792 l 131 792 q 136 788 133 792 q 139 781 139 783 q 142 771 139 779 q 146 760 146 763 l 146 743 l 146 729 q 144 717 146 726 q 142 699 143 708 q 140 680 142 689 q 139 668 139 671 q 138 610 139 656 q 134 503 136 565 q 129 372 132 442 q 124 240 126 301 q 120 133 122 178 q 118 75 118 88 q 113 61 115 69 q 108 50 111 53 q 101 40 104 46 q 93 29 93 29 q 90 21 93 26 q 88 13 88 15 q 86 -8 88 7 q 84 -39 85 -22 q 82 -70 83 -56 q 81 -90 81 -85 q 77 -110 79 -97 q 74 -135 75 -122 q 72 -160 72 -149 q 71 -175 71 -171 q 67 -196 71 -178 q 64 -219 64 -214 q 61 -233 64 -221 q 56 -250 58 -246 q 53 -261 56 -253 q 50 -271 50 -269 l 50 -3 l 50 -3 z "},"[":{"ha":289,"x_min":10,"x_max":276,"o":"m 110 -17 l 110 -53 l 106 -53 l 94 -24 l 90 -21 q 89 -22 89 -21 q 88 -22 89 -22 q 85 -24 86 -24 q 74 -26 82 -24 q 64 -28 65 -28 l 56 -28 l 49 -28 l 44 -24 q 39 -17 39 -18 q 37 -10 39 -15 q 35 -3 35 -4 l 35 63 l 35 126 q 35 147 35 131 q 37 183 36 164 q 38 217 38 201 q 39 238 39 233 q 39 253 39 239 q 40 286 39 268 q 40 323 40 304 q 40 354 40 342 q 40 376 40 360 q 40 411 40 393 q 39 445 39 429 q 39 468 39 461 q 37 490 39 474 q 35 514 35 507 q 32 524 33 518 q 31 532 31 528 q 31 539 31 536 q 26 549 28 542 q 24 558 24 556 q 21 567 24 560 q 16 581 18 574 q 12 596 14 589 q 10 604 10 603 l 10 614 l 10 622 q 14 633 10 625 q 19 643 18 642 q 29 653 22 646 q 39 664 36 661 q 47 669 40 667 q 56 672 53 672 q 61 677 56 675 q 69 679 67 679 l 72 679 l 74 679 q 94 676 78 678 q 130 671 111 674 q 165 666 149 668 q 185 664 181 664 q 198 663 189 664 q 217 660 207 661 q 237 659 228 660 q 249 658 246 658 q 253 656 250 658 q 256 654 254 654 l 256 651 l 256 647 q 252 640 253 646 q 249 633 251 635 q 246 626 249 631 q 240 618 243 621 l 219 597 q 210 593 218 597 q 199 589 201 589 q 190 585 197 588 q 181 583 182 583 l 172 583 l 165 583 q 156 584 163 583 q 140 585 149 585 q 123 588 131 586 q 114 589 115 589 l 110 589 l 110 583 q 112 563 110 581 q 114 543 114 546 q 115 527 114 538 q 117 505 117 517 q 119 484 118 493 q 119 472 119 475 l 119 408 l 119 338 q 119 317 119 333 q 117 283 118 301 q 115 249 115 264 q 114 229 114 233 l 114 139 l 114 51 q 126 56 118 53 q 144 61 135 58 q 163 66 154 64 q 174 68 171 68 q 186 70 176 68 q 199 72 196 72 q 219 76 206 75 q 235 76 232 76 q 242 78 236 76 q 253 79 249 79 q 262 78 256 79 q 269 76 268 76 q 274 72 274 76 q 275 69 274 71 q 276 66 275 68 q 276 63 276 64 q 275 57 276 60 q 274 51 274 54 q 272 49 272 50 q 271 46 271 47 q 269 43 271 44 q 265 35 268 40 q 260 26 261 29 q 254 22 257 26 q 249 18 251 18 q 243 13 249 17 q 235 8 238 10 q 229 3 232 6 q 224 1 226 1 q 215 1 222 1 q 198 -1 207 0 q 181 -2 189 -1 q 169 -3 172 -3 q 157 -5 167 -3 q 144 -7 147 -7 q 140 -10 143 -8 q 136 -12 136 -11 l 136 -187 l 131 -187 l 119 -17 l 110 -17 z "},"S":{"ha":521,"x_min":7,"x_max":546,"o":"m 307 8 l 296 8 l 296 -99 l 283 -99 l 269 0 q 242 3 261 0 q 215 8 222 6 q 204 10 213 8 q 194 14 196 13 q 177 22 189 17 q 163 31 165 28 l 153 40 q 145 47 149 44 q 140 51 142 50 q 134 63 140 54 q 125 75 128 72 q 117 91 122 79 q 113 106 113 103 q 106 119 110 108 q 103 133 103 131 l 103 181 l 103 218 q 110 238 103 224 q 119 256 117 251 q 104 257 115 256 q 82 259 93 258 q 60 261 71 260 q 44 263 49 263 q 36 265 42 263 q 28 271 31 268 q 20 277 25 271 q 13 283 15 283 q 10 293 13 285 q 7 300 8 297 l 7 318 l 7 338 q 10 351 7 339 q 13 368 13 364 q 20 387 15 374 q 30 415 25 400 q 39 442 35 429 q 44 458 43 454 q 58 485 46 465 q 75 518 71 506 q 85 540 78 524 q 100 576 92 557 q 115 613 108 596 q 125 638 122 631 q 144 670 132 654 q 168 702 156 686 q 192 736 181 718 q 208 775 203 754 q 214 783 210 776 q 223 798 218 790 q 233 813 228 806 q 240 825 238 821 q 245 835 240 826 q 253 850 250 844 q 266 865 257 854 q 278 876 275 875 q 292 894 281 882 q 307 908 304 906 q 317 915 308 908 q 328 925 325 922 q 338 928 329 925 q 344 931 340 929 l 371 931 l 396 931 l 413 914 q 420 904 415 913 q 428 893 425 896 q 433 876 428 890 q 440 856 438 863 q 450 834 443 851 q 457 813 457 817 q 459 802 457 810 q 464 786 461 794 q 469 770 467 778 q 471 758 471 763 q 474 744 471 756 q 478 726 478 732 q 483 703 479 718 q 492 674 488 689 q 499 646 496 658 q 503 631 501 633 q 509 613 503 624 q 515 593 515 603 q 522 566 518 583 q 525 546 525 549 l 525 513 l 525 496 q 522 488 525 493 q 515 481 518 483 q 504 464 513 476 q 494 450 496 451 q 480 438 492 447 q 465 426 468 429 q 453 424 463 426 q 440 421 444 421 l 438 421 l 433 421 q 426 424 432 421 q 419 426 421 426 q 415 433 417 429 q 413 443 413 442 q 408 454 410 446 q 403 464 406 463 q 399 481 403 469 q 396 496 396 493 q 395 510 396 500 q 393 533 394 521 q 391 557 392 546 q 390 571 390 568 q 386 586 388 579 q 383 599 385 593 q 382 608 382 606 q 370 642 379 622 q 358 668 361 661 q 351 694 357 674 q 344 721 346 714 q 338 739 342 728 q 331 761 335 750 q 321 788 325 774 l 313 788 q 313 771 313 783 q 314 744 314 758 q 315 717 314 729 q 315 700 315 704 q 312 678 315 694 q 307 658 308 663 q 303 671 307 661 q 300 683 300 681 q 297 697 299 688 q 295 716 296 706 q 293 736 294 726 q 290 750 292 746 l 278 721 l 278 583 l 269 571 l 258 583 l 258 696 q 251 686 256 693 q 240 672 246 679 q 231 657 235 664 q 225 646 226 650 q 217 628 224 643 q 201 594 210 614 q 184 556 193 575 q 171 525 175 536 q 164 513 169 519 q 157 501 158 507 q 149 479 154 493 q 140 451 144 465 q 131 426 135 438 q 125 413 126 414 q 128 399 125 410 q 132 383 132 388 q 149 383 136 383 q 177 382 163 382 q 205 382 192 382 q 225 383 218 382 q 233 384 226 383 q 249 386 240 385 q 267 388 258 388 q 278 389 275 389 q 293 392 283 390 q 313 396 303 394 q 329 399 322 397 q 338 400 336 400 l 403 400 l 457 400 q 478 392 461 397 q 503 383 496 386 q 517 369 506 381 q 532 351 529 357 q 540 336 533 347 q 546 321 546 325 l 546 283 l 546 239 q 543 229 546 238 q 540 218 540 221 q 536 209 539 215 q 529 196 533 203 q 521 182 525 189 q 515 171 517 175 q 511 163 514 167 q 506 156 508 160 q 503 150 504 153 q 489 134 497 144 q 478 121 481 124 q 473 113 478 118 q 465 106 468 108 q 456 97 463 103 q 441 85 449 92 q 427 74 433 79 q 419 68 421 69 q 408 60 417 65 q 396 51 399 54 q 386 47 393 51 q 370 37 379 42 q 353 27 361 32 q 344 21 346 22 q 339 17 343 21 q 338 14 338 15 l 338 6 l 338 -7 q 339 -27 338 -11 q 341 -61 340 -43 q 343 -94 342 -79 q 344 -112 344 -110 l 344 -162 l 344 -211 q 343 -222 344 -214 q 341 -237 342 -229 q 339 -253 340 -246 q 338 -262 338 -261 q 333 -244 335 -258 q 328 -225 331 -231 q 324 -185 326 -214 q 320 -124 322 -157 q 317 -63 318 -92 q 315 -24 315 -35 l 307 8 m 221 233 q 221 224 221 231 q 222 211 221 218 q 225 196 224 204 q 230 180 225 190 q 240 164 235 169 q 252 150 240 163 q 269 133 264 138 q 276 130 271 133 q 283 126 282 126 l 325 126 l 358 126 q 366 129 360 126 q 379 135 372 132 q 393 143 386 139 q 403 150 400 147 q 411 157 406 151 q 419 164 417 163 q 427 180 421 169 q 433 196 433 190 l 433 214 l 433 233 q 427 248 433 236 q 419 263 421 260 q 408 270 417 264 q 396 276 399 276 q 379 281 394 279 q 358 283 364 283 l 340 283 l 321 283 q 301 283 314 283 q 276 281 289 282 q 252 279 263 281 q 240 276 242 278 q 232 274 238 276 q 225 271 228 272 q 223 251 225 265 q 221 233 221 238 z "}}}
